<svg width="40" height="40" viewBox="0 0 40 40" fill="none" xmlns="http://www.w3.org/2000/svg">
<path opacity="0.963" fill-rule="evenodd" clip-rule="evenodd" d="M33.4766 10.8203C33.138 10.8203 32.7995 10.8203 32.4609 10.8203C30.8895 6.29328 27.7905 3.38963 23.1641 2.10937C22.441 1.9498 21.7118 1.83261 20.9766 1.75781C20.9635 2.77377 20.9766 3.7894 21.0156 4.80469C21.0547 5.26041 21.3021 5.50781 21.7578 5.54687C22.2589 5.55695 22.7537 5.60904 23.2422 5.70312C23.6198 5.8724 23.8932 6.14583 24.0625 6.52344C24.1761 7.76791 24.2152 9.01789 24.1797 10.2734C23.8672 10.2734 23.5547 10.2734 23.2422 10.2734C23.2552 9.28351 23.2422 8.2939 23.2031 7.30469C23.1641 6.84896 22.9166 6.60156 22.4609 6.5625C21.9598 6.55242 21.4651 6.50033 20.9766 6.40625C20.599 6.23698 20.3255 5.96354 20.1562 5.58594C20.0426 4.31539 20.0035 3.03935 20.0391 1.75781C18.6285 1.7013 17.2613 1.90964 15.9375 2.38281C15.8691 3.06481 15.8952 3.7419 16.0156 4.41406C16.2856 4.74661 16.6372 4.88983 17.0703 4.84375C17.6491 5.03191 18.0528 5.40951 18.2812 5.97656C18.3445 7.56848 18.3315 9.15703 18.2422 10.7422C17.7373 10.8414 17.2425 10.8414 16.7578 10.7422C17.1337 10.6652 17.3291 10.4309 17.3438 10.0391C17.3959 8.86719 17.3959 7.69531 17.3438 6.52344C17.3256 6.27047 17.2084 6.07515 16.9922 5.9375C16.0487 5.92862 15.3847 5.49894 15 4.64844C14.974 3.9974 14.9479 3.34635 14.9219 2.69531C11.3121 4.26047 8.85117 6.89068 7.53906 10.5859C7.20819 10.6591 6.86965 10.6851 6.52344 10.6641C7.65533 6.83655 9.99906 4.01104 13.5547 2.1875C16.9866 0.585573 20.5282 0.299115 24.1797 1.32812C27.9842 2.55491 30.8098 4.93772 32.6562 8.47656C33.0002 9.23492 33.2736 10.0162 33.4766 10.8203Z" fill="#EFB9D3"/>
<path opacity="0.962" fill-rule="evenodd" clip-rule="evenodd" d="M15.5859 10.8203C15.2213 10.8203 14.8568 10.8203 14.4922 10.8203C14.0905 10.1683 13.5436 10.0251 12.8516 10.3906C12.703 10.5258 12.5727 10.669 12.4609 10.8203C12.1224 10.8203 11.7838 10.8203 11.4453 10.8203C11.9165 9.41257 12.88 8.90476 14.3359 9.29687C14.9831 9.61413 15.3998 10.1219 15.5859 10.8203Z" fill="#EEB9D3"/>
<path opacity="0.971" fill-rule="evenodd" clip-rule="evenodd" d="M23.2422 10.2734C23.5547 10.2734 23.8672 10.2734 24.1797 10.2734C24.173 10.3513 24.1991 10.4163 24.2578 10.4688C24.7348 10.6408 25.0995 10.9402 25.3516 11.3672C24.9349 11.4193 24.5182 11.4713 24.1016 11.5234C23.7611 11.3273 23.4226 11.3273 23.0859 11.5234C22.6582 11.4462 22.2155 11.4202 21.7578 11.4453C21.8423 11.2684 21.9465 11.0991 22.0703 10.9375C22.4508 10.6699 22.8414 10.4486 23.2422 10.2734Z" fill="#EAB4D5"/>
<path opacity="0.986" fill-rule="evenodd" clip-rule="evenodd" d="M32.4609 10.8203C32.7995 10.8203 33.138 10.8203 33.4766 10.8203C33.5527 11.0208 33.6048 11.2291 33.6328 11.4453C32.0567 11.4711 30.4942 11.4451 28.9453 11.3672C29.1514 11.1233 29.4119 10.954 29.7266 10.8594C30.6377 10.8203 31.5491 10.8072 32.4609 10.8203Z" fill="#E9B3D5"/>
<path opacity="0.936" fill-rule="evenodd" clip-rule="evenodd" d="M7.53906 10.5859C7.4026 11.0736 7.29844 11.5684 7.22656 12.0703C6.87248 12.0952 6.53394 12.0691 6.21094 11.9922C6.23693 11.5222 6.34109 11.0795 6.52344 10.6641C6.86965 10.6851 7.20819 10.6591 7.53906 10.5859Z" fill="#E7B1D6"/>
<path opacity="0.942" fill-rule="evenodd" clip-rule="evenodd" d="M11.4453 10.8203C11.7838 10.8203 12.1224 10.8203 12.4609 10.8203C12.3446 11.2926 12.4488 11.7093 12.7734 12.0703C12.3676 12.0452 11.9769 12.0713 11.6015 12.1484C11.4059 11.7285 11.3539 11.2858 11.4453 10.8203Z" fill="#E7B1D6"/>
<path opacity="0.968" fill-rule="evenodd" clip-rule="evenodd" d="M16.7578 10.7422C17.2425 10.8414 17.7373 10.8414 18.2422 10.7422C18.0257 11.2289 17.6611 11.5544 17.1484 11.7188C16.6257 11.732 16.1048 11.771 15.5859 11.8359C15.5328 11.9422 15.4807 12.0463 15.4297 12.1484C15.0465 12.0746 14.6559 12.0485 14.2578 12.0703C14.5995 11.6912 14.6776 11.2745 14.4922 10.8203C14.8568 10.8203 15.2213 10.8203 15.5859 10.8203C15.9814 10.838 16.372 10.8119 16.7578 10.7422Z" fill="#E7B2D6"/>
<path opacity="0.978" fill-rule="evenodd" clip-rule="evenodd" d="M28.9452 11.3672C30.4941 11.4451 32.0566 11.4711 33.6327 11.4453C33.7908 12.0836 33.8689 12.7346 33.8671 13.3984C33.5286 13.3984 33.19 13.3984 32.8515 13.3984C32.8287 12.8486 32.7766 12.3017 32.6952 11.7578C31.7789 11.7256 30.8674 11.7647 29.9608 11.875C29.6251 12.1051 29.4689 12.4306 29.4921 12.8516C29.1796 12.8516 28.8671 12.8516 28.5546 12.8516C28.4668 12.2873 28.597 11.7925 28.9452 11.3672Z" fill="#E4AED7"/>
<path opacity="0.949" fill-rule="evenodd" clip-rule="evenodd" d="M6.21081 11.9922C6.53381 12.0691 6.87235 12.0952 7.22644 12.0703C7.1378 12.5451 7.05967 13.0138 6.99206 13.4766C6.69531 13.3998 6.38281 13.3737 6.05456 13.3984C6.03709 12.911 6.08918 12.4423 6.21081 11.9922Z" fill="#E2ABD9"/>
<path opacity="0.958" fill-rule="evenodd" clip-rule="evenodd" d="M12.7734 12.0703C13.2682 12.487 13.763 12.487 14.2578 12.0703C14.6559 12.0485 15.0465 12.0746 15.4297 12.1485C14.67 13.3933 13.6284 13.6929 12.3047 13.0469C11.992 12.8004 11.7576 12.501 11.6016 12.1485C11.977 12.0714 12.3676 12.0453 12.7734 12.0703Z" fill="#E1ABD8"/>
<path opacity="0.97" fill-rule="evenodd" clip-rule="evenodd" d="M21.7579 11.4453C22.2156 11.4202 22.6583 11.4462 23.0861 11.5234C22.6544 11.7873 22.4461 12.178 22.4611 12.6953C22.1854 12.8455 21.8729 12.8976 21.5236 12.8516C21.3864 12.3507 21.4645 11.882 21.7579 11.4453Z" fill="#E4AED8"/>
<path opacity="0.961" fill-rule="evenodd" clip-rule="evenodd" d="M25.3516 11.3672C25.5036 11.5417 25.5948 11.7501 25.625 11.9922C25.664 12.2775 25.677 12.5639 25.6641 12.8516C25.3179 12.8726 24.9793 12.8466 24.6484 12.7734C24.7199 12.2398 24.5377 11.8232 24.1016 11.5234C24.5182 11.4713 24.9349 11.4193 25.3516 11.3672Z" fill="#E3ADD7"/>
<path opacity="0.958" fill-rule="evenodd" clip-rule="evenodd" d="M22.4609 12.6953C22.807 13.5702 23.4059 13.7915 24.2578 13.3594C24.4373 13.1954 24.5675 13.0001 24.6484 12.7734C24.9793 12.8466 25.3179 12.8726 25.6641 12.8516C25.3021 14.2131 24.4166 14.773 23.0078 14.5313C22.1627 14.2726 21.668 13.7127 21.5234 12.8516C21.8727 12.8976 22.1852 12.8455 22.4609 12.6953Z" fill="#DCA6DB"/>
<path fill-rule="evenodd" clip-rule="evenodd" d="M28.5547 12.8516C28.8672 12.8516 29.1797 12.8516 29.4922 12.8516C29.4922 13.3463 29.4922 13.8412 29.4922 14.3359C29.1797 14.3359 28.8672 14.3359 28.5547 14.3359C28.5547 13.8412 28.5547 13.3463 28.5547 12.8516Z" fill="#DCA5DB"/>
<path opacity="0.967" fill-rule="evenodd" clip-rule="evenodd" d="M32.8516 13.3984C33.1901 13.3984 33.5287 13.3984 33.8672 13.3984C33.9562 14.0373 33.9562 14.6884 33.8672 15.3516C33.521 15.3726 33.1824 15.3466 32.8516 15.2734C32.9409 14.6439 32.9409 14.0189 32.8516 13.3984Z" fill="#D8A2DD"/>
<path opacity="0.98" fill-rule="evenodd" clip-rule="evenodd" d="M6.0546 13.3984C6.38285 13.3737 6.69535 13.3997 6.9921 13.4765C6.9921 13.7369 6.9921 13.9974 6.9921 14.2578C7.53959 14.2448 8.08648 14.2578 8.63273 14.2969C9.12812 14.4277 9.47968 14.7272 9.68741 15.1953C9.77351 15.6093 9.83866 16.0259 9.88273 16.4453C9.54421 16.4453 9.20562 16.4453 8.8671 16.4453C8.88945 16.0522 8.78523 15.7006 8.5546 15.3906C8.07616 15.2205 7.58134 15.1554 7.07023 15.1953C7.08627 15.5681 7.13836 15.9326 7.22648 16.289C6.91292 16.4323 6.57438 16.4844 6.21085 16.4453C6.00645 15.4258 5.95436 14.4102 6.0546 13.3984Z" fill="#D69EDD"/>
<path opacity="0.961" fill-rule="evenodd" clip-rule="evenodd" d="M28.5547 14.3359C28.8672 14.3359 29.1797 14.3359 29.4922 14.3359C30.5359 14.6507 31.0827 15.3538 31.1328 16.4453C30.7943 16.4453 30.4557 16.4453 30.1172 16.4453C29.8977 15.3981 29.2988 15.0986 28.3203 15.5469C28.1033 15.7502 27.9731 15.9977 27.9297 16.2891C27.6161 16.4323 27.2776 16.4845 26.9141 16.4453C26.9641 15.3538 27.511 14.6507 28.5547 14.3359Z" fill="#D59DDE"/>
<path opacity="0.967" fill-rule="evenodd" clip-rule="evenodd" d="M32.8516 15.2734C33.1824 15.3466 33.521 15.3726 33.8672 15.3516C33.8388 15.813 33.7607 16.2557 33.6328 16.6797C33.2943 16.6797 32.9557 16.6797 32.6172 16.6797C32.7388 16.2192 32.817 15.7505 32.8516 15.2734Z" fill="#D19ADF"/>
<path opacity="0.971" fill-rule="evenodd" clip-rule="evenodd" d="M16.2891 16.4453C15.8463 16.4453 15.4037 16.4453 14.9609 16.4453C14.3122 16.1754 13.7913 16.3317 13.3984 16.914C13.0338 16.914 12.6693 16.914 12.3047 16.914C12.7804 15.5692 13.7179 15.0614 15.1172 15.3906C15.6412 15.5995 16.0318 15.9511 16.2891 16.4453Z" fill="#D19AE0"/>
<path opacity="0.978" fill-rule="evenodd" clip-rule="evenodd" d="M25.3516 18.0078C24.987 18.112 24.6224 18.112 24.2578 18.0078C24.1288 17.2775 23.6861 16.939 22.9297 16.9922C22.4609 16.9401 21.9922 16.8881 21.5234 16.836C22.155 16.0461 22.9623 15.7988 23.9453 16.0938C24.8228 16.4288 25.2916 17.0667 25.3516 18.0078Z" fill="#CE96E1"/>
<path opacity="0.948" fill-rule="evenodd" clip-rule="evenodd" d="M7.22656 16.2891C7.3322 16.8678 7.46241 17.4407 7.61719 18.0078C7.29419 18.0848 6.95565 18.1108 6.60156 18.0859C6.41039 17.5555 6.28018 17.0087 6.21094 16.4453C6.57447 16.4845 6.91301 16.4323 7.22656 16.2891Z" fill="#CC93E2"/>
<path opacity="0.975" fill-rule="evenodd" clip-rule="evenodd" d="M8.86719 16.4453C9.2057 16.4453 9.5443 16.4453 9.88281 16.4453C9.98438 16.7419 10.1927 16.9112 10.5078 16.9531C11.1207 17.0173 11.7196 17.0044 12.3047 16.9141C12.6693 16.9141 13.0338 16.9141 13.3984 16.9141C13.281 17.3153 13.307 17.7059 13.4766 18.0859C13.112 18.0859 12.7474 18.0859 12.3828 18.0859C11.6054 17.9442 10.798 17.8791 9.96094 17.8906C9.28203 17.642 8.91742 17.1602 8.86719 16.4453Z" fill="#CB93E2"/>
<path opacity="0.972" fill-rule="evenodd" clip-rule="evenodd" d="M14.9609 16.4453C15.4037 16.4453 15.8463 16.4453 16.2891 16.4453C16.5484 16.9837 16.5744 17.5305 16.3672 18.0859C16.0131 18.1108 15.6745 18.0848 15.3516 18.0078C15.6052 17.389 15.475 16.8682 14.9609 16.4453Z" fill="#CC94E2"/>
<path opacity="0.958" fill-rule="evenodd" clip-rule="evenodd" d="M27.9297 16.2891C27.9286 17.0175 28.2931 17.4342 29.0234 17.5391C29.6786 17.4568 30.0432 17.0923 30.1172 16.4453C30.4557 16.4453 30.7943 16.4453 31.1328 16.4453C30.8469 18.1642 29.8573 18.8023 28.1641 18.3594C27.3667 17.977 26.9501 17.339 26.9141 16.4453C27.2776 16.4845 27.6161 16.4323 27.9297 16.2891Z" fill="#CB93E2"/>
<path opacity="0.933" fill-rule="evenodd" clip-rule="evenodd" d="M32.6172 16.6797C32.9557 16.6797 33.2943 16.6797 33.6328 16.6797C33.5741 17.2268 33.444 17.7477 33.2422 18.2422C32.9396 18.0914 32.6011 18.0393 32.2266 18.0859C32.4052 17.6323 32.5353 17.1635 32.6172 16.6797Z" fill="#CB93E2"/>
<path opacity="0.941" fill-rule="evenodd" clip-rule="evenodd" d="M32.2266 18.086C32.6011 18.0393 32.9396 18.0914 33.2422 18.2422C33.1563 18.605 33.0261 18.9436 32.8516 19.2578C32.487 19.2578 32.1224 19.2578 31.7578 19.2578C31.9355 18.8763 32.0917 18.4857 32.2266 18.086Z" fill="#C58CE4"/>
<path opacity="0.953" fill-rule="evenodd" clip-rule="evenodd" d="M7.61719 18.0078C7.82398 18.4966 8.03234 18.9914 8.24219 19.4922C7.93297 19.6266 7.59441 19.7047 7.22656 19.7266C6.98766 19.1923 6.77933 18.6454 6.60156 18.0859C6.95565 18.1108 7.29419 18.0848 7.61719 18.0078Z" fill="#C58BE4"/>
<path opacity="0.958" fill-rule="evenodd" clip-rule="evenodd" d="M15.3516 18.0078C15.6745 18.0848 16.0131 18.1108 16.3672 18.0859C16.0216 18.9897 15.3575 19.4584 14.375 19.4922C13.3941 19.4605 12.7301 18.9917 12.3828 18.0859C12.7474 18.0859 13.112 18.0859 13.4766 18.0859C14.1237 18.6246 14.7487 18.5986 15.3516 18.0078Z" fill="#C58CE5"/>
<path opacity="0.96" fill-rule="evenodd" clip-rule="evenodd" d="M21.5234 16.8359C21.9922 16.888 22.4609 16.9401 22.9297 16.9922C22.0968 17.3805 21.9015 17.9795 22.3438 18.7891C22.563 19.0315 22.8364 19.1617 23.1641 19.1797C22.5912 19.2318 22.0182 19.2838 21.4453 19.3359C21.2613 19.0848 21.1441 18.7984 21.0938 18.4766C20.8953 18.3691 20.7391 18.4211 20.625 18.6328C20.5356 18.8344 20.4705 19.0427 20.4297 19.2578C20.1172 19.2578 19.8047 19.2578 19.4922 19.2578C19.4522 18.0736 20.0251 17.4226 21.2109 17.3047C21.2782 17.1163 21.3824 16.9601 21.5234 16.8359Z" fill="#C78EE4"/>
<path opacity="0.979" fill-rule="evenodd" clip-rule="evenodd" d="M24.2578 18.0078C24.6224 18.112 24.987 18.112 25.3516 18.0078C25.2541 19.6205 24.3947 20.3627 22.7734 20.2344C22.1956 20.1283 21.753 19.8287 21.4453 19.3359C22.0182 19.2838 22.5912 19.2318 23.1641 19.1797C23.8554 19.0875 24.2199 18.6969 24.2578 18.0078Z" fill="#C389E6"/>
<path opacity="0.955" fill-rule="evenodd" clip-rule="evenodd" d="M8.24219 19.4922C8.54813 19.9736 8.83461 20.4684 9.10156 20.9766C8.71094 20.9766 8.32031 20.9766 7.92969 20.9766C7.65695 20.588 7.42257 20.1712 7.22656 19.7266C7.59441 19.7047 7.93297 19.6266 8.24219 19.4922Z" fill="#BE85E8"/>
<path opacity="0.975" fill-rule="evenodd" clip-rule="evenodd" d="M15.6641 20.9766C15.1286 20.9513 14.6077 20.9773 14.1016 21.0547C13.3239 20.9463 12.8812 21.2848 12.7734 22.0703C12.4598 21.927 12.1213 21.8749 11.7578 21.9141C12.0559 20.3448 12.9934 19.7327 14.5703 20.0781C15.0179 20.2784 15.3824 20.5779 15.6641 20.9766Z" fill="#BC82E8"/>
<path fill-rule="evenodd" clip-rule="evenodd" d="M19.4922 19.2578C19.8047 19.2578 20.1172 19.2578 20.4297 19.2578C20.4297 20.1432 20.4297 21.0287 20.4297 21.9141C20.1172 21.9141 19.8047 21.9141 19.4922 21.9141C19.4922 21.0287 19.4922 20.1432 19.4922 19.2578Z" fill="#BD82E8"/>
<path opacity="0.956" fill-rule="evenodd" clip-rule="evenodd" d="M31.7578 19.2578C32.1224 19.2578 32.487 19.2578 32.8516 19.2578C32.4777 20.2143 31.9828 21.0998 31.3672 21.9141C30.9355 21.9391 30.5187 21.9131 30.1172 21.8359C30.7616 21.0427 31.3084 20.1833 31.7578 19.2578Z" fill="#BD83E8"/>
<path opacity="0.955" fill-rule="evenodd" clip-rule="evenodd" d="M7.92969 20.9766C8.32031 20.9766 8.71094 20.9766 9.10156 20.9766C9.43773 21.3913 9.77633 21.808 10.1172 22.2266C9.72656 22.2787 9.33594 22.3307 8.94531 22.3828C8.54875 21.9595 8.21023 21.4908 7.92969 20.9766Z" fill="#B97DEA"/>
<path opacity="0.948" fill-rule="evenodd" clip-rule="evenodd" d="M14.1016 21.0547C14.6077 20.9773 15.1286 20.9512 15.6641 20.9766C15.7569 21.1501 15.835 21.3324 15.8984 21.5234C16.3389 21.5883 16.7816 21.6273 17.2266 21.6406C17.5945 21.7617 17.8809 21.983 18.0859 22.3047C17.0305 22.3304 15.9887 22.3044 14.9609 22.2266C14.9395 21.6334 14.6531 21.2428 14.1016 21.0547Z" fill="#B87DEA"/>
<path opacity="0.96" fill-rule="evenodd" clip-rule="evenodd" d="M30.1172 21.8359C30.5188 21.9131 30.9355 21.9391 31.3672 21.9141C30.774 22.7158 30.097 23.4449 29.3359 24.1016C27.729 24.0486 26.1145 23.9966 24.4922 23.9453C24.0927 23.2241 23.5198 23.0548 22.7734 23.4375C22.4475 23.7112 22.2912 24.0627 22.3047 24.4922C21.9662 24.4922 21.6276 24.4922 21.2891 24.4922C21.4203 22.8509 22.3057 22.1088 23.9453 22.2656C24.7607 22.469 25.2815 22.9768 25.5078 23.7891C26.366 23.8802 27.2254 23.8931 28.0859 23.8281C28.8045 23.2006 29.4816 22.5366 30.1172 21.8359Z" fill="#B175ED"/>
<path opacity="0.967" fill-rule="evenodd" clip-rule="evenodd" d="M10.1172 22.2266C10.6907 22.8001 11.2897 23.347 11.9141 23.8672C11.4786 24.0198 11.0098 24.0719 10.5078 24.0234C9.93211 23.5259 9.41125 22.9791 8.94531 22.3828C9.33594 22.3307 9.72656 22.2787 10.1172 22.2266Z" fill="#B174ED"/>
<path opacity="0.969" fill-rule="evenodd" clip-rule="evenodd" d="M11.7578 21.9141C12.1213 21.8749 12.4598 21.927 12.7734 22.0703C12.7933 22.7544 13.1449 23.1189 13.8281 23.164C14.4347 23.1165 14.8124 22.804 14.9609 22.2265C15.9887 22.3044 17.0305 22.3304 18.0859 22.3047C18.1947 22.4432 18.2858 22.5994 18.3594 22.7734C18.3984 23.3458 18.4114 23.9187 18.3984 24.4922C18.0859 24.4922 17.7734 24.4922 17.4609 24.4922C17.4857 23.9915 17.4466 23.4966 17.3437 23.0078C16.9529 22.5682 16.4711 22.438 15.8984 22.6172C15.2273 24.1369 14.1336 24.5404 12.6172 23.8281C11.9583 23.3567 11.6719 22.7187 11.7578 21.9141Z" fill="#B175ED"/>
<path fill-rule="evenodd" clip-rule="evenodd" d="M19.4922 21.9141C19.8047 21.9141 20.1172 21.9141 20.4297 21.9141C20.4297 22.7734 20.4297 23.6328 20.4297 24.4922C20.1172 24.4922 19.8047 24.4922 19.4922 24.4922C19.4922 23.6328 19.4922 22.7734 19.4922 21.9141Z" fill="#B175ED"/>
<path opacity="0.95" fill-rule="evenodd" clip-rule="evenodd" d="M11.9141 23.8672C12.6205 24.3913 13.2194 25.0163 13.7109 25.7422C13.3355 25.8193 12.9449 25.8454 12.5391 25.8203C11.9104 25.1655 11.2333 24.5666 10.5078 24.0234C11.0098 24.0719 11.4786 24.0198 11.9141 23.8672Z" fill="#AB6EF0"/>
<path fill-rule="evenodd" clip-rule="evenodd" d="M17.4609 24.4922C17.7734 24.4922 18.0859 24.4922 18.3984 24.4922C18.3984 24.9349 18.3984 25.3776 18.3984 25.8203C18.0859 25.8203 17.7734 25.8203 17.4609 25.8203C17.4609 25.3776 17.4609 24.9349 17.4609 24.4922Z" fill="#AA6EF0"/>
<path fill-rule="evenodd" clip-rule="evenodd" d="M19.4922 24.4922C19.8047 24.4922 20.1172 24.4922 20.4297 24.4922C20.4297 24.9349 20.4297 25.3776 20.4297 25.8203C20.1172 25.8203 19.8047 25.8203 19.4922 25.8203C19.4922 25.3776 19.4922 24.9349 19.4922 24.4922Z" fill="#AA6EF0"/>
<path opacity="0.964" fill-rule="evenodd" clip-rule="evenodd" d="M24.4922 23.9453C26.1145 23.9966 27.729 24.0486 29.3359 24.1016C28.6441 24.6185 27.993 25.1915 27.3828 25.8203C26.9922 25.8203 26.6016 25.8203 26.2109 25.8203C26.396 25.4649 26.6304 25.1395 26.9141 24.8437C26.4453 24.7916 25.9766 24.7916 25.5078 24.8437C25.0123 26.1593 24.0748 26.6541 22.6953 26.3281C21.8842 25.9734 21.4155 25.3614 21.2891 24.4922C21.6276 24.4922 21.9662 24.4922 22.3047 24.4922C22.8131 25.5687 23.5032 25.6989 24.375 24.8828C24.4808 24.581 24.5198 24.2685 24.4922 23.9453Z" fill="#AB6EF0"/>
<path opacity="0.955" fill-rule="evenodd" clip-rule="evenodd" d="M13.7109 25.7422C14.0266 26.1652 14.2609 26.6339 14.4141 27.1484C14.06 27.1236 13.7214 27.1496 13.3984 27.2266C13.1523 26.7345 12.8659 26.2658 12.5391 25.8203C12.9449 25.8454 13.3355 25.8193 13.7109 25.7422Z" fill="#A768F2"/>
<path fill-rule="evenodd" clip-rule="evenodd" d="M17.4609 25.8203C17.7734 25.8203 18.0859 25.8203 18.3984 25.8203C18.3984 26.263 18.3984 26.7057 18.3984 27.1484C18.0859 27.1484 17.7734 27.1484 17.4609 27.1484C17.4609 26.7057 17.4609 26.263 17.4609 25.8203Z" fill="#A669F2"/>
<path fill-rule="evenodd" clip-rule="evenodd" d="M19.4922 25.8203C19.8047 25.8203 20.1172 25.8203 20.4297 25.8203C20.4297 26.263 20.4297 26.7057 20.4297 27.1484C20.1172 27.1484 19.8047 27.1484 19.4922 27.1484C19.4922 26.7057 19.4922 26.263 19.4922 25.8203Z" fill="#A669F2"/>
<path opacity="0.955" fill-rule="evenodd" clip-rule="evenodd" d="M26.2109 25.8203C26.6016 25.8203 26.9922 25.8203 27.3828 25.8203C27.056 26.2658 26.7695 26.7345 26.5234 27.2266C26.19 27.1977 25.8775 27.1196 25.5859 26.9922C25.7295 26.5635 25.9377 26.1729 26.2109 25.8203Z" fill="#A669F2"/>
<path opacity="0.994" fill-rule="evenodd" clip-rule="evenodd" d="M25.5857 26.9922C25.8773 27.1196 26.1898 27.1977 26.5232 27.2266C26.3289 27.7314 26.1987 28.2522 26.1326 28.7891C26.4066 28.7495 26.654 28.8016 26.8748 28.9453C26.9269 31.4453 26.9269 33.9453 26.8748 36.4453C26.8357 36.4844 26.7967 36.5234 26.7576 36.5625C26.341 36.5885 25.9242 36.6146 25.5076 36.6406C25.2139 37.8976 24.4587 38.7309 23.242 39.1406C21.0545 39.1927 18.867 39.1927 16.6795 39.1406C15.4627 38.7309 14.7075 37.8976 14.4138 36.6406C13.9972 36.6146 13.5805 36.5885 13.1638 36.5625C13.1248 36.5234 13.0857 36.4844 13.0467 36.4453C12.9945 33.9453 12.9945 31.4453 13.0467 28.9453C13.2674 28.8016 13.5149 28.7495 13.7888 28.7891C13.7227 28.2522 13.5925 27.7314 13.3982 27.2266C13.7212 27.1496 14.0598 27.1236 14.4138 27.1484C14.6234 27.6603 14.7797 28.1941 14.8826 28.75C15.7416 28.7891 16.601 28.8021 17.4607 28.7891C17.4607 28.2422 17.4607 27.6953 17.4607 27.1484C17.7732 27.1484 18.0857 27.1484 18.3982 27.1484C18.3982 27.6953 18.3982 28.2422 18.3982 28.7891C18.7628 28.7891 19.1274 28.7891 19.492 28.7891C19.492 28.2422 19.492 27.6953 19.492 27.1484C19.8045 27.1484 20.117 27.1484 20.4295 27.1484C20.4295 27.6953 20.4295 28.2422 20.4295 28.7891C21.9661 28.8021 23.5026 28.7891 25.0388 28.75C25.1438 28.1332 25.3261 27.5473 25.5857 26.9922ZM13.9451 29.7266C17.9555 29.7266 21.966 29.7266 25.9763 29.7266C25.9763 30.2213 25.9763 30.7162 25.9763 31.2109C21.966 31.2109 17.9555 31.2109 13.9451 31.2109C13.9451 30.7162 13.9451 30.2213 13.9451 29.7266ZM13.9451 32.1484C17.9555 32.1484 21.966 32.1484 25.9763 32.1484C25.9763 33.3203 25.9763 34.4922 25.9763 35.6641C21.966 35.6641 17.9555 35.6641 13.9451 35.6641C13.9451 34.4922 13.9451 33.3203 13.9451 32.1484ZM15.5076 36.6797C18.4631 36.5887 21.4319 36.5757 24.4138 36.6406C24.1285 37.5651 23.5035 38.0859 22.5388 38.2031C20.8201 38.2552 19.1013 38.2552 17.3826 38.2031C16.4288 38.0803 15.8038 37.5725 15.5076 36.6797Z" fill="#A163F4"/>
<path opacity="0.963" fill-rule="evenodd" clip-rule="evenodd" d="M14.8047 33.1641C15.1228 33.1433 15.4353 33.1693 15.7422 33.2422C16.055 33.8147 15.8857 34.1012 15.2344 34.1016C14.8336 34.1822 14.6122 34.0259 14.5704 33.6328C14.5678 33.4295 14.6459 33.2733 14.8047 33.1641Z" fill="#A063F5"/>
<path opacity="0.99" fill-rule="evenodd" clip-rule="evenodd" d="M16.8361 33.1641C18.5551 33.151 20.2738 33.1641 21.9923 33.2031C22.3048 33.4896 22.3048 33.776 21.9923 34.0625C20.2736 34.1146 18.5548 34.1146 16.8361 34.0625C16.5299 33.7635 16.5299 33.464 16.8361 33.1641Z" fill="#A163F5"/>
</svg>
