<svg width="40" height="40" viewBox="0 0 40 40" fill="none" xmlns="http://www.w3.org/2000/svg">
<g clip-path="url(#clip0_413_5299)">
<path opacity="0.925" fill-rule="evenodd" clip-rule="evenodd" d="M7.53917 4.17969C5.76834 4.17969 3.99751 4.17969 2.22667 4.17969C1.96727 3.71879 2.04539 3.31515 2.46105 2.96875C2.62359 2.90088 2.79287 2.86182 2.96886 2.85156C4.51655 3.24141 6.03998 3.68412 7.53917 4.17969Z" fill="#00E8D3"/>
<path opacity="0.95" fill-rule="evenodd" clip-rule="evenodd" d="M2.22656 4.17969C3.9974 4.17969 5.76823 4.17969 7.53906 4.17969C8.83984 4.48509 10.1159 4.84967 11.3672 5.27344C9.36195 5.27344 7.35677 5.27344 5.35156 5.27344C4.4608 5.05037 3.57537 4.80298 2.69531 4.53125C2.49169 4.46939 2.33544 4.3522 2.22656 4.17969Z" fill="#00E6D4"/>
<path opacity="0.751" fill-rule="evenodd" clip-rule="evenodd" d="M21.2891 5.27343C20.4037 5.27343 19.5182 5.27343 18.6328 5.27343C19.5182 4.85677 20.4037 4.85677 21.2891 5.27343Z" fill="#00E6D3"/>
<path opacity="0.957" fill-rule="evenodd" clip-rule="evenodd" d="M5.35156 5.27344C7.35677 5.27344 9.36195 5.27344 11.3672 5.27344C13.1452 5.73579 14.916 6.23058 16.6797 6.75781C17.0498 6.42705 17.4144 6.07549 17.7734 5.70312C18.0398 5.51784 18.3263 5.37462 18.6328 5.27344C19.5182 5.27344 20.4037 5.27344 21.2891 5.27344C22.6241 5.80341 23.3794 6.79299 23.5547 8.24219C22.9818 8.24219 22.4088 8.24219 21.8359 8.24219C21.4366 7.01379 20.6033 6.53202 19.3359 6.79688C18.6791 7.07578 18.2624 7.55755 18.0859 8.24219C17.3047 8.24219 16.5234 8.24219 15.7422 8.24219C13.1555 7.53154 10.5774 6.81539 8.00781 6.09375C8.3575 6.80602 8.69602 7.52216 9.02344 8.24219C8.39844 8.24219 7.77344 8.24219 7.14844 8.24219C6.9495 7.76605 6.72815 7.2973 6.48438 6.83594C6.2806 7.32124 6.05924 7.78999 5.82031 8.24219C5.19531 8.24219 4.57031 8.24219 3.94531 8.24219C4.41406 7.2526 4.88281 6.26302 5.35156 5.27344Z" fill="#00E3D5"/>
<path opacity="0.944" fill-rule="evenodd" clip-rule="evenodd" d="M3.94531 8.24219C4.57031 8.24219 5.19531 8.24219 5.82031 8.24219C5.27325 9.44047 4.72638 10.6384 4.17969 11.8359C3.55469 11.8359 2.92969 11.8359 2.30469 11.8359C2.85175 10.6377 3.39863 9.43977 3.94531 8.24219Z" fill="#00DDD7"/>
<path opacity="0.944" fill-rule="evenodd" clip-rule="evenodd" d="M7.14844 8.24219C7.77344 8.24219 8.39844 8.24219 9.02344 8.24219C9.61289 9.42109 10.1598 10.6191 10.6641 11.8359C10.0651 11.8359 9.46617 11.8359 8.86719 11.8359C8.28039 10.6505 7.70745 9.45258 7.14844 8.24219Z" fill="#00DDD7"/>
<path opacity="0.953" fill-rule="evenodd" clip-rule="evenodd" d="M15.7422 8.24219C16.5234 8.24219 17.3047 8.24219 18.0859 8.24219C18.027 9.56344 18.652 10.3186 19.9609 10.5078C21.2716 10.3172 21.8966 9.56195 21.8359 8.24219C22.4088 8.24219 22.9818 8.24219 23.5547 8.24219C23.5347 8.42125 23.5607 8.59055 23.6328 8.75C27.1907 9.75633 30.7324 10.7849 34.2578 11.8359C32.2787 11.8359 30.2995 11.8359 28.3203 11.8359C26.6096 11.3916 24.9038 10.9229 23.2031 10.4297C22.8587 10.7741 22.5072 11.1256 22.1484 11.4844C21.9341 11.6436 21.6998 11.7608 21.4453 11.8359C20.4557 11.8359 19.4662 11.8359 18.4766 11.8359C17.0935 11.1553 16.3773 10.0355 16.3281 8.47656C16.1276 8.39164 15.9323 8.31352 15.7422 8.24219Z" fill="#00DCD7"/>
<path opacity="0.944" fill-rule="evenodd" clip-rule="evenodd" d="M2.30469 11.8359C2.92969 11.8359 3.55469 11.8359 4.17969 11.8359C3.73698 12.7734 3.29427 13.7109 2.85156 14.6484C2.22656 14.6484 1.60156 14.6484 0.976562 14.6484C1.42046 13.7052 1.86317 12.7677 2.30469 11.8359Z" fill="#00D8D9"/>
<path opacity="0.945" fill-rule="evenodd" clip-rule="evenodd" d="M8.86719 11.8359C9.46617 11.8359 10.0651 11.8359 10.6641 11.8359C11.1466 12.7491 11.5893 13.6866 11.9922 14.6484C11.3932 14.6484 10.7943 14.6484 10.1953 14.6484C9.71281 13.7352 9.27008 12.7977 8.86719 11.8359Z" fill="#00D8D9"/>
<path opacity="0.943" fill-rule="evenodd" clip-rule="evenodd" d="M18.4766 11.8359C19.4662 11.8359 20.4557 11.8359 21.4453 11.8359C21.2662 11.974 21.058 12.0521 20.8203 12.0703C20.8203 12.9297 20.8203 13.7891 20.8203 14.6484C20.2474 14.6484 19.6745 14.6484 19.1016 14.6484C19.1016 13.7891 19.1016 12.9297 19.1016 12.0703C18.8639 12.0521 18.6556 11.974 18.4766 11.8359Z" fill="#00D8D9"/>
<path opacity="0.957" fill-rule="evenodd" clip-rule="evenodd" d="M28.3203 11.8359C30.2995 11.8359 32.2787 11.8359 34.2578 11.8359C35.2528 12.0847 36.2424 12.3581 37.2266 12.6562C37.8554 12.9543 37.9986 13.41 37.6562 14.0234C37.4115 14.2873 37.112 14.3784 36.7578 14.2969C36.1346 14.1059 35.5096 13.9497 34.8828 13.8281C35.0452 14.0878 35.1755 14.3612 35.2734 14.6484C34.6484 14.6484 34.0234 14.6484 33.3984 14.6484C33.3724 14.6484 33.3463 14.6484 33.3203 14.6484C32.7213 14.6484 32.1224 14.6484 31.5234 14.6484C31.7248 14.1022 31.9592 13.5684 32.2266 13.0469C30.9161 12.6416 29.6141 12.238 28.3203 11.8359Z" fill="#00D8D9"/>
<path opacity="0.949" fill-rule="evenodd" clip-rule="evenodd" d="M0.976562 14.6484C1.60156 14.6484 2.22656 14.6484 2.85156 14.6484C2.7474 14.8568 2.64323 15.0651 2.53906 15.2734C1.91406 15.2734 1.28906 15.2734 0.664062 15.2734C0.768229 15.0651 0.872398 14.8568 0.976562 14.6484Z" fill="#00D5DB"/>
<path opacity="0.94" fill-rule="evenodd" clip-rule="evenodd" d="M10.1953 14.6484C10.7943 14.6484 11.3932 14.6484 11.9922 14.6484C12.1362 14.8323 12.2404 15.0406 12.3047 15.2734C11.6797 15.2734 11.0547 15.2734 10.4297 15.2734C10.3078 15.0817 10.2297 14.8734 10.1953 14.6484Z" fill="#00D5DB"/>
<path opacity="0.949" fill-rule="evenodd" clip-rule="evenodd" d="M19.1016 14.6484C19.6745 14.6484 20.2474 14.6484 20.8203 14.6484C20.8203 14.8568 20.8203 15.0651 20.8203 15.2734C20.2474 15.2734 19.6745 15.2734 19.1016 15.2734C19.1016 15.0651 19.1016 14.8568 19.1016 14.6484Z" fill="#00D5DB"/>
<path opacity="0.95" fill-rule="evenodd" clip-rule="evenodd" d="M31.5234 14.6484C32.1224 14.6484 32.7213 14.6484 33.3203 14.6484C33.2558 14.8816 33.1516 15.0899 33.0078 15.2734C32.4088 15.2734 31.8099 15.2734 31.2109 15.2734C31.2755 15.0402 31.3796 14.832 31.5234 14.6484Z" fill="#00D5DB"/>
<path opacity="0.94" fill-rule="evenodd" clip-rule="evenodd" d="M33.3984 14.6484C34.0234 14.6484 34.6484 14.6484 35.2734 14.6484C35.3915 14.8441 35.4957 15.0525 35.5859 15.2734C34.9609 15.2734 34.3359 15.2734 33.7109 15.2734C33.6068 15.0651 33.5026 14.8568 33.3984 14.6484Z" fill="#00D5DB"/>
<path opacity="0.957" fill-rule="evenodd" clip-rule="evenodd" d="M0.664062 15.2734C1.28906 15.2734 1.91406 15.2734 2.53906 15.2734C2.53598 15.358 2.50994 15.4362 2.46094 15.5078C5.1689 15.599 7.87727 15.612 10.5859 15.5469C10.523 15.4599 10.4709 15.3688 10.4297 15.2734C11.0547 15.2734 11.6797 15.2734 12.3047 15.2734C12.3782 15.5766 12.5605 15.7849 12.8516 15.8984C12.9362 15.9895 13.0013 16.0936 13.0469 16.2109C13.1471 17.1456 13.0039 18.031 12.6172 18.8672C11.9922 18.8672 11.3672 18.8672 10.7422 18.8672C11.0486 18.3907 11.2309 17.8698 11.2891 17.3047C8.08586 17.2916 4.8827 17.3047 1.67969 17.3438C1.82864 17.8631 2.01093 18.3709 2.22656 18.8672C1.60156 18.8672 0.976562 18.8672 0.351562 18.8672C0.2107 18.42 0.0804914 17.9773 -0.0390625 17.5391C-0.0390625 17.0703 -0.0390625 16.6016 -0.0390625 16.1328C0.0916727 15.9245 0.273964 15.7682 0.507812 15.6641C0.560503 15.5316 0.612586 15.4014 0.664062 15.2734Z" fill="#00D2DB"/>
<path opacity="0.949" fill-rule="evenodd" clip-rule="evenodd" d="M19.1016 15.2734C19.6745 15.2734 20.2474 15.2734 20.8203 15.2734C20.8203 16.4713 20.8203 17.6693 20.8203 18.8672C20.2474 18.8672 19.6745 18.8672 19.1016 18.8672C19.1016 17.6693 19.1016 16.4713 19.1016 15.2734Z" fill="#00D1DC"/>
<path opacity="0.945" fill-rule="evenodd" clip-rule="evenodd" d="M31.2109 15.2734C31.8099 15.2734 32.4088 15.2734 33.0078 15.2734C32.504 16.4895 31.9571 17.6874 31.3672 18.8672C30.7422 18.8672 30.1172 18.8672 29.4922 18.8672C30.0677 17.6642 30.6406 16.4663 31.2109 15.2734Z" fill="#00D1DC"/>
<path opacity="0.945" fill-rule="evenodd" clip-rule="evenodd" d="M33.7109 15.2734C34.3359 15.2734 34.9609 15.2734 35.5859 15.2734C36.1754 16.4523 36.7223 17.6503 37.2266 18.8672C36.6276 18.8672 36.0287 18.8672 35.4297 18.8672C34.8168 17.6934 34.2439 16.4954 33.7109 15.2734Z" fill="#00D1DC"/>
<path opacity="0.949" fill-rule="evenodd" clip-rule="evenodd" d="M0.351562 18.8672C0.976562 18.8672 1.60156 18.8672 2.22656 18.8672C3.61569 20.9802 5.54277 21.7224 8.00781 21.0938C9.1893 20.6802 10.1008 19.938 10.7422 18.8672C11.3672 18.8672 11.9922 18.8672 12.6172 18.8672C11.8696 20.7475 10.5415 22.0366 8.63281 22.7344C8.32773 22.8405 8.01523 22.9056 7.69531 22.9297C6.91406 22.9297 6.13281 22.9297 5.35156 22.9297C2.95963 22.4645 1.29297 21.1104 0.351562 18.8672Z" fill="#00CADE"/>
<path opacity="0.949" fill-rule="evenodd" clip-rule="evenodd" d="M19.1016 18.8672C19.6745 18.8672 20.2474 18.8672 20.8203 18.8672C20.8203 20.2213 20.8203 21.5755 20.8203 22.9297C20.2474 22.9297 19.6745 22.9297 19.1016 22.9297C19.1016 21.5755 19.1016 20.2213 19.1016 18.8672Z" fill="#00CADE"/>
<path opacity="0.944" fill-rule="evenodd" clip-rule="evenodd" d="M29.4922 18.8672C30.1172 18.8672 30.7422 18.8672 31.3672 18.8672C30.742 20.2217 30.117 21.5759 29.4922 22.9297C28.8672 22.9297 28.2422 22.9297 27.6172 22.9297C28.2422 21.5755 28.8672 20.2213 29.4922 18.8672Z" fill="#00CADE"/>
<path opacity="0.945" fill-rule="evenodd" clip-rule="evenodd" d="M35.4297 18.8672C36.0287 18.8672 36.6276 18.8672 37.2266 18.8672C37.8765 20.2156 38.5275 21.5698 39.1797 22.9297C38.5547 22.9297 37.9297 22.9297 37.3047 22.9297C36.6398 21.5996 36.0148 20.2455 35.4297 18.8672Z" fill="#00CADE"/>
<path opacity="0.595" fill-rule="evenodd" clip-rule="evenodd" d="M5.35156 22.9297C6.13281 22.9297 6.91406 22.9297 7.69531 22.9297C6.91341 23.1316 6.13216 23.1316 5.35156 22.9297Z" fill="#00C7E0"/>
<path opacity="0.949" fill-rule="evenodd" clip-rule="evenodd" d="M19.1016 22.9297C19.6745 22.9297 20.2474 22.9297 20.8203 22.9297C20.8203 23.3203 20.8203 23.7109 20.8203 24.1016C20.2474 24.1016 19.6745 24.1016 19.1016 24.1016C19.1016 23.7109 19.1016 23.3203 19.1016 22.9297Z" fill="#00C6E0"/>
<path opacity="0.982" fill-rule="evenodd" clip-rule="evenodd" d="M27.6172 22.9297C28.2422 22.9297 28.8672 22.9297 29.4922 22.9297C29.4249 23.077 29.3468 23.2203 29.2578 23.3594C31.9926 23.4245 34.727 23.4115 37.4609 23.3203C37.3862 23.1973 37.3341 23.067 37.3047 22.9297C37.9297 22.9297 38.5547 22.9297 39.1797 22.9297C39.2366 23.0869 39.3017 23.2431 39.375 23.3984C39.6289 23.4914 39.8242 23.6477 39.9609 23.8672C39.9609 23.9453 39.9609 24.0234 39.9609 24.1016C35.5859 24.1016 31.2109 24.1016 26.8359 24.1016C27.0973 23.7109 27.3577 23.3202 27.6172 22.9297Z" fill="#00C6E0"/>
<path opacity="0.949" fill-rule="evenodd" clip-rule="evenodd" d="M19.1016 24.1016C19.6745 24.1016 20.2474 24.1016 20.8203 24.1016C20.8203 24.8828 20.8203 25.6641 20.8203 26.4453C20.2474 26.4453 19.6745 26.4453 19.1016 26.4453C19.1016 25.6641 19.1016 24.8828 19.1016 24.1016Z" fill="#00C3E1"/>
<path opacity="0.976" fill-rule="evenodd" clip-rule="evenodd" d="M26.836 24.1016C31.211 24.1016 35.586 24.1016 39.961 24.1016C39.961 24.4662 39.961 24.8307 39.961 25.1953C39.8794 25.6256 39.7492 26.0423 39.5704 26.4453C38.9454 26.4453 38.3204 26.4453 37.6954 26.4453C37.9312 26.0114 38.1135 25.5557 38.2423 25.0781C35.0392 25.0391 31.8361 25.026 28.6329 25.0391C28.6999 25.5264 28.8301 25.9952 29.0235 26.4453C28.4245 26.4453 27.8256 26.4453 27.2266 26.4453C26.9291 25.7018 26.7989 24.9205 26.836 24.1016Z" fill="#00C4E1"/>
<path opacity="0.952" fill-rule="evenodd" clip-rule="evenodd" d="M19.1016 26.4453C19.6745 26.4453 20.2474 26.4453 20.8203 26.4453C20.8203 27.0182 20.8203 27.5912 20.8203 28.1641C21.6801 28.151 22.5395 28.1641 23.3984 28.2031C24.5835 28.3259 25.4429 28.9118 25.9766 29.9609C25.1953 29.9609 24.4141 29.9609 23.6328 29.9609C21.1849 29.8568 18.737 29.8568 16.2891 29.9609C15.5078 29.9609 14.7266 29.9609 13.9453 29.9609C14.479 28.9118 15.3384 28.3259 16.5234 28.2031C17.3824 28.1641 18.2418 28.151 19.1016 28.1641C19.1016 27.5912 19.1016 27.0182 19.1016 26.4453Z" fill="#00BDE3"/>
<path opacity="0.954" fill-rule="evenodd" clip-rule="evenodd" d="M27.2266 26.4453C27.8255 26.4453 28.4245 26.4453 29.0234 26.4453C30.7187 29.0114 32.9843 29.6755 35.8203 28.4375C36.6502 27.9594 37.2752 27.2953 37.6953 26.4453C38.3203 26.4453 38.9453 26.4453 39.5703 26.4453C39.0363 27.9955 38.0467 29.1673 36.6016 29.9609C34.4662 29.9609 32.3307 29.9609 30.1953 29.9609C28.7575 29.1736 27.7679 28.0017 27.2266 26.4453Z" fill="#00BEE3"/>
<path opacity="0.969" fill-rule="evenodd" clip-rule="evenodd" d="M13.9453 29.9609C14.7266 29.9609 15.5078 29.9609 16.2891 29.9609C15.5439 30.357 15.2054 30.982 15.2734 31.8359C18.3984 31.8359 21.5234 31.8359 24.6484 31.8359C24.7165 30.982 24.378 30.357 23.6328 29.9609C24.4141 29.9609 25.1953 29.9609 25.9766 29.9609C26.2654 30.5729 26.3956 31.2239 26.3672 31.9141C27.3157 32.1138 28.0188 32.6347 28.4766 33.4766C22.7995 33.4766 17.1224 33.4766 11.4453 33.4766C11.903 32.6347 12.6062 32.1138 13.5547 31.9141C13.5334 31.2287 13.6635 30.5776 13.9453 29.9609Z" fill="#00B7E5"/>
<path opacity="0.919" fill-rule="evenodd" clip-rule="evenodd" d="M30.1953 29.9609C32.3307 29.9609 34.4662 29.9609 36.6016 29.9609C34.7379 30.9572 32.8109 31.0744 30.8203 30.3125C30.5945 30.213 30.3861 30.0958 30.1953 29.9609Z" fill="#00BAE4"/>
<path opacity="0.866" fill-rule="evenodd" clip-rule="evenodd" d="M11.4454 33.4766C17.1225 33.4766 22.7995 33.4766 28.4766 33.4766C28.8136 33.9641 28.9698 34.5109 28.9454 35.1172C28.3725 35.1172 27.7995 35.1172 27.2266 35.1172C27.1893 34.3015 26.7727 33.7937 25.9766 33.5938C21.9662 33.5416 17.9557 33.5416 13.9454 33.5938C13.1493 33.7937 12.7326 34.3015 12.6954 35.1172C12.1225 35.1172 11.5495 35.1172 10.9766 35.1172C10.9521 34.5109 11.1084 33.9641 11.4454 33.4766Z" fill="#00B4E6"/>
<path opacity="0.95" fill-rule="evenodd" clip-rule="evenodd" d="M10.9765 35.1172C11.5494 35.1172 12.1224 35.1172 12.6953 35.1172C12.6953 35.2213 12.6953 35.3255 12.6953 35.4297C17.539 35.4297 22.3828 35.4297 27.2265 35.4297C27.2265 35.3255 27.2265 35.2213 27.2265 35.1172C27.7994 35.1172 28.3724 35.1172 28.9453 35.1172C28.9583 35.5866 28.9452 36.0554 28.9062 36.5234C28.7712 36.8582 28.5238 37.0535 28.164 37.1094C22.6953 37.1615 17.2265 37.1615 11.7578 37.1094C11.398 37.0535 11.1507 36.8582 11.0156 36.5234C10.9766 36.0554 10.9636 35.5866 10.9765 35.1172Z" fill="#00B0E8"/>
</g>
<defs>
<clipPath id="clip0_413_5299">
<rect width="40" height="40" fill="white"/>
</clipPath>
</defs>
</svg>
