<svg width="40" height="40" viewBox="0 0 40 40" fill="none" xmlns="http://www.w3.org/2000/svg">
<g clip-path="url(#clip0_413_5377)">
<path opacity="0.817" fill-rule="evenodd" clip-rule="evenodd" d="M23.4766 6.05471C21.1328 6.05471 18.7891 6.05471 16.4453 6.05471C18.7891 5.63805 21.1328 5.63805 23.4766 6.05471Z" fill="#0BB0D3"/>
<path opacity="0.951" fill-rule="evenodd" clip-rule="evenodd" d="M16.4453 6.05469C18.7891 6.05469 21.1328 6.05469 23.4766 6.05469C23.8862 6.08454 24.2769 6.16266 24.6484 6.28906C21.5234 6.28906 18.3984 6.28906 15.2734 6.28906C15.645 6.16266 16.0356 6.08454 16.4453 6.05469Z" fill="#0DAFD4"/>
<path opacity="0.971" fill-rule="evenodd" clip-rule="evenodd" d="M15.2734 6.28906C18.3984 6.28906 21.5234 6.28906 24.6484 6.28906C25.2491 6.37395 25.822 6.5302 26.3672 6.75781C22.0963 6.75781 17.8255 6.75781 13.5547 6.75781C14.0998 6.5302 14.6727 6.37395 15.2734 6.28906Z" fill="#0EADD4"/>
<path opacity="0.95" fill-rule="evenodd" clip-rule="evenodd" d="M13.5547 6.75781C17.8255 6.75781 22.0963 6.75781 26.3672 6.75781C26.8384 6.85401 27.2812 7.01026 27.6953 7.22656C25.9505 7.22656 24.2057 7.22656 22.4609 7.22656C21.6273 7.18366 20.7941 7.13157 19.9609 7.07031C19.1278 7.13157 18.2945 7.18366 17.4609 7.22656C15.7162 7.22656 13.9713 7.22656 12.2266 7.22656C12.6407 7.01026 13.0834 6.85401 13.5547 6.75781Z" fill="#11ABD5"/>
<path opacity="0.931" fill-rule="evenodd" clip-rule="evenodd" d="M12.2266 7.22656C13.9713 7.22656 15.7162 7.22656 17.4609 7.22656C16.7693 7.36475 16.0662 7.49496 15.3516 7.61719C13.9974 7.61719 12.6432 7.61719 11.2891 7.61719C11.5712 7.42728 11.8837 7.29707 12.2266 7.22656Z" fill="#13A9D5"/>
<path opacity="0.931" fill-rule="evenodd" clip-rule="evenodd" d="M22.4609 7.22656C24.2057 7.22656 25.9505 7.22656 27.6953 7.22656C28.0382 7.29707 28.3507 7.42728 28.6328 7.61719C27.2787 7.61719 25.9245 7.61719 24.5703 7.61719C23.8557 7.49496 23.1526 7.36475 22.4609 7.22656Z" fill="#13A9D5"/>
<path opacity="0.935" fill-rule="evenodd" clip-rule="evenodd" d="M11.2891 7.61719C12.6432 7.61719 13.9974 7.61719 15.3516 7.61719C14.5251 7.87633 13.6917 8.13672 12.8516 8.39844C11.7838 8.39844 10.7162 8.39844 9.64844 8.39844C10.1623 8.07648 10.7091 7.81609 11.2891 7.61719Z" fill="#16A6D6"/>
<path opacity="0.935" fill-rule="evenodd" clip-rule="evenodd" d="M24.5703 7.61719C25.9245 7.61719 27.2787 7.61719 28.6328 7.61719C29.2127 7.81609 29.7596 8.07648 30.2734 8.39844C29.2057 8.39844 28.138 8.39844 27.0703 8.39844C26.2302 8.13672 25.3968 7.87633 24.5703 7.61719Z" fill="#16A6D6"/>
<path opacity="0.935" fill-rule="evenodd" clip-rule="evenodd" d="M9.64844 8.39844C10.7162 8.39844 11.7838 8.39844 12.8516 8.39844C12.4538 8.60969 12.0372 8.79195 11.6016 8.94531C10.638 8.94531 9.67445 8.94531 8.71094 8.94531C8.99719 8.72383 9.30969 8.54156 9.64844 8.39844Z" fill="#19A3D7"/>
<path opacity="0.935" fill-rule="evenodd" clip-rule="evenodd" d="M27.0703 8.39844C28.138 8.39844 29.2057 8.39844 30.2734 8.39844C30.6122 8.54156 30.9247 8.72383 31.2109 8.94531C30.2474 8.94531 29.2838 8.94531 28.3203 8.94531C27.8847 8.79195 27.468 8.60969 27.0703 8.39844Z" fill="#19A3D7"/>
<path opacity="0.933" fill-rule="evenodd" clip-rule="evenodd" d="M8.71094 8.94531C9.67445 8.94531 10.638 8.94531 11.6016 8.94531C11.0838 9.20422 10.5629 9.46461 10.0391 9.72656C9.17969 9.72656 8.32031 9.72656 7.46094 9.72656C7.82438 9.3882 8.24109 9.12773 8.71094 8.94531Z" fill="#1DA0D8"/>
<path opacity="0.933" fill-rule="evenodd" clip-rule="evenodd" d="M28.3203 8.94531C29.2838 8.94531 30.2474 8.94531 31.2109 8.94531C31.6808 9.12773 32.0975 9.3882 32.4609 9.72656C31.6016 9.72656 30.7422 9.72656 29.8828 9.72656C29.359 9.46461 28.8381 9.20422 28.3203 8.94531Z" fill="#1DA0D8"/>
<path opacity="0.582" fill-rule="evenodd" clip-rule="evenodd" d="M21.9141 9.72656C20.4818 9.72656 19.0495 9.72656 17.6172 9.72656C19.0495 9.5211 20.4819 9.5211 21.9141 9.72656Z" fill="#1F9FD9"/>
<path opacity="0.937" fill-rule="evenodd" clip-rule="evenodd" d="M7.46094 9.72656C8.32031 9.72656 9.17969 9.72656 10.0391 9.72656C9.75281 9.94805 9.44031 10.1303 9.10156 10.2734C8.2943 10.2734 7.48698 10.2734 6.67969 10.2734C6.90984 10.0537 7.17025 9.87141 7.46094 9.72656Z" fill="#219DD9"/>
<path opacity="0.944" fill-rule="evenodd" clip-rule="evenodd" d="M17.6172 9.72656C19.0495 9.72656 20.4818 9.72656 21.9141 9.72656C23.0396 9.77523 24.1334 9.95758 25.1953 10.2734C21.6016 10.2734 18.0078 10.2734 14.4141 10.2734C15.4507 9.96609 16.5184 9.78375 17.6172 9.72656Z" fill="#219DD9"/>
<path opacity="0.937" fill-rule="evenodd" clip-rule="evenodd" d="M29.8828 9.72656C30.7422 9.72656 31.6016 9.72656 32.4609 9.72656C32.7516 9.87141 33.012 10.0537 33.2422 10.2734C32.4349 10.2734 31.6276 10.2734 30.8203 10.2734C30.4816 10.1303 30.1691 9.94805 29.8828 9.72656Z" fill="#219DD9"/>
<path opacity="0.933" fill-rule="evenodd" clip-rule="evenodd" d="M6.67969 10.2734C7.48698 10.2734 8.2943 10.2734 9.10156 10.2734C8.97516 10.4153 8.81891 10.5195 8.63281 10.5859C7.85156 10.5859 7.07031 10.5859 6.28906 10.5859C6.3738 10.4229 6.504 10.3187 6.67969 10.2734Z" fill="#239BDA"/>
<path opacity="0.973" fill-rule="evenodd" clip-rule="evenodd" d="M14.4141 10.2734C18.0078 10.2734 21.6016 10.2734 25.1953 10.2734C25.5816 10.3307 25.9462 10.4348 26.2891 10.5859C21.9662 10.5859 17.6432 10.5859 13.3203 10.5859C13.6643 10.4369 14.0289 10.3327 14.4141 10.2734Z" fill="#239BDA"/>
<path opacity="0.933" fill-rule="evenodd" clip-rule="evenodd" d="M30.8203 10.2734C31.6276 10.2734 32.4349 10.2734 33.2422 10.2734C33.4179 10.3187 33.548 10.4229 33.6328 10.5859C32.8516 10.5859 32.0703 10.5859 31.2891 10.5859C31.103 10.5195 30.9467 10.4153 30.8203 10.2734Z" fill="#239BDA"/>
<path opacity="0.938" fill-rule="evenodd" clip-rule="evenodd" d="M6.28906 10.5859C7.07031 10.5859 7.85156 10.5859 8.63281 10.5859C8.53164 10.6631 8.4275 10.7413 8.32031 10.8203C7.53906 10.8203 6.75781 10.8203 5.97656 10.8203C6.03612 10.6827 6.14028 10.6045 6.28906 10.5859Z" fill="#249ADB"/>
<path opacity="0.977" fill-rule="evenodd" clip-rule="evenodd" d="M13.3203 10.5859C17.6432 10.5859 21.9662 10.5859 26.2891 10.5859C26.5457 10.6194 26.7801 10.6975 26.9922 10.8203C22.2005 10.8203 17.4088 10.8203 12.6172 10.8203C12.8293 10.6975 13.0637 10.6194 13.3203 10.5859Z" fill="#249ADB"/>
<path opacity="0.938" fill-rule="evenodd" clip-rule="evenodd" d="M31.2891 10.5859C32.0703 10.5859 32.8516 10.5859 33.6328 10.5859C33.7816 10.6045 33.8858 10.6827 33.9453 10.8203C33.1641 10.8203 32.3828 10.8203 31.6016 10.8203C31.4944 10.7413 31.3902 10.6631 31.2891 10.5859Z" fill="#249ADB"/>
<path opacity="0.926" fill-rule="evenodd" clip-rule="evenodd" d="M5.97656 10.8203C6.75781 10.8203 7.53906 10.8203 8.32031 10.8203C7.87945 11.1303 7.43672 11.4428 6.99219 11.7578C6.26302 11.7578 5.53385 11.7578 4.80469 11.7578C5.1498 11.3865 5.54042 11.074 5.97656 10.8203Z" fill="#2797DB"/>
<path opacity="0.951" fill-rule="evenodd" clip-rule="evenodd" d="M12.6172 10.8203C17.4088 10.8203 22.2005 10.8203 26.9922 10.8203C27.763 11.0498 28.4921 11.3623 29.1797 11.7578C27.487 11.7578 25.7943 11.7578 24.1016 11.7578C21.3412 10.7162 18.5807 10.7162 15.8203 11.7578C14.0234 11.7578 12.2266 11.7578 10.4297 11.7578C11.1173 11.3623 11.8464 11.0498 12.6172 10.8203Z" fill="#2797DB"/>
<path opacity="0.926" fill-rule="evenodd" clip-rule="evenodd" d="M31.6016 10.8203C32.3828 10.8203 33.1641 10.8203 33.9453 10.8203C34.3815 11.074 34.7721 11.3865 35.1172 11.7578C34.388 11.7578 33.6588 11.7578 32.9297 11.7578C32.4852 11.4428 32.0424 11.1303 31.6016 10.8203Z" fill="#2797DB"/>
<path opacity="0.946" fill-rule="evenodd" clip-rule="evenodd" d="M4.80469 11.7578C5.53385 11.7578 6.26302 11.7578 6.99219 11.7578C6.89102 11.835 6.78685 11.9131 6.67969 11.9922C5.97656 11.9922 5.27344 11.9922 4.57031 11.9922C4.6224 11.888 4.70052 11.8099 4.80469 11.7578Z" fill="#2A95DC"/>
<path opacity="0.951" fill-rule="evenodd" clip-rule="evenodd" d="M10.4297 11.7578C12.2266 11.7578 14.0234 11.7578 15.8203 11.7578C15.6698 11.8979 15.4876 11.976 15.2734 11.9922C13.5026 11.9922 11.7318 11.9922 9.96094 11.9922C10.0923 11.8744 10.2485 11.7963 10.4297 11.7578Z" fill="#2A95DC"/>
<path opacity="0.951" fill-rule="evenodd" clip-rule="evenodd" d="M24.1016 11.7578C25.7943 11.7578 27.487 11.7578 29.1797 11.7578C29.3495 11.7773 29.4798 11.8555 29.5703 11.9922C27.9297 11.9922 26.2891 11.9922 24.6484 11.9922C24.4343 11.976 24.252 11.8979 24.1016 11.7578Z" fill="#2A95DC"/>
<path opacity="0.946" fill-rule="evenodd" clip-rule="evenodd" d="M32.9297 11.7578C33.6588 11.7578 34.388 11.7578 35.1172 11.7578C35.2213 11.8099 35.2995 11.888 35.3516 11.9922C34.6484 11.9922 33.9453 11.9922 33.2422 11.9922C33.135 11.9131 33.0309 11.835 32.9297 11.7578Z" fill="#2A95DC"/>
<path opacity="0.933" fill-rule="evenodd" clip-rule="evenodd" d="M4.57031 11.9922C5.27344 11.9922 5.97656 11.9922 6.67969 11.9922C6.21287 12.3805 5.74412 12.7711 5.27344 13.1641C4.59635 13.1641 3.91927 13.1641 3.24219 13.1641C3.66126 12.7449 4.10397 12.3543 4.57031 11.9922Z" fill="#2E91DD"/>
<path opacity="0.943" fill-rule="evenodd" clip-rule="evenodd" d="M9.96094 11.9922C11.7318 11.9922 13.5026 11.9922 15.2734 11.9922C14.6502 12.3802 14.0252 12.7708 13.3984 13.1641C12.7213 13.1641 12.0443 13.1641 11.3672 13.1641C11.5073 12.9846 11.6636 12.8154 11.8359 12.6562C11.8099 12.6432 11.7838 12.6302 11.7578 12.6172C11.3749 12.8217 10.9843 13.0041 10.5859 13.1641C9.75258 13.1641 8.9193 13.1641 8.08594 13.1641C8.65773 12.6955 9.28273 12.3048 9.96094 11.9922Z" fill="#2E91DD"/>
<path opacity="0.953" fill-rule="evenodd" clip-rule="evenodd" d="M24.6484 11.9922C26.2891 11.9922 27.9297 11.9922 29.5703 11.9922C30.2832 12.2902 30.9342 12.6809 31.5234 13.1641C30.6901 13.1641 29.8568 13.1641 29.0234 13.1641C28.8337 13.1084 28.6515 13.0303 28.4766 12.9297C28.4505 12.9427 28.4245 12.9557 28.3984 12.9688C28.4673 13.0241 28.5193 13.0892 28.5547 13.1641C27.8776 13.1641 27.2005 13.1641 26.5234 13.1641C25.8967 12.7708 25.2717 12.3802 24.6484 11.9922Z" fill="#2E91DD"/>
<path opacity="0.933" fill-rule="evenodd" clip-rule="evenodd" d="M33.2422 11.9922C33.9453 11.9922 34.6484 11.9922 35.3516 11.9922C35.8179 12.3543 36.2606 12.7449 36.6797 13.1641C36.0026 13.1641 35.3255 13.1641 34.6484 13.1641C34.1777 12.7711 33.709 12.3805 33.2422 11.9922Z" fill="#2E91DD"/>
<path opacity="0.935" fill-rule="evenodd" clip-rule="evenodd" d="M24.1016 13.1641C21.3412 13.1641 18.5807 13.1641 15.8203 13.1641C16.4505 12.8109 17.1275 12.5635 17.8516 12.4219C19.5861 12.062 21.3048 12.1402 23.0078 12.6563C23.4037 12.7744 23.7682 12.9437 24.1016 13.1641Z" fill="#2F90DD"/>
<path opacity="0.935" fill-rule="evenodd" clip-rule="evenodd" d="M3.24219 13.1641C3.91927 13.1641 4.59635 13.1641 5.27344 13.1641C4.83278 13.5785 4.39007 13.9952 3.94531 14.4141C3.32031 14.4141 2.69531 14.4141 2.07031 14.4141C2.46312 13.9953 2.85374 13.5787 3.24219 13.1641Z" fill="#348CDF"/>
<path opacity="0.93" fill-rule="evenodd" clip-rule="evenodd" d="M8.08594 13.1641C8.9193 13.1641 9.75258 13.1641 10.5859 13.1641C9.92445 13.5602 9.27344 13.9768 8.63281 14.4141C7.90367 14.4141 7.17448 14.4141 6.44531 14.4141C6.63295 14.202 6.84129 14.0066 7.07031 13.8281C7.40106 13.5873 7.7396 13.3659 8.08594 13.1641Z" fill="#348CDF"/>
<path opacity="0.93" fill-rule="evenodd" clip-rule="evenodd" d="M11.3672 13.1641C12.0443 13.1641 12.7213 13.1641 13.3984 13.1641C12.9084 13.5495 12.4397 13.9662 11.9922 14.4141C11.4193 14.4141 10.8463 14.4141 10.2734 14.4141C10.5645 13.9382 10.9291 13.5215 11.3672 13.1641Z" fill="#348CDF"/>
<path opacity="0.938" fill-rule="evenodd" clip-rule="evenodd" d="M15.8203 13.1641C18.5807 13.1641 21.3412 13.1641 24.1016 13.1641C24.8552 13.4624 25.5322 13.8791 26.1328 14.4141C25.3255 14.4141 24.5182 14.4141 23.7109 14.4141C22.7448 13.9619 21.7292 13.7014 20.6641 13.6328C20.6641 13.8932 20.6641 14.1537 20.6641 14.4141C20.1953 14.4141 19.7266 14.4141 19.2578 14.4141C19.2578 14.1537 19.2578 13.8932 19.2578 13.6328C18.1927 13.7014 17.177 13.9619 16.2109 14.4141C15.4037 14.4141 14.5963 14.4141 13.7891 14.4141C14.3897 13.8791 15.0667 13.4624 15.8203 13.1641Z" fill="#348CDF"/>
<path opacity="0.927" fill-rule="evenodd" clip-rule="evenodd" d="M26.5234 13.1641C27.2005 13.1641 27.8776 13.1641 28.5547 13.1641C28.9927 13.5215 29.3573 13.9382 29.6484 14.4141C29.0755 14.4141 28.5026 14.4141 27.9297 14.4141C27.4822 13.9662 27.0134 13.5495 26.5234 13.1641Z" fill="#348CDF"/>
<path opacity="0.925" fill-rule="evenodd" clip-rule="evenodd" d="M29.0234 13.1641C29.8568 13.1641 30.6901 13.1641 31.5234 13.1641C32.1152 13.5213 32.662 13.938 33.1641 14.4141C32.4349 14.4141 31.7057 14.4141 30.9766 14.4141C30.3238 13.9948 29.6727 13.578 29.0234 13.1641Z" fill="#348CDF"/>
<path opacity="0.935" fill-rule="evenodd" clip-rule="evenodd" d="M34.6484 13.1641C35.3255 13.1641 36.0026 13.1641 36.6797 13.1641C37.0681 13.5787 37.4588 13.9953 37.8516 14.4141C37.2266 14.4141 36.6016 14.4141 35.9766 14.4141C35.5318 13.9952 35.0891 13.5785 34.6484 13.1641Z" fill="#348CDF"/>
<path opacity="0.932" fill-rule="evenodd" clip-rule="evenodd" d="M2.07031 14.4141C2.69531 14.4141 3.32031 14.4141 3.94531 14.4141C3.58374 14.8799 3.19312 15.3227 2.77344 15.7422C2.17448 15.7422 1.57552 15.7422 0.976562 15.7422C1.28598 15.2532 1.65057 14.8105 2.07031 14.4141Z" fill="#3B86E1"/>
<path opacity="0.932" fill-rule="evenodd" clip-rule="evenodd" d="M6.44531 14.4141C7.17448 14.4141 7.90367 14.4141 8.63281 14.4141C8.0618 14.8544 7.48886 15.297 6.91406 15.7422C6.28906 15.7422 5.66406 15.7422 5.03906 15.7422C5.45855 15.2445 5.9273 14.8018 6.44531 14.4141Z" fill="#3B86E1"/>
<path opacity="0.923" fill-rule="evenodd" clip-rule="evenodd" d="M10.2734 14.4141C10.8463 14.4141 11.4193 14.4141 11.9922 14.4141C11.6252 14.8587 11.2607 15.3014 10.8984 15.7422C10.3776 15.7422 9.8568 15.7422 9.33594 15.7422C9.59023 15.2543 9.90273 14.8116 10.2734 14.4141Z" fill="#3B86E1"/>
<path opacity="0.929" fill-rule="evenodd" clip-rule="evenodd" d="M13.7891 14.4141C14.5963 14.4141 15.4037 14.4141 16.2109 14.4141C15.5444 14.7935 14.9194 15.2363 14.3359 15.7422C13.7109 15.7422 13.0859 15.7422 12.4609 15.7422C12.8255 15.2213 13.2682 14.7787 13.7891 14.4141Z" fill="#3B86E1"/>
<path opacity="0.917" fill-rule="evenodd" clip-rule="evenodd" d="M19.2578 14.4141C19.7266 14.4141 20.1953 14.4141 20.6641 14.4141C20.6641 14.8568 20.6641 15.2995 20.6641 15.7422C20.1953 15.7422 19.7266 15.7422 19.2578 15.7422C19.2578 15.2995 19.2578 14.8568 19.2578 14.4141Z" fill="#3B86E1"/>
<path opacity="0.928" fill-rule="evenodd" clip-rule="evenodd" d="M23.7109 14.4141C24.5182 14.4141 25.3255 14.4141 26.1328 14.4141C26.6537 14.7787 27.0963 15.2213 27.4609 15.7422C26.8359 15.7422 26.2109 15.7422 25.5859 15.7422C25.0025 15.2363 24.3775 14.7935 23.7109 14.4141Z" fill="#3B86E1"/>
<path opacity="0.928" fill-rule="evenodd" clip-rule="evenodd" d="M27.9297 14.4141C28.5026 14.4141 29.0755 14.4141 29.6484 14.4141C30.0176 14.8127 30.3301 15.2554 30.5859 15.7422C30.0651 15.7422 29.5443 15.7422 29.0234 15.7422C28.6612 15.3014 28.2966 14.8587 27.9297 14.4141Z" fill="#3B86E1"/>
<path opacity="0.928" fill-rule="evenodd" clip-rule="evenodd" d="M30.9766 14.4141C31.7057 14.4141 32.4349 14.4141 33.1641 14.4141C33.6821 14.8018 34.1509 15.2445 34.5703 15.7422C33.9453 15.7422 33.3203 15.7422 32.6953 15.7422C32.122 15.2989 31.5491 14.8562 30.9766 14.4141Z" fill="#3B86E1"/>
<path opacity="0.932" fill-rule="evenodd" clip-rule="evenodd" d="M35.9766 14.4141C36.6016 14.4141 37.2266 14.4141 37.8516 14.4141C38.2713 14.8105 38.6359 15.2532 38.9453 15.7422C38.3463 15.7422 37.7474 15.7422 37.1484 15.7422C36.7287 15.3227 36.3381 14.8799 35.9766 14.4141Z" fill="#3B86E1"/>
<path opacity="0.926" fill-rule="evenodd" clip-rule="evenodd" d="M0.976562 15.7422C1.57552 15.7422 2.17448 15.7422 2.77344 15.7422C2.46015 16.1099 2.14765 16.4745 1.83594 16.8359C1.28906 16.8359 0.742188 16.8359 0.195312 16.8359C0.4176 16.4432 0.678016 16.0786 0.976562 15.7422Z" fill="#4180E3"/>
<path opacity="0.929" fill-rule="evenodd" clip-rule="evenodd" d="M5.03906 15.7422C5.66406 15.7422 6.28906 15.7422 6.91406 15.7422C6.57552 16.1328 6.21094 16.4974 5.82031 16.8359C5.22135 16.8359 4.6224 16.8359 4.02344 16.8359C4.30677 16.4223 4.64531 16.0577 5.03906 15.7422Z" fill="#4180E3"/>
<path opacity="0.931" fill-rule="evenodd" clip-rule="evenodd" d="M9.33594 15.7422C9.8568 15.7422 10.3776 15.7422 10.8984 15.7422C10.7207 16.1273 10.5124 16.4919 10.2734 16.8359C9.77867 16.8359 9.28383 16.8359 8.78906 16.8359C8.93031 16.4492 9.11266 16.0846 9.33594 15.7422Z" fill="#4180E3"/>
<path opacity="0.923" fill-rule="evenodd" clip-rule="evenodd" d="M12.4609 15.7422C13.0859 15.7422 13.7109 15.7422 14.3359 15.7422C13.9952 16.1088 13.6566 16.4734 13.3203 16.8359C12.7734 16.8359 12.2266 16.8359 11.6797 16.8359C11.9123 16.4477 12.1727 16.0832 12.4609 15.7422Z" fill="#4180E3"/>
<path opacity="0.917" fill-rule="evenodd" clip-rule="evenodd" d="M19.2578 15.7422C19.7266 15.7422 20.1953 15.7422 20.6641 15.7422C20.6641 16.1068 20.6641 16.4713 20.6641 16.8359C20.1953 16.8359 19.7266 16.8359 19.2578 16.8359C19.2578 16.4713 19.2578 16.1068 19.2578 15.7422Z" fill="#4180E3"/>
<path opacity="0.921" fill-rule="evenodd" clip-rule="evenodd" d="M25.5859 15.7422C26.2109 15.7422 26.8359 15.7422 27.4609 15.7422C27.7491 16.0832 28.0095 16.4477 28.2422 16.8359C27.6953 16.8359 27.1484 16.8359 26.6016 16.8359C26.2652 16.4734 25.9266 16.1088 25.5859 15.7422Z" fill="#4180E3"/>
<path opacity="0.93" fill-rule="evenodd" clip-rule="evenodd" d="M29.0234 15.7422C29.5443 15.7422 30.0651 15.7422 30.5859 15.7422C30.8092 16.0846 30.9916 16.4492 31.1328 16.8359C30.638 16.8359 30.1432 16.8359 29.6484 16.8359C29.4095 16.4919 29.2012 16.1273 29.0234 15.7422Z" fill="#4180E3"/>
<path opacity="0.932" fill-rule="evenodd" clip-rule="evenodd" d="M32.6953 15.7422C33.3203 15.7422 33.9453 15.7422 34.5703 15.7422C34.9641 16.0577 35.3026 16.4223 35.5859 16.8359C34.987 16.8359 34.388 16.8359 33.7891 16.8359C33.3984 16.4974 33.0338 16.1328 32.6953 15.7422Z" fill="#4180E3"/>
<path opacity="0.926" fill-rule="evenodd" clip-rule="evenodd" d="M37.1484 15.7422C37.7474 15.7422 38.3463 15.7422 38.9453 15.7422C39.2438 16.0786 39.5043 16.4432 39.7266 16.8359C39.1797 16.8359 38.6328 16.8359 38.0859 16.8359C37.7742 16.4745 37.4617 16.1099 37.1484 15.7422Z" fill="#4180E3"/>
<path opacity="0.918" fill-rule="evenodd" clip-rule="evenodd" d="M18.0859 16.8359C16.9662 16.8359 15.8463 16.8359 14.7266 16.8359C14.7266 16.5755 14.7266 16.3151 14.7266 16.0547C15.8463 16.0547 16.9662 16.0547 18.0859 16.0547C18.0859 16.3151 18.0859 16.5755 18.0859 16.8359Z" fill="#4280E3"/>
<path opacity="0.915" fill-rule="evenodd" clip-rule="evenodd" d="M0.195244 16.8359C0.742119 16.8359 1.28899 16.8359 1.83587 16.8359C1.78714 17.012 1.68298 17.1423 1.52337 17.2266C1.13274 17.2266 0.742119 17.2266 0.351494 17.2266C0.0462186 17.1628 -0.00586471 17.0326 0.195244 16.8359Z" fill="#457DE4"/>
<path opacity="0.93" fill-rule="evenodd" clip-rule="evenodd" d="M4.02344 16.8359C4.6224 16.8359 5.22135 16.8359 5.82031 16.8359C5.71615 16.9922 5.58594 17.1224 5.42969 17.2266C4.85677 17.2266 4.28385 17.2266 3.71094 17.2266C3.75966 17.0505 3.86383 16.9202 4.02344 16.8359Z" fill="#457DE4"/>
<path opacity="0.924" fill-rule="evenodd" clip-rule="evenodd" d="M8.78906 16.8359C9.28383 16.8359 9.77867 16.8359 10.2734 16.8359C10.2427 16.9753 10.1907 17.1055 10.1172 17.2266C9.62242 17.2266 9.12758 17.2266 8.63281 17.2266C8.65594 17.0779 8.70805 16.9477 8.78906 16.8359Z" fill="#457DE4"/>
<path opacity="0.93" fill-rule="evenodd" clip-rule="evenodd" d="M11.6797 16.8359C12.2266 16.8359 12.7734 16.8359 13.3203 16.8359C13.2716 17.012 13.1674 17.1423 13.0078 17.2266C12.487 17.2266 11.9662 17.2266 11.4453 17.2266C11.5038 17.0834 11.5819 16.9532 11.6797 16.8359Z" fill="#457DE4"/>
<path opacity="0.96" fill-rule="evenodd" clip-rule="evenodd" d="M14.7266 16.8359C15.8463 16.8359 16.9662 16.8359 18.0859 16.8359C18.0859 16.9662 18.0859 17.0963 18.0859 17.2266C16.9662 17.2266 15.8463 17.2266 14.7266 17.2266C14.7266 17.0963 14.7266 16.9662 14.7266 16.8359Z" fill="#457DE4"/>
<path opacity="0.917" fill-rule="evenodd" clip-rule="evenodd" d="M19.2578 16.8359C19.7266 16.8359 20.1953 16.8359 20.6641 16.8359C20.6641 16.9662 20.6641 17.0963 20.6641 17.2266C20.1953 17.2266 19.7266 17.2266 19.2578 17.2266C19.2578 17.0963 19.2578 16.9662 19.2578 16.8359Z" fill="#457DE4"/>
<path opacity="0.928" fill-rule="evenodd" clip-rule="evenodd" d="M26.6016 16.8359C27.1484 16.8359 27.6953 16.8359 28.2422 16.8359C28.34 16.9532 28.4181 17.0834 28.4766 17.2266C27.9557 17.2266 27.4349 17.2266 26.9141 17.2266C26.7545 17.1423 26.6503 17.012 26.6016 16.8359Z" fill="#457DE4"/>
<path opacity="0.926" fill-rule="evenodd" clip-rule="evenodd" d="M29.6484 16.8359C30.1432 16.8359 30.638 16.8359 31.1328 16.8359C31.2138 16.9477 31.2659 17.0779 31.2891 17.2266C30.7943 17.2266 30.2995 17.2266 29.8047 17.2266C29.7312 17.1055 29.6791 16.9753 29.6484 16.8359Z" fill="#457DE4"/>
<path opacity="0.94" fill-rule="evenodd" clip-rule="evenodd" d="M33.7891 16.8359C34.388 16.8359 34.987 16.8359 35.5859 16.8359C35.6901 16.9662 35.7943 17.0963 35.8984 17.2266C35.2995 17.2266 34.7005 17.2266 34.1016 17.2266C33.9998 17.0983 33.8956 16.968 33.7891 16.8359Z" fill="#457DE4"/>
<path opacity="0.914" fill-rule="evenodd" clip-rule="evenodd" d="M38.0859 16.8359C38.6328 16.8359 39.1797 16.8359 39.7266 16.8359C39.9277 17.0326 39.8756 17.1628 39.5703 17.2266C39.1797 17.2266 38.7891 17.2266 38.3984 17.2266C38.2388 17.1423 38.1347 17.012 38.0859 16.8359Z" fill="#457DE4"/>
<path opacity="0.784" fill-rule="evenodd" clip-rule="evenodd" d="M0.351562 17.2266C0.742188 17.2266 1.13281 17.2266 1.52344 17.2266C1.42298 17.431 1.29277 17.6133 1.13281 17.7734C0.839844 17.6279 0.579429 17.4455 0.351562 17.2266Z" fill="#477BE5"/>
<path opacity="0.928" fill-rule="evenodd" clip-rule="evenodd" d="M3.71094 17.2266C4.28385 17.2266 4.85677 17.2266 5.42969 17.2266C5.27912 17.4818 5.09683 17.7162 4.88281 17.9297C4.28385 17.9297 3.6849 17.9297 3.08594 17.9297C3.29652 17.6933 3.50485 17.4589 3.71094 17.2266Z" fill="#487AE5"/>
<path opacity="0.924" fill-rule="evenodd" clip-rule="evenodd" d="M8.63281 17.2266C9.12758 17.2266 9.62242 17.2266 10.1172 17.2266C9.9918 17.4514 9.88758 17.6858 9.80469 17.9297C9.30992 17.9297 8.81508 17.9297 8.32031 17.9297C8.39555 17.6763 8.49969 17.4419 8.63281 17.2266Z" fill="#487AE5"/>
<path opacity="0.937" fill-rule="evenodd" clip-rule="evenodd" d="M11.4453 17.2266C11.9662 17.2266 12.487 17.2266 13.0078 17.2266C12.9083 17.4812 12.7781 17.7156 12.6172 17.9297C12.1224 17.9297 11.6276 17.9297 11.1328 17.9297C11.2157 17.6858 11.3199 17.4514 11.4453 17.2266Z" fill="#487AE5"/>
<path opacity="0.947" fill-rule="evenodd" clip-rule="evenodd" d="M14.7266 17.2266C15.8463 17.2266 16.9662 17.2266 18.0859 17.2266C17.5546 17.3305 16.9948 17.3826 16.4062 17.3828C15.8177 17.3826 15.2579 17.3305 14.7266 17.2266Z" fill="#477CE5"/>
<path opacity="0.917" fill-rule="evenodd" clip-rule="evenodd" d="M19.2578 17.2266C19.7266 17.2266 20.1953 17.2266 20.6641 17.2266C20.6641 17.4609 20.6641 17.6953 20.6641 17.9297C20.1953 17.9297 19.7266 17.9297 19.2578 17.9297C19.2578 17.6953 19.2578 17.4609 19.2578 17.2266Z" fill="#487AE5"/>
<path opacity="0.938" fill-rule="evenodd" clip-rule="evenodd" d="M26.9141 17.2266C27.4349 17.2266 27.9557 17.2266 28.4766 17.2266C28.602 17.4514 28.7062 17.6858 28.7891 17.9297C28.2943 17.9297 27.7995 17.9297 27.3047 17.9297C27.1549 17.7085 27.0248 17.4741 26.9141 17.2266Z" fill="#487AE5"/>
<path opacity="0.932" fill-rule="evenodd" clip-rule="evenodd" d="M29.8047 17.2266C30.2995 17.2266 30.7943 17.2266 31.2891 17.2266C31.4119 17.4467 31.5161 17.6811 31.6016 17.9297C31.1068 17.9297 30.612 17.9297 30.1172 17.9297C30.0343 17.6858 29.9301 17.4514 29.8047 17.2266Z" fill="#487AE5"/>
<path opacity="0.922" fill-rule="evenodd" clip-rule="evenodd" d="M34.1016 17.2266C34.7005 17.2266 35.2995 17.2266 35.8984 17.2266C36.1082 17.4367 36.2905 17.6711 36.4453 17.9297C35.8724 17.9297 35.2995 17.9297 34.7266 17.9297C34.5205 17.6973 34.3121 17.463 34.1016 17.2266Z" fill="#487AE5"/>
<path opacity="0.783" fill-rule="evenodd" clip-rule="evenodd" d="M38.3984 17.2266C38.7891 17.2266 39.1797 17.2266 39.5703 17.2266C39.3424 17.4455 39.082 17.6279 38.7891 17.7734C38.6291 17.6133 38.4989 17.431 38.3984 17.2266Z" fill="#477BE5"/>
<path opacity="0.925" fill-rule="evenodd" clip-rule="evenodd" d="M3.08594 17.9297C3.6849 17.9297 4.28385 17.9297 4.88281 17.9297C4.69975 18.1412 4.51746 18.3495 4.33594 18.5547C3.76302 18.5547 3.1901 18.5547 2.61719 18.5547C2.74338 18.3242 2.89963 18.1159 3.08594 17.9297Z" fill="#4C77E6"/>
<path opacity="0.933" fill-rule="evenodd" clip-rule="evenodd" d="M8.32031 17.9297C8.81508 17.9297 9.30992 17.9297 9.80469 17.9297C9.72656 18.138 9.64844 18.3463 9.57031 18.5547C9.10156 18.5547 8.63281 18.5547 8.16406 18.5547C8.19203 18.3385 8.24414 18.1302 8.32031 17.9297Z" fill="#4C77E6"/>
<path opacity="0.927" fill-rule="evenodd" clip-rule="evenodd" d="M11.1328 17.9297C11.6276 17.9297 12.1224 17.9297 12.6172 17.9297C12.5412 18.1591 12.4371 18.3674 12.3047 18.5547C11.8099 18.5547 11.3151 18.5547 10.8203 18.5547C10.9105 18.3338 11.0148 18.1254 11.1328 17.9297Z" fill="#4B77E6"/>
<path opacity="0.917" fill-rule="evenodd" clip-rule="evenodd" d="M19.2578 17.9297C19.7266 17.9297 20.1953 17.9297 20.6641 17.9297C20.6641 18.138 20.6641 18.3463 20.6641 18.5547C20.1953 18.5547 19.7266 18.5547 19.2578 18.5547C19.2578 18.3463 19.2578 18.138 19.2578 17.9297Z" fill="#4C77E6"/>
<path opacity="0.934" fill-rule="evenodd" clip-rule="evenodd" d="M27.3047 17.9297C27.7995 17.9297 28.2943 17.9297 28.7891 17.9297C28.9071 18.1254 29.0113 18.3338 29.1016 18.5547C28.6068 18.5547 28.112 18.5547 27.6172 18.5547C27.5155 18.3515 27.4114 18.1431 27.3047 17.9297Z" fill="#4C77E6"/>
<path opacity="0.933" fill-rule="evenodd" clip-rule="evenodd" d="M30.1172 17.9297C30.612 17.9297 31.1068 17.9297 31.6016 17.9297C31.6696 18.1337 31.7216 18.3421 31.7578 18.5547C31.2891 18.5547 30.8203 18.5547 30.3516 18.5547C30.2734 18.3463 30.1953 18.138 30.1172 17.9297Z" fill="#4C77E6"/>
<path opacity="0.931" fill-rule="evenodd" clip-rule="evenodd" d="M34.7266 17.9297C35.2995 17.9297 35.8724 17.9297 36.4453 17.9297C36.6291 18.1141 36.7854 18.3224 36.9141 18.5547C36.3412 18.5547 35.7682 18.5547 35.1953 18.5547C35.009 18.3684 34.8527 18.1602 34.7266 17.9297Z" fill="#4C77E6"/>
<path opacity="0.93" fill-rule="evenodd" clip-rule="evenodd" d="M2.61719 18.5547C3.1901 18.5547 3.76302 18.5547 4.33594 18.5547C4.24213 18.7429 4.11192 18.8991 3.94531 19.0234C3.3724 19.0234 2.79948 19.0234 2.22656 19.0234C2.32037 18.8352 2.45058 18.679 2.61719 18.5547Z" fill="#4E75E7"/>
<path opacity="0.936" fill-rule="evenodd" clip-rule="evenodd" d="M8.16406 18.5547C8.63281 18.5547 9.10156 18.5547 9.57031 18.5547C9.5182 18.7109 9.46617 18.8672 9.41406 19.0234C8.94531 19.0234 8.47656 19.0234 8.00781 19.0234C8.03711 18.8517 8.08922 18.6955 8.16406 18.5547Z" fill="#4E75E7"/>
<path opacity="0.931" fill-rule="evenodd" clip-rule="evenodd" d="M10.8203 18.5547C11.3151 18.5547 11.8099 18.5547 12.3047 18.5547C12.2679 18.7171 12.2159 18.8734 12.1484 19.0234C11.6537 19.0234 11.1588 19.0234 10.6641 19.0234C10.7315 18.8734 10.7835 18.7171 10.8203 18.5547Z" fill="#4E75E7"/>
<path opacity="0.917" fill-rule="evenodd" clip-rule="evenodd" d="M19.2578 18.5547C19.7266 18.5547 20.1953 18.5547 20.6641 18.5547C20.6641 18.7109 20.6641 18.8672 20.6641 19.0234C20.1953 19.0234 19.7266 19.0234 19.2578 19.0234C19.2578 18.8672 19.2578 18.7109 19.2578 18.5547Z" fill="#4E75E7"/>
<path opacity="0.933" fill-rule="evenodd" clip-rule="evenodd" d="M27.6172 18.5547C28.112 18.5547 28.6068 18.5547 29.1016 18.5547C29.1384 18.7171 29.1904 18.8734 29.2578 19.0234C28.763 19.0234 28.2682 19.0234 27.7734 19.0234C27.7213 18.8672 27.6693 18.7109 27.6172 18.5547Z" fill="#4E75E7"/>
<path opacity="0.937" fill-rule="evenodd" clip-rule="evenodd" d="M30.3516 18.5547C30.8203 18.5547 31.2891 18.5547 31.7578 18.5547C31.8252 18.7048 31.8773 18.861 31.9141 19.0234C31.4453 19.0234 30.9766 19.0234 30.5078 19.0234C30.4557 18.8672 30.4037 18.7109 30.3516 18.5547Z" fill="#4E75E7"/>
<path opacity="0.922" fill-rule="evenodd" clip-rule="evenodd" d="M35.1953 18.5547C35.7682 18.5547 36.3412 18.5547 36.9141 18.5547C37.0434 18.7078 37.1737 18.8641 37.3047 19.0234C36.7318 19.0234 36.1588 19.0234 35.5859 19.0234C35.4566 18.8703 35.3263 18.7141 35.1953 18.5547Z" fill="#4E75E7"/>
<path opacity="0.87" fill-rule="evenodd" clip-rule="evenodd" d="M18.0859 19.0234C16.9662 19.0234 15.8463 19.0234 14.7266 19.0234C14.7266 18.8932 14.7266 18.763 14.7266 18.6328C15.8463 18.6328 16.9662 18.6328 18.0859 18.6328C18.0859 18.763 18.0859 18.8932 18.0859 19.0234Z" fill="#4F75E7"/>
<path opacity="0.93" fill-rule="evenodd" clip-rule="evenodd" d="M2.22656 19.0234C2.79948 19.0234 3.3724 19.0234 3.94531 19.0234C3.89323 19.1016 3.84115 19.1797 3.78906 19.2578C3.1901 19.2578 2.59115 19.2578 1.99219 19.2578C2.04427 19.1537 2.1224 19.0755 2.22656 19.0234Z" fill="#5073E8"/>
<path opacity="0.935" fill-rule="evenodd" clip-rule="evenodd" d="M8.00781 19.0234C8.47656 19.0234 8.94531 19.0234 9.41406 19.0234C9.43258 19.1243 9.40656 19.2024 9.33594 19.2578C8.86719 19.2578 8.39844 19.2578 7.92969 19.2578C7.97734 19.1882 8.00336 19.1101 8.00781 19.0234Z" fill="#5073E8"/>
<path opacity="0.934" fill-rule="evenodd" clip-rule="evenodd" d="M10.6641 19.0234C11.1588 19.0234 11.6537 19.0234 12.1484 19.0234C12.1008 19.093 12.0748 19.1712 12.0703 19.2578C11.5755 19.2578 11.0807 19.2578 10.5859 19.2578C10.6336 19.1882 10.6596 19.1101 10.6641 19.0234Z" fill="#5073E8"/>
<path opacity="0.96" fill-rule="evenodd" clip-rule="evenodd" d="M14.7266 19.0234C15.8463 19.0234 16.9662 19.0234 18.0859 19.0234C18.0859 19.1016 18.0859 19.1797 18.0859 19.2578C16.9662 19.2578 15.8463 19.2578 14.7266 19.2578C14.7266 19.1797 14.7266 19.1016 14.7266 19.0234Z" fill="#5073E8"/>
<path opacity="0.917" fill-rule="evenodd" clip-rule="evenodd" d="M19.2578 19.0234C19.7266 19.0234 20.1953 19.0234 20.6641 19.0234C20.6641 19.1016 20.6641 19.1797 20.6641 19.2578C20.1953 19.2578 19.7266 19.2578 19.2578 19.2578C19.2578 19.1797 19.2578 19.1016 19.2578 19.0234Z" fill="#5073E8"/>
<path opacity="0.933" fill-rule="evenodd" clip-rule="evenodd" d="M27.7734 19.0234C28.2682 19.0234 28.763 19.0234 29.2578 19.0234C29.2623 19.1101 29.2883 19.1882 29.3359 19.2578C28.8412 19.2578 28.3463 19.2578 27.8516 19.2578C27.8471 19.1712 27.8211 19.093 27.7734 19.0234Z" fill="#5073E8"/>
<path opacity="0.934" fill-rule="evenodd" clip-rule="evenodd" d="M30.508 19.0234C30.9767 19.0234 31.4455 19.0234 31.9142 19.0234C31.9187 19.1101 31.9447 19.1882 31.9923 19.2578C31.5236 19.2578 31.0548 19.2578 30.5861 19.2578C30.5155 19.2024 30.4895 19.1243 30.508 19.0234Z" fill="#5073E8"/>
<path opacity="0.936" fill-rule="evenodd" clip-rule="evenodd" d="M35.5859 19.0234C36.1588 19.0234 36.7318 19.0234 37.3047 19.0234C37.3751 19.0852 37.4272 19.1633 37.4609 19.2578C36.888 19.2578 36.3151 19.2578 35.7422 19.2578C35.6901 19.1797 35.638 19.1016 35.5859 19.0234Z" fill="#5073E8"/>
<path opacity="0.925" fill-rule="evenodd" clip-rule="evenodd" d="M1.99219 19.2578C2.59115 19.2578 3.1901 19.2578 3.78906 19.2578C3.606 19.4693 3.42371 19.6777 3.24219 19.8828C2.66927 19.8828 2.09635 19.8828 1.52344 19.8828C1.64963 19.6523 1.80588 19.4441 1.99219 19.2578Z" fill="#5371E8"/>
<path opacity="0.939" fill-rule="evenodd" clip-rule="evenodd" d="M7.92969 19.2578C8.39844 19.2578 8.86719 19.2578 9.33594 19.2578C9.30992 19.4662 9.28383 19.6745 9.25781 19.8828C8.78906 19.8828 8.32031 19.8828 7.85156 19.8828C7.87758 19.6745 7.90367 19.4662 7.92969 19.2578Z" fill="#5371E8"/>
<path opacity="0.934" fill-rule="evenodd" clip-rule="evenodd" d="M10.5859 19.2578C11.0807 19.2578 11.5755 19.2578 12.0703 19.2578C11.9913 19.4728 11.9131 19.6812 11.8359 19.8828C11.3672 19.8828 10.8984 19.8828 10.4297 19.8828C10.5059 19.6823 10.558 19.474 10.5859 19.2578Z" fill="#5371E8"/>
<path opacity="0.96" fill-rule="evenodd" clip-rule="evenodd" d="M14.7266 19.2578C15.8463 19.2578 16.9662 19.2578 18.0859 19.2578C18.0859 19.4922 18.0859 19.7266 18.0859 19.9609C16.9662 19.9609 15.8463 19.9609 14.7266 19.9609C14.7266 19.7266 14.7266 19.4922 14.7266 19.2578Z" fill="#5371E8"/>
<path opacity="0.917" fill-rule="evenodd" clip-rule="evenodd" d="M19.2578 19.2578C19.7266 19.2578 20.1953 19.2578 20.6641 19.2578C20.6641 19.4662 20.6641 19.6745 20.6641 19.8828C20.1953 19.8828 19.7266 19.8828 19.2578 19.8828C19.2578 19.6745 19.2578 19.4662 19.2578 19.2578Z" fill="#5371E8"/>
<path opacity="0.928" fill-rule="evenodd" clip-rule="evenodd" d="M27.8516 19.2578C28.3463 19.2578 28.8412 19.2578 29.3359 19.2578C29.3639 19.474 29.416 19.6823 29.4922 19.8828C29.0234 19.8828 28.5547 19.8828 28.0859 19.8828C28.0088 19.6812 27.9306 19.4728 27.8516 19.2578Z" fill="#5371E8"/>
<path opacity="0.932" fill-rule="evenodd" clip-rule="evenodd" d="M30.5859 19.2578C31.0547 19.2578 31.5234 19.2578 31.9922 19.2578C32.0182 19.4662 32.0443 19.6745 32.0703 19.8828C31.6016 19.8828 31.1328 19.8828 30.6641 19.8828C30.638 19.6745 30.612 19.4662 30.5859 19.2578Z" fill="#5371E8"/>
<path opacity="0.924" fill-rule="evenodd" clip-rule="evenodd" d="M35.7422 19.2578C36.3151 19.2578 36.888 19.2578 37.4609 19.2578C37.6467 19.4436 37.803 19.652 37.9297 19.8828C37.3828 19.8828 36.8359 19.8828 36.2891 19.8828C36.0707 19.707 35.8884 19.4986 35.7422 19.2578Z" fill="#5371E8"/>
<path opacity="0.93" fill-rule="evenodd" clip-rule="evenodd" d="M1.52344 19.8828C2.09635 19.8828 2.66927 19.8828 3.24219 19.8828C3.14065 20.1119 2.9844 20.2942 2.77344 20.4297C2.20052 20.4297 1.6276 20.4297 1.05469 20.4297C1.19323 20.2297 1.34948 20.0474 1.52344 19.8828Z" fill="#566FE9"/>
<path opacity="0.941" fill-rule="evenodd" clip-rule="evenodd" d="M7.85173 19.8828C8.32048 19.8828 8.78923 19.8828 9.25798 19.8828C9.21384 20.0744 9.16173 20.2566 9.10173 20.4297C8.65899 20.4297 8.21634 20.4297 7.7736 20.4297C7.76954 20.242 7.79559 20.0597 7.85173 19.8828Z" fill="#566EE9"/>
<path opacity="0.941" fill-rule="evenodd" clip-rule="evenodd" d="M10.4297 19.8828C10.8984 19.8828 11.3672 19.8828 11.8359 19.8828C11.84 20.0705 11.814 20.2528 11.7578 20.4297C11.2891 20.4297 10.8203 20.4297 10.3516 20.4297C10.4077 20.2528 10.4338 20.0705 10.4297 19.8828Z" fill="#566FE9"/>
<path opacity="0.917" fill-rule="evenodd" clip-rule="evenodd" d="M19.2578 19.8828C19.7266 19.8828 20.1953 19.8828 20.6641 19.8828C20.6641 20.0651 20.6641 20.2474 20.6641 20.4297C20.1953 20.4297 19.7266 20.4297 19.2578 20.4297C19.2578 20.2474 19.2578 20.0651 19.2578 19.8828Z" fill="#566FE9"/>
<path opacity="0.941" fill-rule="evenodd" clip-rule="evenodd" d="M28.0859 19.8828C28.5547 19.8828 29.0234 19.8828 29.4922 19.8828C29.4881 20.0705 29.5141 20.2528 29.5703 20.4297C29.1016 20.4297 28.6328 20.4297 28.1641 20.4297C28.1255 20.2495 28.0995 20.0673 28.0859 19.8828Z" fill="#566FE9"/>
<path opacity="0.935" fill-rule="evenodd" clip-rule="evenodd" d="M30.6641 19.8828C31.1328 19.8828 31.6016 19.8828 32.0703 19.8828C32.1265 20.0597 32.1525 20.242 32.1484 20.4297C31.7057 20.4297 31.263 20.4297 30.8203 20.4297C30.7603 20.2566 30.7082 20.0744 30.6641 19.8828Z" fill="#566EE9"/>
<path opacity="0.926" fill-rule="evenodd" clip-rule="evenodd" d="M36.2891 19.8828C36.8359 19.8828 37.3828 19.8828 37.9297 19.8828C38.1037 20.0474 38.2599 20.2297 38.3984 20.4297C37.8255 20.4297 37.2526 20.4297 36.6797 20.4297C36.5198 20.2695 36.3895 20.0873 36.2891 19.8828Z" fill="#566EE9"/>
<path opacity="0.926" fill-rule="evenodd" clip-rule="evenodd" d="M1.05469 20.4297C1.6276 20.4297 2.20052 20.4297 2.77344 20.4297C2.61859 20.6883 2.4363 20.9227 2.22656 21.1328C1.65365 21.1328 1.08073 21.1328 0.507812 21.1328C0.660793 20.8756 0.843086 20.6412 1.05469 20.4297Z" fill="#596CEA"/>
<path opacity="0.936" fill-rule="evenodd" clip-rule="evenodd" d="M7.77344 20.4297C8.21618 20.4297 8.65883 20.4297 9.10156 20.4297C9.10156 20.6641 9.10156 20.8984 9.10156 21.1328C8.63282 21.1328 8.16407 21.1328 7.69532 21.1328C7.68498 20.893 7.71102 20.6586 7.77344 20.4297Z" fill="#596CEA"/>
<path opacity="0.935" fill-rule="evenodd" clip-rule="evenodd" d="M10.3516 20.4297C10.8203 20.4297 11.2891 20.4297 11.7578 20.4297C11.7063 20.6605 11.6803 20.8949 11.6797 21.1328C11.2109 21.1328 10.7422 21.1328 10.2734 21.1328C10.2894 20.897 10.3154 20.6627 10.3516 20.4297Z" fill="#596CEA"/>
<path opacity="0.917" fill-rule="evenodd" clip-rule="evenodd" d="M19.2578 20.4297C19.7266 20.4297 20.1953 20.4297 20.6641 20.4297C20.6641 20.6641 20.6641 20.8984 20.6641 21.1328C20.1953 21.1328 19.7266 21.1328 19.2578 21.1328C19.2578 20.8984 19.2578 20.6641 19.2578 20.4297Z" fill="#596CEA"/>
<path opacity="0.93" fill-rule="evenodd" clip-rule="evenodd" d="M28.1641 20.4297C28.6328 20.4297 29.1016 20.4297 29.5703 20.4297C29.6065 20.6627 29.6325 20.897 29.6484 21.1328C29.1797 21.1328 28.7109 21.1328 28.2422 21.1328C28.2416 20.8949 28.2155 20.6605 28.1641 20.4297Z" fill="#596CEA"/>
<path opacity="0.931" fill-rule="evenodd" clip-rule="evenodd" d="M30.8203 20.4297C31.263 20.4297 31.7057 20.4297 32.1484 20.4297C32.2109 20.6586 32.2369 20.893 32.2266 21.1328C31.7578 21.1328 31.2891 21.1328 30.8203 21.1328C30.8203 20.8984 30.8203 20.6641 30.8203 20.4297Z" fill="#596CEA"/>
<path opacity="0.927" fill-rule="evenodd" clip-rule="evenodd" d="M36.6797 20.4297C37.2526 20.4297 37.8255 20.4297 38.3984 20.4297C38.5987 20.6469 38.781 20.8812 38.9453 21.1328C38.3724 21.1328 37.7995 21.1328 37.2266 21.1328C37.0168 20.9227 36.8345 20.6883 36.6797 20.4297Z" fill="#596CEA"/>
<path opacity="0.934" fill-rule="evenodd" clip-rule="evenodd" d="M0.507808 21.1328C1.08072 21.1328 1.65364 21.1328 2.22656 21.1328C2.20282 21.1836 2.17677 21.2357 2.14843 21.2891C2.23673 21.3767 2.28882 21.4809 2.30468 21.6016C1.75781 21.6016 1.21093 21.6016 0.664058 21.6016C0.600393 21.529 0.535288 21.4509 0.468745 21.3672C0.410924 21.2696 0.423944 21.1915 0.507808 21.1328Z" fill="#5C69EB"/>
<path opacity="0.961" fill-rule="evenodd" clip-rule="evenodd" d="M7.69531 21.1328C8.16406 21.1328 8.63281 21.1328 9.10156 21.1328C9.05078 21.284 9.02477 21.4402 9.02344 21.6016C8.5807 21.6016 8.13805 21.6016 7.69531 21.6016C7.69531 21.4453 7.69531 21.2891 7.69531 21.1328Z" fill="#5C69EB"/>
<path opacity="0.913" fill-rule="evenodd" clip-rule="evenodd" d="M10.2734 21.1328C10.7422 21.1328 11.2109 21.1328 11.6797 21.1328C14.2057 21.237 16.7318 21.237 19.2578 21.1328C19.7266 21.1328 20.1953 21.1328 20.6641 21.1328C20.6641 21.2891 20.6641 21.4453 20.6641 21.6016C17.2005 21.6016 13.737 21.6016 10.2734 21.6016C10.2734 21.4453 10.2734 21.2891 10.2734 21.1328Z" fill="#5C69EB"/>
<path opacity="0.943" fill-rule="evenodd" clip-rule="evenodd" d="M28.2422 21.1328C28.7109 21.1328 29.1797 21.1328 29.6484 21.1328C29.6484 21.2891 29.6484 21.4453 29.6484 21.6016C29.2057 21.6016 28.763 21.6016 28.3203 21.6016C28.2943 21.4453 28.2682 21.2891 28.2422 21.1328Z" fill="#5C69EB"/>
<path opacity="0.952" fill-rule="evenodd" clip-rule="evenodd" d="M30.8203 21.1328C31.2891 21.1328 31.7578 21.1328 32.2266 21.1328C32.2266 21.2891 32.2266 21.4453 32.2266 21.6016C31.7838 21.6016 31.3412 21.6016 30.8984 21.6016C30.8971 21.4402 30.8711 21.284 30.8203 21.1328Z" fill="#5C69EB"/>
<path opacity="0.929" fill-rule="evenodd" clip-rule="evenodd" d="M37.2266 21.1328C37.7995 21.1328 38.3724 21.1328 38.9453 21.1328C39.0795 21.2674 39.1837 21.4237 39.2578 21.6016C38.7109 21.6016 38.1641 21.6016 37.6172 21.6016C37.4505 21.4773 37.3204 21.321 37.2266 21.1328Z" fill="#5C69EB"/>
<path opacity="0.87" fill-rule="evenodd" clip-rule="evenodd" d="M23.8672 21.6016C23.4245 21.6016 22.9818 21.6016 22.5391 21.6016C22.5391 21.4713 22.5391 21.3412 22.5391 21.2109C22.9818 21.2109 23.4245 21.2109 23.8672 21.2109C23.8672 21.3412 23.8672 21.4713 23.8672 21.6016Z" fill="#5C69EB"/>
<path opacity="0.87" fill-rule="evenodd" clip-rule="evenodd" d="M26.4453 21.6016C26.0026 21.6016 25.5599 21.6016 25.1172 21.6016C25.1172 21.4713 25.1172 21.3412 25.1172 21.2109C25.5599 21.2109 26.0026 21.2109 26.4453 21.2109C26.4453 21.3412 26.4453 21.4713 26.4453 21.6016Z" fill="#5C69EB"/>
<path opacity="0.931" fill-rule="evenodd" clip-rule="evenodd" d="M0.664062 21.6016C1.21094 21.6016 1.75781 21.6016 2.30469 21.6016C2.62796 21.9348 2.91442 22.2993 3.16406 22.6953C2.59115 22.6953 2.01823 22.6953 1.44531 22.6953C1.1849 22.3307 0.924477 21.9662 0.664062 21.6016Z" fill="#6066EC"/>
<path opacity="0.96" fill-rule="evenodd" clip-rule="evenodd" d="M7.69531 21.6016C8.13805 21.6016 8.5807 21.6016 9.02344 21.6016C9.01195 21.9698 9.03797 22.3345 9.10156 22.6953C8.63281 22.6953 8.16406 22.6953 7.69531 22.6953C7.69531 22.3307 7.69531 21.9662 7.69531 21.6016Z" fill="#6065EC"/>
<path opacity="0.938" fill-rule="evenodd" clip-rule="evenodd" d="M10.2734 21.6016C13.737 21.6016 17.2005 21.6016 20.6641 21.6016C21.0026 21.9662 21.3412 22.3307 21.6797 22.6953C21.0547 22.6953 20.4297 22.6953 19.8047 22.6953C17.0887 22.5915 14.3804 22.5915 11.6797 22.6953C11.2109 22.6953 10.7422 22.6953 10.2734 22.6953C10.2734 22.3307 10.2734 21.9662 10.2734 21.6016Z" fill="#6066EC"/>
<path opacity="0.9" fill-rule="evenodd" clip-rule="evenodd" d="M22.5391 21.6016C22.9818 21.6016 23.4245 21.6016 23.8672 21.6016C23.8672 21.9401 23.8672 22.2787 23.8672 22.6172C23.4245 22.6172 22.9818 22.6172 22.5391 22.6172C22.5391 22.2787 22.5391 21.9401 22.5391 21.6016Z" fill="#6066EC"/>
<path opacity="0.9" fill-rule="evenodd" clip-rule="evenodd" d="M25.1172 21.6016C25.5599 21.6016 26.0026 21.6016 26.4453 21.6016C26.4453 21.9401 26.4453 22.2787 26.4453 22.6172C26.0026 22.6172 25.5599 22.6172 25.1172 22.6172C25.1172 22.2787 25.1172 21.9401 25.1172 21.6016Z" fill="#6066EC"/>
<path opacity="0.959" fill-rule="evenodd" clip-rule="evenodd" d="M28.3203 21.6016C28.763 21.6016 29.2057 21.6016 29.6484 21.6016C29.6484 21.9662 29.6484 22.3307 29.6484 22.6953C29.1797 22.6953 28.7109 22.6953 28.2422 22.6953C28.3058 22.3345 28.3318 21.9698 28.3203 21.6016Z" fill="#6065EC"/>
<path opacity="0.959" fill-rule="evenodd" clip-rule="evenodd" d="M30.8984 21.6016C31.3412 21.6016 31.7838 21.6016 32.2266 21.6016C32.2266 21.9662 32.2266 22.3307 32.2266 22.6953C31.7578 22.6953 31.2891 22.6953 30.8203 22.6953C30.8839 22.3345 30.9099 21.9698 30.8984 21.6016Z" fill="#6065EC"/>
<path opacity="0.929" fill-rule="evenodd" clip-rule="evenodd" d="M37.6172 21.6016C38.1641 21.6016 38.7109 21.6016 39.2578 21.6016C39.4464 21.6723 39.5115 21.8025 39.4531 21.9922C39.2936 22.2609 39.0983 22.4953 38.8672 22.6953C38.3203 22.6953 37.7734 22.6953 37.2266 22.6953C37.4049 22.4377 37.5872 22.1773 37.7734 21.9141C37.6852 21.8264 37.633 21.7222 37.6172 21.6016Z" fill="#6066EC"/>
<path opacity="0.931" fill-rule="evenodd" clip-rule="evenodd" d="M1.44531 22.6953C2.01823 22.6953 2.59115 22.6953 3.16406 22.6953C3.22955 22.722 3.25559 22.7741 3.24219 22.8516C2.69531 22.8516 2.14844 22.8516 1.60156 22.8516C1.52344 22.8255 1.47135 22.7734 1.44531 22.6953Z" fill="#6363ED"/>
<path opacity="0.915" fill-rule="evenodd" clip-rule="evenodd" d="M7.69531 22.6953C8.16406 22.6953 8.63281 22.6953 9.10156 22.6953C9.10156 22.7474 9.10156 22.7995 9.10156 22.8516C8.63281 22.8516 8.16406 22.8516 7.69531 22.8516C7.69531 22.7995 7.69531 22.7474 7.69531 22.6953Z" fill="#6363ED"/>
<path opacity="0.931" fill-rule="evenodd" clip-rule="evenodd" d="M10.2734 22.6953C10.7422 22.6953 11.2109 22.6953 11.6797 22.6953C11.6797 22.7474 11.6797 22.7995 11.6797 22.8516C11.2109 22.8516 10.7422 22.8516 10.2734 22.8516C10.2734 22.7995 10.2734 22.7474 10.2734 22.6953Z" fill="#6363ED"/>
<path opacity="0.934" fill-rule="evenodd" clip-rule="evenodd" d="M19.8047 22.6953C20.4297 22.6953 21.0547 22.6953 21.6797 22.6953C21.7578 22.7213 21.8099 22.7734 21.8359 22.8516C21.2109 22.8516 20.5859 22.8516 19.9609 22.8516C19.8828 22.8255 19.8307 22.7734 19.8047 22.6953Z" fill="#6363ED"/>
<path opacity="0.923" fill-rule="evenodd" clip-rule="evenodd" d="M28.2422 22.6953C28.7109 22.6953 29.1797 22.6953 29.6484 22.6953C29.6484 22.7474 29.6484 22.7995 29.6484 22.8516C29.1797 22.8516 28.7109 22.8516 28.2422 22.8516C28.2422 22.7995 28.2422 22.7474 28.2422 22.6953Z" fill="#6363ED"/>
<path opacity="0.915" fill-rule="evenodd" clip-rule="evenodd" d="M30.8203 22.6953C31.2891 22.6953 31.7578 22.6953 32.2266 22.6953C32.2266 22.7474 32.2266 22.7995 32.2266 22.8516C31.7578 22.8516 31.2891 22.8516 30.8203 22.8516C30.8203 22.7995 30.8203 22.7474 30.8203 22.6953Z" fill="#6363ED"/>
<path opacity="0.909" fill-rule="evenodd" clip-rule="evenodd" d="M37.2266 22.6953C37.7734 22.6953 38.3203 22.6953 38.8672 22.6953C38.8806 22.7728 38.8545 22.8248 38.7891 22.8516C38.2162 22.8516 37.6432 22.8516 37.0703 22.8516C37.0963 22.7734 37.1484 22.7213 37.2266 22.6953Z" fill="#6363ED"/>
<path opacity="0.931" fill-rule="evenodd" clip-rule="evenodd" d="M1.60156 22.8516C2.14844 22.8516 2.69531 22.8516 3.24219 22.8516C3.55827 23.2198 3.84473 23.6105 4.10156 24.0234C3.55469 24.0234 3.00781 24.0234 2.46094 24.0234C2.14678 23.6566 1.86033 23.2659 1.60156 22.8516Z" fill="#6760EE"/>
<path opacity="0.934" fill-rule="evenodd" clip-rule="evenodd" d="M7.69531 22.8516C8.16406 22.8516 8.63281 22.8516 9.10156 22.8516C9.12461 23.2472 9.17672 23.6378 9.25781 24.0234C8.78906 24.0234 8.32031 24.0234 7.85156 24.0234C7.79101 23.6341 7.73892 23.2434 7.69531 22.8516Z" fill="#6760EE"/>
<path opacity="0.937" fill-rule="evenodd" clip-rule="evenodd" d="M10.2734 22.8516C10.7422 22.8516 11.2109 22.8516 11.6797 22.8516C11.7327 23.2477 11.8108 23.6384 11.9141 24.0234C11.4453 24.0234 10.9766 24.0234 10.5078 24.0234C10.4081 23.6388 10.33 23.2482 10.2734 22.8516Z" fill="#6760EE"/>
<path opacity="0.934" fill-rule="evenodd" clip-rule="evenodd" d="M19.9609 22.8516C20.5859 22.8516 21.2109 22.8516 21.8359 22.8516C22.2526 23.2162 22.6432 23.6068 23.0078 24.0234C22.3828 24.0234 21.7578 24.0234 21.1328 24.0234C20.7162 23.6588 20.3255 23.2682 19.9609 22.8516Z" fill="#6760EE"/>
<path opacity="0.939" fill-rule="evenodd" clip-rule="evenodd" d="M28.2422 22.8516C28.7109 22.8516 29.1797 22.8516 29.6484 22.8516C29.5919 23.2482 29.5137 23.6388 29.4141 24.0234C28.9453 24.0234 28.4766 24.0234 28.0078 24.0234C28.1155 23.641 28.1937 23.2504 28.2422 22.8516Z" fill="#6760EE"/>
<path opacity="0.938" fill-rule="evenodd" clip-rule="evenodd" d="M30.8203 22.8516C31.2891 22.8516 31.7578 22.8516 32.2266 22.8516C32.1745 23.2422 32.1224 23.6328 32.0703 24.0234C31.6016 24.0234 31.1328 24.0234 30.6641 24.0234C30.7452 23.6378 30.7973 23.2472 30.8203 22.8516Z" fill="#6760EE"/>
<path opacity="0.925" fill-rule="evenodd" clip-rule="evenodd" d="M37.0703 22.8516C37.6432 22.8516 38.2162 22.8516 38.7891 22.8516C38.4945 23.2595 38.182 23.6502 37.8516 24.0234C37.2787 24.0234 36.7057 24.0234 36.1328 24.0234C36.4477 23.6309 36.7602 23.2403 37.0703 22.8516Z" fill="#6760EE"/>
<path opacity="0.928" fill-rule="evenodd" clip-rule="evenodd" d="M2.46094 24.0234C3.00781 24.0234 3.55469 24.0234 4.10156 24.0234C4.41764 24.3917 4.7041 24.7823 4.96094 25.1953C4.41406 25.1953 3.86719 25.1953 3.32031 25.1953C3.00616 24.8284 2.7197 24.4378 2.46094 24.0234Z" fill="#6D5AF0"/>
<path opacity="0.939" fill-rule="evenodd" clip-rule="evenodd" d="M7.85156 24.0234C8.32031 24.0234 8.78906 24.0234 9.25781 24.0234C9.3257 24.4255 9.42992 24.8161 9.57031 25.1953C9.10156 25.1953 8.63281 25.1953 8.16406 25.1953C8.00227 24.828 7.89813 24.4374 7.85156 24.0234Z" fill="#6D5AF0"/>
<path opacity="0.932" fill-rule="evenodd" clip-rule="evenodd" d="M10.5078 24.0234C10.9766 24.0234 11.4453 24.0234 11.9141 24.0234C12.0288 24.4198 12.1591 24.8105 12.3047 25.1953C11.8099 25.1953 11.3151 25.1953 10.8203 25.1953C10.6798 24.8157 10.5756 24.4251 10.5078 24.0234Z" fill="#6D5AF0"/>
<path opacity="0.934" fill-rule="evenodd" clip-rule="evenodd" d="M21.1328 24.0234C21.7578 24.0234 22.3828 24.0234 23.0078 24.0234C23.4245 24.388 23.8151 24.7787 24.1797 25.1953C23.5547 25.1953 22.9297 25.1953 22.3047 25.1953C21.888 24.8307 21.4974 24.4401 21.1328 24.0234Z" fill="#6D5AF0"/>
<path opacity="0.938" fill-rule="evenodd" clip-rule="evenodd" d="M28.0078 24.0234C28.4766 24.0234 28.9453 24.0234 29.4141 24.0234C29.3463 24.4251 29.242 24.8157 29.1016 25.1953C28.6068 25.1953 28.112 25.1953 27.6172 25.1953C27.7939 24.8215 27.9241 24.4309 28.0078 24.0234Z" fill="#6D5AF0"/>
<path opacity="0.939" fill-rule="evenodd" clip-rule="evenodd" d="M30.6641 24.0234C31.1328 24.0234 31.6016 24.0234 32.0703 24.0234C32.0237 24.4374 31.9196 24.828 31.7578 25.1953C31.2891 25.1953 30.8203 25.1953 30.3516 25.1953C30.492 24.8161 30.5962 24.4255 30.6641 24.0234Z" fill="#6D5AF0"/>
<path opacity="0.93" fill-rule="evenodd" clip-rule="evenodd" d="M36.1328 24.0234C36.7057 24.0234 37.2787 24.0234 37.8516 24.0234C37.5953 24.436 37.3088 24.8266 36.9922 25.1953C36.4193 25.1953 35.8463 25.1953 35.2734 25.1953C35.5297 24.7827 35.8162 24.3921 36.1328 24.0234Z" fill="#6D5AF0"/>
<path opacity="0.906" fill-rule="evenodd" clip-rule="evenodd" d="M19.3359 25.1953C17.5912 25.1953 15.8463 25.1953 14.1016 25.1953C14.1016 24.9349 14.1016 24.6745 14.1016 24.4141C15.8463 24.4141 17.5912 24.4141 19.3359 24.4141C19.3359 24.6745 19.3359 24.9349 19.3359 25.1953Z" fill="#6E59F0"/>
<path opacity="0.933" fill-rule="evenodd" clip-rule="evenodd" d="M3.32031 25.1953C3.86719 25.1953 4.41406 25.1953 4.96094 25.1953C5.03906 25.2213 5.09115 25.2734 5.11719 25.3516C4.57031 25.3516 4.02344 25.3516 3.47656 25.3516C3.39844 25.3255 3.34635 25.2734 3.32031 25.1953Z" fill="#7158F1"/>
<path opacity="0.953" fill-rule="evenodd" clip-rule="evenodd" d="M8.16406 25.1953C8.63281 25.1953 9.10156 25.1953 9.57031 25.1953C9.57031 25.2474 9.57031 25.2995 9.57031 25.3516C9.10156 25.3516 8.63281 25.3516 8.16406 25.3516C8.16406 25.2995 8.16406 25.2474 8.16406 25.1953Z" fill="#7158F1"/>
<path opacity="0.942" fill-rule="evenodd" clip-rule="evenodd" d="M10.8203 25.1953C11.3151 25.1953 11.8099 25.1953 12.3047 25.1953C12.3307 25.2474 12.3568 25.2995 12.3828 25.3516C11.888 25.3516 11.3932 25.3516 10.8984 25.3516C10.8724 25.2995 10.8463 25.2474 10.8203 25.1953Z" fill="#7158F1"/>
<path opacity="0.986" fill-rule="evenodd" clip-rule="evenodd" d="M14.1016 25.1953C15.8463 25.1953 17.5912 25.1953 19.3359 25.1953C19.3359 25.2474 19.3359 25.2995 19.3359 25.3516C17.5912 25.3516 15.8463 25.3516 14.1016 25.3516C14.1016 25.2995 14.1016 25.2474 14.1016 25.1953Z" fill="#7158F1"/>
<path opacity="0.934" fill-rule="evenodd" clip-rule="evenodd" d="M22.3047 25.1953C22.9297 25.1953 23.5547 25.1953 24.1797 25.1953C24.2578 25.2213 24.3099 25.2734 24.3359 25.3516C23.7109 25.3516 23.0859 25.3516 22.4609 25.3516C22.3828 25.3255 22.3307 25.2734 22.3047 25.1953Z" fill="#7158F1"/>
<path opacity="0.938" fill-rule="evenodd" clip-rule="evenodd" d="M27.6172 25.1953C28.112 25.1953 28.6068 25.1953 29.1016 25.1953C29.0755 25.2474 29.0495 25.2995 29.0234 25.3516C28.5287 25.3516 28.0338 25.3516 27.5391 25.3516C27.5651 25.2995 27.5912 25.2474 27.6172 25.1953Z" fill="#7158F1"/>
<path opacity="0.95" fill-rule="evenodd" clip-rule="evenodd" d="M30.3516 25.1953C30.8203 25.1953 31.2891 25.1953 31.7578 25.1953C31.7578 25.2474 31.7578 25.2995 31.7578 25.3516C31.2891 25.3516 30.8203 25.3516 30.3516 25.3516C30.3516 25.2995 30.3516 25.2474 30.3516 25.1953Z" fill="#7158F1"/>
<path opacity="0.91" fill-rule="evenodd" clip-rule="evenodd" d="M35.2734 25.1953C35.8463 25.1953 36.4193 25.1953 36.9922 25.1953C36.9662 25.2734 36.9141 25.3255 36.8359 25.3516C36.263 25.3516 35.6901 25.3516 35.1172 25.3516C35.1432 25.2734 35.1953 25.2213 35.2734 25.1953Z" fill="#7158F1"/>
<path opacity="0.924" fill-rule="evenodd" clip-rule="evenodd" d="M3.47656 25.3516C4.02344 25.3516 4.57031 25.3516 5.11719 25.3516C5.3843 25.7015 5.67076 26.04 5.97656 26.3672C5.3776 26.3672 4.77865 26.3672 4.17969 26.3672C3.91286 26.0487 3.67848 25.7102 3.47656 25.3516Z" fill="#7354F2"/>
<path opacity="0.931" fill-rule="evenodd" clip-rule="evenodd" d="M8.16406 25.3516C8.63281 25.3516 9.10156 25.3516 9.57031 25.3516C9.74484 25.6658 9.87508 26.0044 9.96094 26.3672C9.49219 26.3672 9.02344 26.3672 8.55469 26.3672C8.38016 26.053 8.24992 25.7144 8.16406 25.3516Z" fill="#7355F2"/>
<path opacity="0.924" fill-rule="evenodd" clip-rule="evenodd" d="M10.8984 25.3516C11.3932 25.3516 11.888 25.3516 12.3828 25.3516C12.5452 25.7026 12.7275 26.0411 12.9297 26.3672C12.4088 26.3672 11.888 26.3672 11.3672 26.3672C11.1497 26.0621 10.9934 25.7236 10.8984 25.3516Z" fill="#7354F2"/>
<path opacity="0.873" fill-rule="evenodd" clip-rule="evenodd" d="M14.1016 25.3516C15.8463 25.3516 17.5912 25.3516 19.3359 25.3516C19.3359 25.5078 19.3359 25.6641 19.3359 25.8203C17.5912 25.8203 15.8463 25.8203 14.1016 25.8203C14.1016 25.6641 14.1016 25.5078 14.1016 25.3516Z" fill="#7256F1"/>
<path opacity="0.935" fill-rule="evenodd" clip-rule="evenodd" d="M22.4609 25.3516C23.0859 25.3516 23.7109 25.3516 24.3359 25.3516C24.7005 25.6641 25.0391 26.0026 25.3516 26.3672C24.7266 26.3672 24.1016 26.3672 23.4766 26.3672C23.112 26.0547 22.7734 25.7162 22.4609 25.3516Z" fill="#7355F2"/>
<path opacity="0.923" fill-rule="evenodd" clip-rule="evenodd" d="M27.5391 25.3516C28.0338 25.3516 28.5287 25.3516 29.0234 25.3516C28.9284 25.7236 28.7722 26.0621 28.5547 26.3672C28.0338 26.3672 27.513 26.3672 26.9922 26.3672C27.1944 26.0411 27.3766 25.7026 27.5391 25.3516Z" fill="#7354F2"/>
<path opacity="0.935" fill-rule="evenodd" clip-rule="evenodd" d="M30.3516 25.3516C30.8203 25.3516 31.2891 25.3516 31.7578 25.3516C31.6723 25.7131 31.542 26.0516 31.3672 26.3672C30.8984 26.3672 30.4297 26.3672 29.9609 26.3672C30.0468 26.0044 30.177 25.6658 30.3516 25.3516Z" fill="#7355F2"/>
<path opacity="0.928" fill-rule="evenodd" clip-rule="evenodd" d="M35.1172 25.3516C35.6901 25.3516 36.263 25.3516 36.8359 25.3516C36.5935 25.7072 36.3331 26.0458 36.0547 26.3672C35.4818 26.3672 34.9088 26.3672 34.3359 26.3672C34.5777 26.0139 34.838 25.6753 35.1172 25.3516Z" fill="#7355F2"/>
<path opacity="0.934" fill-rule="evenodd" clip-rule="evenodd" d="M4.17969 26.3672C4.77865 26.3672 5.3776 26.3672 5.97656 26.3672C6.02865 26.4453 6.08073 26.5234 6.13281 26.6016C5.5599 26.6016 4.98698 26.6016 4.41406 26.6016C4.3099 26.5495 4.23177 26.4713 4.17969 26.3672Z" fill="#7752F3"/>
<path opacity="0.929" fill-rule="evenodd" clip-rule="evenodd" d="M8.55485 26.3672C9.0236 26.3672 9.49235 26.3672 9.96109 26.3672C10.0315 26.4289 10.0836 26.507 10.1173 26.6016C9.62258 26.6016 9.12774 26.6016 8.63297 26.6016C8.56235 26.5462 8.53633 26.468 8.55485 26.3672Z" fill="#7752F3"/>
<path opacity="0.938" fill-rule="evenodd" clip-rule="evenodd" d="M11.3672 26.3672C11.888 26.3672 12.4088 26.3672 12.9297 26.3672C12.9818 26.4453 13.0338 26.5234 13.0859 26.6016C12.5391 26.6016 11.9922 26.6016 11.4453 26.6016C11.3977 26.532 11.3716 26.4538 11.3672 26.3672Z" fill="#7752F3"/>
<path opacity="0.935" fill-rule="evenodd" clip-rule="evenodd" d="M23.4766 26.3672C24.1016 26.3672 24.7266 26.3672 25.3516 26.3672C25.4557 26.4193 25.5338 26.4974 25.5859 26.6016C24.9609 26.6016 24.3359 26.6016 23.7109 26.6016C23.6068 26.5495 23.5287 26.4713 23.4766 26.3672Z" fill="#7752F3"/>
<path opacity="0.938" fill-rule="evenodd" clip-rule="evenodd" d="M26.9922 26.3672C27.513 26.3672 28.0338 26.3672 28.5547 26.3672C28.5502 26.4538 28.5242 26.532 28.4766 26.6016C27.9297 26.6016 27.3828 26.6016 26.8359 26.6016C26.888 26.5234 26.9401 26.4453 26.9922 26.3672Z" fill="#7752F3"/>
<path opacity="0.941" fill-rule="evenodd" clip-rule="evenodd" d="M29.9609 26.3672C30.4297 26.3672 30.8984 26.3672 31.3672 26.3672C31.3627 26.4538 31.3367 26.532 31.2891 26.6016C30.7943 26.6016 30.2995 26.6016 29.8047 26.6016C29.8384 26.507 29.8905 26.4289 29.9609 26.3672Z" fill="#7752F3"/>
<path opacity="0.935" fill-rule="evenodd" clip-rule="evenodd" d="M34.3359 26.3672C34.9088 26.3672 35.4818 26.3672 36.0547 26.3672C36.0026 26.4713 35.9245 26.5495 35.8203 26.6016C35.2474 26.6016 34.6745 26.6016 34.1016 26.6016C34.1537 26.4974 34.2318 26.4193 34.3359 26.3672Z" fill="#7752F3"/>
<path opacity="0.925" fill-rule="evenodd" clip-rule="evenodd" d="M4.41406 26.6016C4.98698 26.6016 5.5599 26.6016 6.13281 26.6016C6.21094 26.6276 6.26302 26.6797 6.28906 26.7578C5.6901 26.7578 5.09115 26.7578 4.49219 26.7578C4.4267 26.7311 4.40065 26.6791 4.41406 26.6016Z" fill="#7851F3"/>
<path opacity="0.933" fill-rule="evenodd" clip-rule="evenodd" d="M8.63282 26.6016C9.12759 26.6016 9.62243 26.6016 10.1172 26.6016C10.1432 26.6537 10.1693 26.7057 10.1953 26.7578C9.70056 26.7578 9.20571 26.7578 8.71095 26.7578C8.64548 26.7311 8.61938 26.6791 8.63282 26.6016Z" fill="#7851F3"/>
<path opacity="0.934" fill-rule="evenodd" clip-rule="evenodd" d="M11.4453 26.6016C11.9922 26.6016 12.5391 26.6016 13.0859 26.6016C13.112 26.6537 13.138 26.7057 13.1641 26.7578C12.6432 26.7578 12.1224 26.7578 11.6016 26.7578C11.5234 26.7318 11.4713 26.6797 11.4453 26.6016Z" fill="#7851F3"/>
<path opacity="0.935" fill-rule="evenodd" clip-rule="evenodd" d="M23.7109 26.6016C24.3359 26.6016 24.9609 26.6016 25.5859 26.6016C25.6641 26.6276 25.7162 26.6797 25.7422 26.7578C25.1172 26.7578 24.4922 26.7578 23.8672 26.7578C23.7891 26.7318 23.737 26.6797 23.7109 26.6016Z" fill="#7851F3"/>
<path opacity="0.932" fill-rule="evenodd" clip-rule="evenodd" d="M26.8359 26.6016C27.3828 26.6016 27.9297 26.6016 28.4766 26.6016C28.4505 26.6797 28.3984 26.7318 28.3203 26.7578C27.7995 26.7578 27.2787 26.7578 26.7578 26.7578C26.7838 26.7057 26.8099 26.6537 26.8359 26.6016Z" fill="#7851F3"/>
<path opacity="0.926" fill-rule="evenodd" clip-rule="evenodd" d="M29.8047 26.6016C30.2995 26.6016 30.7943 26.6016 31.2891 26.6016C31.3025 26.6791 31.2764 26.7311 31.2109 26.7578C30.7162 26.7578 30.2213 26.7578 29.7266 26.7578C29.7526 26.7057 29.7787 26.6537 29.8047 26.6016Z" fill="#7851F3"/>
<path opacity="0.925" fill-rule="evenodd" clip-rule="evenodd" d="M34.1016 26.6016C34.6745 26.6016 35.2474 26.6016 35.8203 26.6016C35.8338 26.6791 35.8077 26.7311 35.7422 26.7578C35.1432 26.7578 34.5443 26.7578 33.9453 26.7578C33.9713 26.6797 34.0234 26.6276 34.1016 26.6016Z" fill="#7851F3"/>
<path opacity="0.917" fill-rule="evenodd" clip-rule="evenodd" d="M4.49219 26.7578C5.09115 26.7578 5.6901 26.7578 6.28906 26.7578C6.57552 26.9922 6.83594 27.2526 7.07031 27.5391C6.44531 27.5391 5.82031 27.5391 5.19531 27.5391C4.96168 27.2819 4.7273 27.0214 4.49219 26.7578Z" fill="#7A4FF4"/>
<path opacity="0.937" fill-rule="evenodd" clip-rule="evenodd" d="M8.71094 26.7578C9.2057 26.7578 9.70055 26.7578 10.1953 26.7578C10.3278 27.0195 10.458 27.2799 10.5859 27.5391C10.0912 27.5391 9.59633 27.5391 9.10156 27.5391C8.93172 27.3035 8.80148 27.043 8.71094 26.7578Z" fill="#7A4FF4"/>
<path opacity="0.929" fill-rule="evenodd" clip-rule="evenodd" d="M11.6016 26.7578C12.1224 26.7578 12.6432 26.7578 13.1641 26.7578C13.3997 26.9938 13.608 27.2542 13.7891 27.5391C13.2162 27.5391 12.6432 27.5391 12.0703 27.5391C11.875 27.3052 11.7188 27.0448 11.6016 26.7578Z" fill="#7A4FF4"/>
<path opacity="0.938" fill-rule="evenodd" clip-rule="evenodd" d="M23.8672 26.7578C24.4922 26.7578 25.1172 26.7578 25.7422 26.7578C25.923 26.9123 26.1052 27.0685 26.2891 27.2266C26.4752 27.0926 26.6314 26.9363 26.7578 26.7578C27.2787 26.7578 27.7995 26.7578 28.3203 26.7578C28.2031 27.0448 28.0469 27.3052 27.8516 27.5391C26.7838 27.5391 25.7162 27.5391 24.6484 27.5391C24.362 27.3047 24.1016 27.0443 23.8672 26.7578Z" fill="#7A4FF4"/>
<path opacity="0.933" fill-rule="evenodd" clip-rule="evenodd" d="M29.7266 26.7578C30.2213 26.7578 30.7162 26.7578 31.2109 26.7578C31.1616 27.0649 31.0313 27.3254 30.8203 27.5391C30.3255 27.5391 29.8307 27.5391 29.3359 27.5391C29.4651 27.2807 29.5953 27.0203 29.7266 26.7578Z" fill="#7A4FF4"/>
<path opacity="0.921" fill-rule="evenodd" clip-rule="evenodd" d="M33.9453 26.7578C34.5443 26.7578 35.1432 26.7578 35.7422 26.7578C35.5437 27.0509 35.3093 27.3113 35.0391 27.5391C34.4141 27.5391 33.7891 27.5391 33.1641 27.5391C33.3942 27.2569 33.6546 26.9964 33.9453 26.7578Z" fill="#7A4FF4"/>
<path opacity="0.855" fill-rule="evenodd" clip-rule="evenodd" d="M-0.0390625 26.9922C0.403646 26.9922 0.846352 26.9922 1.28906 26.9922C1.28906 27.1745 1.28906 27.3568 1.28906 27.5391C0.846352 27.5391 0.403646 27.5391 -0.0390625 27.5391C-0.0390625 27.3568 -0.0390625 27.1745 -0.0390625 26.9922Z" fill="#7B4EF4"/>
<path opacity="0.856" fill-rule="evenodd" clip-rule="evenodd" d="M17.3828 27.5391C16.9401 27.5391 16.4974 27.5391 16.0547 27.5391C16.0547 27.3568 16.0547 27.1745 16.0547 26.9922C16.4974 26.9922 16.9401 26.9922 17.3828 26.9922C17.3828 27.1745 17.3828 27.3568 17.3828 27.5391Z" fill="#7B4EF4"/>
<path opacity="0.855" fill-rule="evenodd" clip-rule="evenodd" d="M22.6172 27.5391C21.2891 27.5391 19.9609 27.5391 18.6328 27.5391C18.6328 27.3568 18.6328 27.1745 18.6328 26.9922C19.9609 26.9922 21.2891 26.9922 22.6172 26.9922C22.6172 27.1745 22.6172 27.3568 22.6172 27.5391Z" fill="#7B4EF4"/>
<path opacity="0.973" fill-rule="evenodd" clip-rule="evenodd" d="M-0.0390625 27.5391C0.403646 27.5391 0.846352 27.5391 1.28906 27.5391C1.28906 27.7474 1.28906 27.9557 1.28906 28.1641C0.846352 28.1641 0.403646 28.1641 -0.0390625 28.1641C-0.0390625 27.9557 -0.0390625 27.7474 -0.0390625 27.5391Z" fill="#7E4BF5"/>
<path opacity="0.94" fill-rule="evenodd" clip-rule="evenodd" d="M5.19531 27.5391C5.82031 27.5391 6.44531 27.5391 7.07031 27.5391C7.30469 27.7213 7.51302 27.9297 7.69531 28.1641C7.07031 28.1641 6.44531 28.1641 5.82031 28.1641C5.58594 27.9818 5.3776 27.7734 5.19531 27.5391Z" fill="#7E4BF5"/>
<path opacity="0.931" fill-rule="evenodd" clip-rule="evenodd" d="M9.10156 27.5391C9.59633 27.5391 10.0912 27.5391 10.5859 27.5391C10.755 27.7205 10.8852 27.9288 10.9766 28.1641C10.4557 28.1641 9.93492 28.1641 9.41406 28.1641C9.27023 27.9805 9.16609 27.7723 9.10156 27.5391Z" fill="#7E4BF5"/>
<path opacity="0.932" fill-rule="evenodd" clip-rule="evenodd" d="M12.0703 27.5391C12.6432 27.5391 13.2162 27.5391 13.7891 27.5391C14.0234 27.7213 14.2318 27.9297 14.4141 28.1641C13.7891 28.1641 13.1641 28.1641 12.5391 28.1641C12.3552 27.9797 12.199 27.7713 12.0703 27.5391Z" fill="#7E4BF5"/>
<path opacity="0.973" fill-rule="evenodd" clip-rule="evenodd" d="M16.0547 27.5391C16.4974 27.5391 16.9401 27.5391 17.3828 27.5391C17.3828 27.7474 17.3828 27.9557 17.3828 28.1641C16.9401 28.1641 16.4974 28.1641 16.0547 28.1641C16.0547 27.9557 16.0547 27.7474 16.0547 27.5391Z" fill="#7E4BF5"/>
<path opacity="0.972" fill-rule="evenodd" clip-rule="evenodd" d="M18.6328 27.5391C19.9609 27.5391 21.2891 27.5391 22.6172 27.5391C22.6172 27.7474 22.6172 27.9557 22.6172 28.1641C21.2891 28.1641 19.9609 28.1641 18.6328 28.1641C18.6328 27.9557 18.6328 27.7474 18.6328 27.5391Z" fill="#7E4BF5"/>
<path opacity="0.947" fill-rule="evenodd" clip-rule="evenodd" d="M24.6484 27.5391C25.7162 27.5391 26.7838 27.5391 27.8516 27.5391C27.7229 27.7713 27.5666 27.9797 27.3828 28.1641C26.6797 28.1641 25.9766 28.1641 25.2734 28.1641C25.0391 27.9818 24.8307 27.7734 24.6484 27.5391Z" fill="#7E4BF5"/>
<path opacity="0.933" fill-rule="evenodd" clip-rule="evenodd" d="M29.3359 27.5391C29.8307 27.5391 30.3255 27.5391 30.8203 27.5391C30.7558 27.7723 30.6516 27.9805 30.5078 28.1641C29.987 28.1641 29.4662 28.1641 28.9453 28.1641C29.0366 27.9288 29.1669 27.7205 29.3359 27.5391Z" fill="#7E4BF5"/>
<path opacity="0.92" fill-rule="evenodd" clip-rule="evenodd" d="M33.1641 27.5391C33.7891 27.5391 34.4141 27.5391 35.0391 27.5391C34.8928 27.7798 34.7105 27.9882 34.4922 28.1641C33.8412 28.1641 33.1901 28.1641 32.5391 28.1641C32.7213 27.9297 32.9297 27.7213 33.1641 27.5391Z" fill="#7E4BF5"/>
<path opacity="0.76" fill-rule="evenodd" clip-rule="evenodd" d="M-0.0390625 28.1641C0.403646 28.1641 0.846352 28.1641 1.28906 28.1641C1.28906 28.2422 1.28906 28.3203 1.28906 28.3984C0.846352 28.3984 0.403646 28.3984 -0.0390625 28.3984C-0.0390625 28.3203 -0.0390625 28.2422 -0.0390625 28.1641Z" fill="#804AF6"/>
<path opacity="0.937" fill-rule="evenodd" clip-rule="evenodd" d="M5.82031 28.1641C6.44531 28.1641 7.07031 28.1641 7.69531 28.1641C8.00641 28.3713 8.29289 28.6056 8.55469 28.8672C7.87758 28.8672 7.20052 28.8672 6.52344 28.8672C6.23698 28.6849 6.0026 28.4505 5.82031 28.1641Z" fill="#8148F6"/>
<path opacity="0.934" fill-rule="evenodd" clip-rule="evenodd" d="M9.41406 28.1641C9.93492 28.1641 10.4557 28.1641 10.9766 28.1641C11.1863 28.3742 11.3686 28.6086 11.5234 28.8672C10.9766 28.8672 10.4297 28.8672 9.88281 28.8672C9.7082 28.6491 9.55195 28.4148 9.41406 28.1641Z" fill="#8148F6"/>
<path opacity="0.921" fill-rule="evenodd" clip-rule="evenodd" d="M12.5391 28.1641C13.1641 28.1641 13.7891 28.1641 14.4141 28.1641C14.7273 28.3987 15.0398 28.633 15.3516 28.8672C14.6484 28.8672 13.9453 28.8672 13.2422 28.8672C12.9818 28.6588 12.7474 28.4245 12.5391 28.1641Z" fill="#8148F6"/>
<path opacity="0.76" fill-rule="evenodd" clip-rule="evenodd" d="M16.0547 28.1641C16.4974 28.1641 16.9401 28.1641 17.3828 28.1641C17.3828 28.2422 17.3828 28.3203 17.3828 28.3984C16.9401 28.3984 16.4974 28.3984 16.0547 28.3984C16.0547 28.3203 16.0547 28.2422 16.0547 28.1641Z" fill="#804AF6"/>
<path opacity="0.76" fill-rule="evenodd" clip-rule="evenodd" d="M18.6328 28.1641C19.9609 28.1641 21.2891 28.1641 22.6172 28.1641C22.6172 28.2422 22.6172 28.3203 22.6172 28.3984C21.2891 28.3984 19.9609 28.3984 18.6328 28.3984C18.6328 28.3203 18.6328 28.2422 18.6328 28.1641Z" fill="#804AF6"/>
<path opacity="0.925" fill-rule="evenodd" clip-rule="evenodd" d="M25.2734 28.1641C25.9766 28.1641 26.6797 28.1641 27.3828 28.1641C27.1745 28.4245 26.9401 28.6588 26.6797 28.8672C25.9766 28.8672 25.2734 28.8672 24.5703 28.8672C24.7073 28.7326 24.8635 28.6154 25.0391 28.5156C25.1673 28.4274 25.2454 28.3102 25.2734 28.1641Z" fill="#8148F6"/>
<path opacity="0.934" fill-rule="evenodd" clip-rule="evenodd" d="M28.9453 28.1641C29.4662 28.1641 29.987 28.1641 30.5078 28.1641C30.3699 28.4148 30.2137 28.6491 30.0391 28.8672C29.4922 28.8672 28.9453 28.8672 28.3984 28.8672C28.5533 28.6086 28.7355 28.3742 28.9453 28.1641Z" fill="#8148F6"/>
<path opacity="0.921" fill-rule="evenodd" clip-rule="evenodd" d="M32.5391 28.1641C33.1901 28.1641 33.8412 28.1641 34.4922 28.1641C34.2804 28.4541 34.02 28.6884 33.7109 28.8672C33.0338 28.8672 32.3568 28.8672 31.6797 28.8672C31.9415 28.6056 32.228 28.3713 32.5391 28.1641Z" fill="#8148F6"/>
<path opacity="0.92" fill-rule="evenodd" clip-rule="evenodd" d="M6.52344 28.8672C7.20052 28.8672 7.87758 28.8672 8.55469 28.8672C8.84313 29.0113 9.10352 29.1935 9.33594 29.4141C8.6068 29.4141 7.87758 29.4141 7.14844 29.4141C6.89185 29.2877 6.68352 29.1055 6.52344 28.8672Z" fill="#8445F7"/>
<path opacity="0.924" fill-rule="evenodd" clip-rule="evenodd" d="M9.88281 28.8672C10.4297 28.8672 10.9766 28.8672 11.5234 28.8672C11.7377 29.003 11.894 29.1854 11.9922 29.4141C11.4193 29.4141 10.8463 29.4141 10.2734 29.4141C10.1135 29.2539 9.98328 29.0716 9.88281 28.8672Z" fill="#8445F7"/>
<path opacity="0.924" fill-rule="evenodd" clip-rule="evenodd" d="M13.2422 28.8672C13.9453 28.8672 14.6484 28.8672 15.3516 28.8672C15.6668 29.0506 15.9793 29.233 16.2891 29.4141C15.4818 29.4141 14.6745 29.4141 13.8672 29.4141C13.6122 29.2895 13.4038 29.1073 13.2422 28.8672Z" fill="#8445F7"/>
<path opacity="0.922" fill-rule="evenodd" clip-rule="evenodd" d="M24.5703 28.8672C25.2734 28.8672 25.9766 28.8672 26.6797 28.8672C26.518 29.1073 26.3097 29.2895 26.0547 29.4141C25.2474 29.4141 24.4401 29.4141 23.6328 29.4141C23.9447 29.232 24.2572 29.0498 24.5703 28.8672Z" fill="#8445F7"/>
<path opacity="0.924" fill-rule="evenodd" clip-rule="evenodd" d="M28.3984 28.8672C28.9453 28.8672 29.4922 28.8672 30.0391 28.8672C29.9366 29.073 29.8064 29.2554 29.6484 29.4141C29.0755 29.4141 28.5026 29.4141 27.9297 29.4141C28.0279 29.1854 28.1841 29.003 28.3984 28.8672Z" fill="#8445F7"/>
<path opacity="0.929" fill-rule="evenodd" clip-rule="evenodd" d="M31.6797 28.8672C32.3568 28.8672 33.0338 28.8672 33.7109 28.8672C33.5493 29.1073 33.3409 29.2895 33.0859 29.4141C32.3828 29.4141 31.6797 29.4141 30.9766 29.4141C31.1867 29.2043 31.4211 29.022 31.6797 28.8672Z" fill="#8445F7"/>
<path opacity="0.931" fill-rule="evenodd" clip-rule="evenodd" d="M7.14844 29.4141C7.87758 29.4141 8.6068 29.4141 9.33594 29.4141C9.65133 29.6234 9.96383 29.8317 10.2734 30.0391C9.49219 30.0391 8.71094 30.0391 7.92969 30.0391C7.64481 29.858 7.3844 29.6497 7.14844 29.4141Z" fill="#8843F8"/>
<path opacity="0.925" fill-rule="evenodd" clip-rule="evenodd" d="M10.2734 29.4141C10.8463 29.4141 11.4193 29.4141 11.9922 29.4141C12.2445 29.6048 12.4788 29.8131 12.6953 30.0391C12.0703 30.0391 11.4453 30.0391 10.8203 30.0391C10.582 29.879 10.3998 29.6706 10.2734 29.4141Z" fill="#8843F8"/>
<path opacity="0.922" fill-rule="evenodd" clip-rule="evenodd" d="M13.8672 29.4141C14.6745 29.4141 15.4818 29.4141 16.2891 29.4141C16.8627 29.6398 17.4356 29.8481 18.0078 30.0391C16.9141 30.0391 15.8203 30.0391 14.7266 30.0391C14.3959 29.8906 14.1095 29.6823 13.8672 29.4141Z" fill="#8843F8"/>
<path opacity="0.923" fill-rule="evenodd" clip-rule="evenodd" d="M23.6328 29.4141C24.4401 29.4141 25.2474 29.4141 26.0547 29.4141C25.8124 29.6823 25.5259 29.8906 25.1953 30.0391C24.1016 30.0391 23.0078 30.0391 21.9141 30.0391C22.4862 29.8481 23.0591 29.6398 23.6328 29.4141Z" fill="#8843F8"/>
<path opacity="0.931" fill-rule="evenodd" clip-rule="evenodd" d="M27.9297 29.4141C28.5026 29.4141 29.0755 29.4141 29.6484 29.4141C29.5022 29.6548 29.3199 29.8632 29.1016 30.0391C28.4766 30.0391 27.8516 30.0391 27.2266 30.0391C27.4589 29.833 27.6933 29.6246 27.9297 29.4141Z" fill="#8843F8"/>
<path opacity="0.931" fill-rule="evenodd" clip-rule="evenodd" d="M30.9766 29.4141C31.6797 29.4141 32.3828 29.4141 33.0859 29.4141C32.8832 29.6973 32.6228 29.9056 32.3047 30.0391C31.5495 30.0391 30.7943 30.0391 30.0391 30.0391C30.3241 29.7922 30.6366 29.5838 30.9766 29.4141Z" fill="#8843F8"/>
<path opacity="0.831" fill-rule="evenodd" clip-rule="evenodd" d="M-0.0390625 29.5703C0.403646 29.5703 0.846352 29.5703 1.28906 29.5703C1.28906 29.7266 1.28906 29.8828 1.28906 30.0391C0.846352 30.0391 0.403646 30.0391 -0.0390625 30.0391C-0.0390625 29.8828 -0.0390625 29.7266 -0.0390625 29.5703Z" fill="#8842F8"/>
<path opacity="0.831" fill-rule="evenodd" clip-rule="evenodd" d="M3.86719 30.0391C3.42448 30.0391 2.98177 30.0391 2.53906 30.0391C2.53906 29.8828 2.53906 29.7266 2.53906 29.5703C2.98177 29.5703 3.42448 29.5703 3.86719 29.5703C3.86719 29.7266 3.86719 29.8828 3.86719 30.0391Z" fill="#8842F8"/>
<path opacity="0.842" fill-rule="evenodd" clip-rule="evenodd" d="M39.9609 29.5703C39.9609 29.7266 39.9609 29.8828 39.9609 30.0391C38.2162 30.0391 36.4713 30.0391 34.7266 30.0391C34.7266 29.8828 34.7266 29.7266 34.7266 29.5703C36.4713 29.5703 38.2162 29.5703 39.9609 29.5703Z" fill="#8842F8"/>
<path opacity="0.973" fill-rule="evenodd" clip-rule="evenodd" d="M-0.0390625 30.0391C0.403646 30.0391 0.846352 30.0391 1.28906 30.0391C1.28906 30.2213 1.28906 30.4037 1.28906 30.5859C0.846352 30.5859 0.403646 30.5859 -0.0390625 30.5859C-0.0390625 30.4037 -0.0390625 30.2213 -0.0390625 30.0391Z" fill="#8B40F9"/>
<path opacity="0.973" fill-rule="evenodd" clip-rule="evenodd" d="M2.53906 30.0391C2.98177 30.0391 3.42448 30.0391 3.86719 30.0391C3.86719 30.2213 3.86719 30.4037 3.86719 30.5859C3.42448 30.5859 2.98177 30.5859 2.53906 30.5859C2.53906 30.4037 2.53906 30.2213 2.53906 30.0391Z" fill="#8B40F9"/>
<path opacity="0.932" fill-rule="evenodd" clip-rule="evenodd" d="M7.92969 30.0391C8.71094 30.0391 9.49219 30.0391 10.2734 30.0391C10.5858 30.2087 10.8983 30.3519 11.2109 30.4688C11.0646 30.3356 10.9344 30.1924 10.8203 30.0391C11.4453 30.0391 12.0703 30.0391 12.6953 30.0391C12.9068 30.2221 13.1152 30.4045 13.3203 30.5859C11.7838 30.5859 10.2474 30.5859 8.71094 30.5859C8.40688 30.4639 8.14648 30.2816 7.92969 30.0391Z" fill="#8B40F9"/>
<path opacity="0.943" fill-rule="evenodd" clip-rule="evenodd" d="M14.7266 30.0391C15.8203 30.0391 16.9141 30.0391 18.0078 30.0391C18.6555 30.1387 19.3066 30.2168 19.9609 30.2734C20.6153 30.2168 21.2663 30.1387 21.9141 30.0391C23.0078 30.0391 24.1016 30.0391 25.1953 30.0391C24.9237 30.283 24.6112 30.4654 24.2578 30.5859C21.3932 30.5859 18.5287 30.5859 15.6641 30.5859C15.3106 30.4654 14.9981 30.283 14.7266 30.0391Z" fill="#8B40F9"/>
<path opacity="0.921" fill-rule="evenodd" clip-rule="evenodd" d="M27.2266 30.0391C27.8516 30.0391 28.4766 30.0391 29.1016 30.0391C29.0015 30.2693 28.8452 30.4516 28.6328 30.5859C27.9557 30.5859 27.2787 30.5859 26.6016 30.5859C26.8079 30.4059 27.0163 30.2236 27.2266 30.0391Z" fill="#8B40F9"/>
<path opacity="0.932" fill-rule="evenodd" clip-rule="evenodd" d="M30.0391 30.0391C30.7943 30.0391 31.5495 30.0391 32.3047 30.0391C32.1158 30.2771 31.8814 30.4594 31.6016 30.5859C30.7682 30.5859 29.9349 30.5859 29.1016 30.5859C29.3878 30.3645 29.7003 30.1822 30.0391 30.0391Z" fill="#8B40F9"/>
<path opacity="0.986" fill-rule="evenodd" clip-rule="evenodd" d="M34.7266 30.0391C36.4713 30.0391 38.2162 30.0391 39.9609 30.0391C39.9609 30.2213 39.9609 30.4037 39.9609 30.5859C38.2162 30.5859 36.4713 30.5859 34.7266 30.5859C34.7266 30.4037 34.7266 30.2213 34.7266 30.0391Z" fill="#8B40F9"/>
<path opacity="0.946" fill-rule="evenodd" clip-rule="evenodd" d="M8.71094 30.5859C10.2474 30.5859 11.7838 30.5859 13.3203 30.5859C13.4691 30.6045 13.5733 30.6827 13.6328 30.8203C12.0963 30.8203 10.5599 30.8203 9.02344 30.8203C8.87469 30.8017 8.77047 30.7236 8.71094 30.5859Z" fill="#8D3FFA"/>
<path opacity="0.976" fill-rule="evenodd" clip-rule="evenodd" d="M15.6641 30.5859C18.5287 30.5859 21.3932 30.5859 24.2578 30.5859C24.0899 30.6825 23.9077 30.7606 23.7109 30.8203C21.2109 30.8203 18.7109 30.8203 16.2109 30.8203C16.0142 30.7606 15.832 30.6825 15.6641 30.5859Z" fill="#8D3FFA"/>
<path opacity="0.935" fill-rule="evenodd" clip-rule="evenodd" d="M26.6016 30.5859C27.2787 30.5859 27.9557 30.5859 28.6328 30.5859C28.5316 30.6631 28.4275 30.7413 28.3203 30.8203C27.6432 30.8203 26.9662 30.8203 26.2891 30.8203C26.3622 30.7052 26.4664 30.627 26.6016 30.5859Z" fill="#8D3FFA"/>
<path opacity="0.937" fill-rule="evenodd" clip-rule="evenodd" d="M29.1016 30.5859C29.9349 30.5859 30.7682 30.5859 31.6016 30.5859C31.5004 30.6631 31.3963 30.7413 31.2891 30.8203C30.4037 30.8203 29.5182 30.8203 28.6328 30.8203C28.7641 30.7025 28.9204 30.6244 29.1016 30.5859Z" fill="#8D3FFA"/>
<path opacity="0.986" fill-rule="evenodd" clip-rule="evenodd" d="M34.7266 30.5859C36.4713 30.5859 38.2162 30.5859 39.9609 30.5859C39.9609 30.6641 39.9609 30.7422 39.9609 30.8203C38.2162 30.8203 36.4713 30.8203 34.7266 30.8203C34.7266 30.7422 34.7266 30.6641 34.7266 30.5859Z" fill="#8D3FFA"/>
<path opacity="0.669" fill-rule="evenodd" clip-rule="evenodd" d="M-0.0390625 30.5859C0.403646 30.5859 0.846352 30.5859 1.28906 30.5859C1.28906 30.7162 1.28906 30.8463 1.28906 30.9766C0.846352 30.9766 0.403646 30.9766 -0.0390625 30.9766C-0.0390625 30.8463 -0.0390625 30.7162 -0.0390625 30.5859Z" fill="#8D3EFA"/>
<path opacity="0.669" fill-rule="evenodd" clip-rule="evenodd" d="M2.53906 30.5859C2.98177 30.5859 3.42448 30.5859 3.86719 30.5859C3.86719 30.7162 3.86719 30.8463 3.86719 30.9766C3.42448 30.9766 2.98177 30.9766 2.53906 30.9766C2.53906 30.8463 2.53906 30.7162 2.53906 30.5859Z" fill="#8D3EFA"/>
<path opacity="0.963" fill-rule="evenodd" clip-rule="evenodd" d="M9.02344 30.8203C10.5599 30.8203 12.0963 30.8203 13.6328 30.8203C13.8189 30.8868 13.9752 30.9909 14.1016 31.1328C12.5651 31.1328 11.0287 31.1328 9.49219 31.1328C9.31289 31.0566 9.15664 30.9525 9.02344 30.8203Z" fill="#8E3DFA"/>
<path opacity="0.959" fill-rule="evenodd" clip-rule="evenodd" d="M16.2109 30.8203C18.7109 30.8203 21.2109 30.8203 23.7109 30.8203C23.4534 30.9845 23.167 31.0887 22.8516 31.1328C20.9245 31.1328 18.9974 31.1328 17.0703 31.1328C16.7549 31.0887 16.4685 30.9845 16.2109 30.8203Z" fill="#8E3DFA"/>
<path opacity="0.94" fill-rule="evenodd" clip-rule="evenodd" d="M26.2891 30.8203C26.9662 30.8203 27.6432 30.8203 28.3203 30.8203C28.4088 30.887 28.5129 30.887 28.6328 30.8203C29.5182 30.8203 30.4037 30.8203 31.2891 30.8203C31.1456 30.9834 30.9634 31.0876 30.7422 31.1328C29.1016 31.1328 27.4609 31.1328 25.8203 31.1328C25.9535 31.0006 26.1098 30.8965 26.2891 30.8203Z" fill="#8E3DFA"/>
<path opacity="0.679" fill-rule="evenodd" clip-rule="evenodd" d="M34.7266 30.8203C36.4713 30.8203 38.2162 30.8203 39.9609 30.8203C39.9609 30.8724 39.9609 30.9245 39.9609 30.9766C38.1881 31.0278 36.4434 30.9757 34.7266 30.8203Z" fill="#8D3EFA"/>
<path opacity="0.951" fill-rule="evenodd" clip-rule="evenodd" d="M9.49219 31.1328C11.0287 31.1328 12.5651 31.1328 14.1016 31.1328C14.7296 31.4468 15.3546 31.7593 15.9766 32.0703C14.388 32.0703 12.7995 32.0703 11.2109 32.0703C10.6124 31.7973 10.0395 31.4848 9.49219 31.1328Z" fill="#913AFB"/>
<path opacity="0.862" fill-rule="evenodd" clip-rule="evenodd" d="M17.0703 31.1328C18.9974 31.1328 20.9245 31.1328 22.8516 31.1328C20.9245 31.7578 18.9974 31.7578 17.0703 31.1328Z" fill="#903CFA"/>
<path opacity="0.962" fill-rule="evenodd" clip-rule="evenodd" d="M25.8203 31.1328C27.4609 31.1328 29.1016 31.1328 30.7422 31.1328C30.2341 31.5043 29.6872 31.8168 29.1016 32.0703C27.4088 32.0703 25.7162 32.0703 24.0234 32.0703C24.6316 31.7792 25.2306 31.4667 25.8203 31.1328Z" fill="#913AFB"/>
<path opacity="0.951" fill-rule="evenodd" clip-rule="evenodd" d="M11.2109 32.0703C12.7995 32.0703 14.388 32.0703 15.9766 32.0703C16.1841 32.1043 16.3665 32.1824 16.5234 32.3047C14.9088 32.3047 13.2943 32.3047 11.6797 32.3047C11.4985 32.2662 11.3423 32.1881 11.2109 32.0703Z" fill="#9438FC"/>
<path opacity="0.952" fill-rule="evenodd" clip-rule="evenodd" d="M24.0234 32.0703C25.7162 32.0703 27.4088 32.0703 29.1016 32.0703C28.9511 32.2104 28.7688 32.2885 28.5547 32.3047C26.8359 32.3047 25.1172 32.3047 23.3984 32.3047C23.5775 32.1666 23.7858 32.0885 24.0234 32.0703Z" fill="#9438FC"/>
<path opacity="0.532" fill-rule="evenodd" clip-rule="evenodd" d="M-0.0390625 32.1484C0.43736 32.1002 0.88007 32.1524 1.28906 32.3047C0.846352 32.3047 0.403646 32.3047 -0.0390625 32.3047C-0.0390625 32.2526 -0.0390625 32.2006 -0.0390625 32.1484Z" fill="#9438FC"/>
<path opacity="0.532" fill-rule="evenodd" clip-rule="evenodd" d="M3.86719 32.3047C3.42448 32.3047 2.98177 32.3047 2.53906 32.3047C2.72774 32.202 2.9491 32.1499 3.20312 32.1484C3.45715 32.1499 3.67851 32.202 3.86719 32.3047Z" fill="#9438FC"/>
<path opacity="0.532" fill-rule="evenodd" clip-rule="evenodd" d="M6.44531 32.3047C6.0026 32.3047 5.5599 32.3047 5.11719 32.3047C5.30587 32.202 5.52723 32.1499 5.78125 32.1484C6.03527 32.1499 6.25663 32.202 6.44531 32.3047Z" fill="#9438FC"/>
<path opacity="0.545" fill-rule="evenodd" clip-rule="evenodd" d="M39.9609 32.1484C39.9609 32.2006 39.9609 32.2526 39.9609 32.3047C36.9401 32.3047 33.9193 32.3047 30.8984 32.3047C33.8921 32.1489 36.913 32.0968 39.9609 32.1484Z" fill="#9438FC"/>
<path opacity="0.937" fill-rule="evenodd" clip-rule="evenodd" d="M-0.0390625 32.3047C0.403646 32.3047 0.846352 32.3047 1.28906 32.3047C1.28906 32.7213 1.28906 33.138 1.28906 33.5547C0.846352 33.5547 0.403646 33.5547 -0.0390625 33.5547C-0.0390625 33.138 -0.0390625 32.7213 -0.0390625 32.3047Z" fill="#9834FD"/>
<path opacity="0.937" fill-rule="evenodd" clip-rule="evenodd" d="M2.53906 32.3047C2.98177 32.3047 3.42448 32.3047 3.86719 32.3047C3.86719 32.7213 3.86719 33.138 3.86719 33.5547C3.42448 33.5547 2.98177 33.5547 2.53906 33.5547C2.53906 33.138 2.53906 32.7213 2.53906 32.3047Z" fill="#9834FD"/>
<path opacity="0.937" fill-rule="evenodd" clip-rule="evenodd" d="M5.11719 32.3047C5.5599 32.3047 6.0026 32.3047 6.44531 32.3047C6.44531 32.7213 6.44531 33.138 6.44531 33.5547C6.0026 33.5547 5.5599 33.5547 5.11719 33.5547C5.11719 33.138 5.11719 32.7213 5.11719 32.3047Z" fill="#9834FD"/>
<path opacity="0.96" fill-rule="evenodd" clip-rule="evenodd" d="M11.6797 32.3047C13.2943 32.3047 14.9088 32.3047 16.5234 32.3047C17.6492 32.6052 18.7951 32.7874 19.9609 32.8516C21.127 32.7874 22.2728 32.6052 23.3984 32.3047C25.1172 32.3047 26.8359 32.3047 28.5547 32.3047C27.345 32.9163 26.0689 33.3591 24.7266 33.6328C21.7057 33.6328 18.6849 33.6328 15.6641 33.6328C14.2722 33.3598 12.9441 32.9171 11.6797 32.3047Z" fill="#9834FD"/>
<path opacity="0.96" fill-rule="evenodd" clip-rule="evenodd" d="M30.8984 32.3047C33.9193 32.3047 36.9401 32.3047 39.9609 32.3047C39.9609 32.7213 39.9609 33.138 39.9609 33.5547C36.9401 33.5547 33.9193 33.5547 30.8984 33.5547C30.8984 33.138 30.8984 32.7213 30.8984 32.3047Z" fill="#9834FD"/>
<path opacity="0.89" fill-rule="evenodd" clip-rule="evenodd" d="M15.6641 33.6328C18.6849 33.6328 21.7057 33.6328 24.7266 33.6328C21.7055 34.3619 18.6847 34.3619 15.6641 33.6328Z" fill="#9D30FE"/>
</g>
<defs>
<clipPath id="clip0_413_5377">
<rect width="40" height="40" fill="white"/>
</clipPath>
</defs>
</svg>
