<svg width="32" height="32" viewBox="0 0 32 32" fill="none" xmlns="http://www.w3.org/2000/svg">
<g clip-path="url(#clip0_413_6117)">
<path d="M8.11436 31.8868C6.21131 31.8003 5.17752 31.4836 4.48991 31.2154C3.5788 30.8606 2.92924 30.4384 2.24543 29.7555C1.56163 29.0727 1.13841 28.4231 0.785568 27.512C0.517371 26.8244 0.200672 25.7906 0.114126 23.8875C0.019021 21.8304 0 21.2132 0 16.0014C0 10.7897 0.0209231 10.1734 0.113175 8.11436C0.199721 6.21131 0.518323 5.17942 0.784617 4.48991C1.13936 3.5788 1.56258 2.92924 2.24448 2.24448C2.92733 1.56163 3.5769 1.13746 4.48896 0.784617C5.17657 0.51642 6.21036 0.199721 8.11341 0.113175C10.1715 0.019021 10.7897 0 15.9995 0C21.2113 0 21.8276 0.0209231 23.8866 0.113175C25.7896 0.199721 26.8215 0.518323 27.511 0.784617C28.4221 1.13746 29.0717 1.56163 29.7555 2.24448C30.4393 2.92733 30.8606 3.57785 31.2154 4.48896C31.4836 5.17657 31.8003 6.21036 31.8868 8.11341C31.981 10.1724 32 10.7887 32 16.0005C32 21.2103 31.981 21.8285 31.8868 23.8875C31.8003 25.7906 31.4817 26.8244 31.2154 27.512C30.8606 28.4231 30.4384 29.0727 29.7555 29.7555C29.0727 30.4384 28.4221 30.8606 27.511 31.2154C26.8234 31.4836 25.7896 31.8003 23.8866 31.8868C21.8295 31.981 21.2113 32 15.9995 32C10.7897 32 10.1715 31.9819 8.11436 31.8868Z" fill="url(#paint0_radial_413_6117)"/>
<path d="M8.11436 31.8868C6.21131 31.8003 5.17752 31.4836 4.48991 31.2154C3.5788 30.8606 2.92924 30.4384 2.24543 29.7555C1.56163 29.0727 1.13841 28.4231 0.785568 27.512C0.517371 26.8244 0.200672 25.7906 0.114126 23.8875C0.019021 21.8304 0 21.2132 0 16.0014C0 10.7897 0.0209231 10.1734 0.113175 8.11436C0.199721 6.21131 0.518323 5.17942 0.784617 4.48991C1.13936 3.5788 1.56258 2.92924 2.24448 2.24448C2.92733 1.56163 3.5769 1.13746 4.48896 0.784617C5.17657 0.51642 6.21036 0.199721 8.11341 0.113175C10.1715 0.019021 10.7897 0 15.9995 0C21.2113 0 21.8276 0.0209231 23.8866 0.113175C25.7896 0.199721 26.8215 0.518323 27.511 0.784617C28.4221 1.13746 29.0717 1.56163 29.7555 2.24448C30.4393 2.92733 30.8606 3.57785 31.2154 4.48896C31.4836 5.17657 31.8003 6.21036 31.8868 8.11341C31.981 10.1724 32 10.7887 32 16.0005C32 21.2103 31.981 21.8285 31.8868 23.8875C31.8003 25.7906 31.4817 26.8244 31.2154 27.512C30.8606 28.4231 30.4384 29.0727 29.7555 29.7555C29.0727 30.4384 28.4221 30.8606 27.511 31.2154C26.8234 31.4836 25.7896 31.8003 23.8866 31.8868C21.8295 31.981 21.2113 32 15.9995 32C10.7897 32 10.1715 31.9819 8.11436 31.8868Z" fill="url(#paint1_radial_413_6117)"/>
<path d="M12.0713 16.0683C12.0713 13.8798 13.8449 12.1053 16.0334 12.1053C18.2219 12.1053 19.9964 13.8798 19.9964 16.0683C19.9964 18.2568 18.2219 20.0313 16.0334 20.0313C13.8449 20.0313 12.0713 18.2568 12.0713 16.0683ZM9.92898 16.0683C9.92898 19.4398 12.6619 22.1727 16.0334 22.1727C19.4049 22.1727 22.1378 19.4398 22.1378 16.0683C22.1378 12.6968 19.4049 9.9639 16.0334 9.9639C12.6619 9.9639 9.92908 12.6966 9.92908 16.0683H9.92898ZM20.953 9.72185C20.9529 10.004 21.0364 10.2799 21.1931 10.5145C21.3498 10.7492 21.5725 10.9321 21.8331 11.0402C22.0937 11.1483 22.3806 11.1766 22.6573 11.1217C22.9341 11.0668 23.1883 10.931 23.3879 10.7316C23.5875 10.5321 23.7235 10.278 23.7786 10.0013C23.8338 9.72459 23.8056 9.43774 23.6978 9.17702C23.5899 8.91631 23.4071 8.69343 23.1726 8.53659C22.9381 8.37974 22.6623 8.29596 22.3801 8.29585H22.3796C22.0014 8.29602 21.6387 8.4463 21.3712 8.71368C21.1037 8.98105 20.9533 9.34366 20.953 9.72185ZM11.2306 25.7451C10.0715 25.6923 9.44157 25.4992 9.02292 25.3361C8.46788 25.12 8.07187 24.8627 7.6555 24.4469C7.23913 24.0311 6.98139 23.6354 6.76626 23.0804C6.60306 22.6619 6.41 22.0318 6.35731 20.8727C6.29968 19.6196 6.28817 19.2432 6.28817 16.0685C6.28817 12.8938 6.30063 12.5184 6.35731 11.2643C6.4101 10.1052 6.60459 9.47629 6.76626 9.05659C6.98234 8.50156 7.2397 8.10554 7.6555 7.68917C8.0713 7.2728 8.46693 7.01507 9.02292 6.79994C9.44138 6.63674 10.0715 6.44368 11.2306 6.39099C12.4837 6.33335 12.8601 6.32185 16.0334 6.32185C19.2067 6.32185 19.5835 6.33412 20.8376 6.39118C21.9967 6.44396 22.6256 6.63845 23.0453 6.80013C23.6003 7.01526 23.9963 7.27356 24.4127 7.68936C24.8291 8.10516 25.0859 8.50175 25.302 9.05678C25.4652 9.47525 25.6582 10.1054 25.7109 11.2645C25.7685 12.5186 25.78 12.894 25.78 16.0687C25.78 19.2434 25.7685 19.6188 25.7109 20.8729C25.6581 22.032 25.4641 22.6619 25.302 23.0806C25.0859 23.6356 24.8285 24.0316 24.4127 24.4471C23.9969 24.8625 23.6003 25.1202 23.0453 25.3363C22.6268 25.4995 21.9967 25.6926 20.8376 25.7453C19.5845 25.8029 19.2081 25.8144 16.0334 25.8144C12.8587 25.8144 12.4833 25.8029 11.2306 25.7453V25.7451ZM11.1322 4.25217C9.86659 4.3098 9.0018 4.51048 8.24657 4.80435C7.46491 5.10783 6.80231 5.51498 6.14066 6.17558C5.47902 6.83618 5.07292 7.49887 4.76944 8.28149C4.47556 9.03719 4.27489 9.90151 4.21726 11.1671C4.15867 12.4346 4.14526 12.8399 4.14526 16.0683C4.14526 19.2967 4.15867 19.702 4.21726 20.9695C4.27489 22.2352 4.47556 23.0994 4.76944 23.8551C5.07292 24.6368 5.47911 25.3007 6.14066 25.961C6.80221 26.6214 7.46395 27.0279 8.24657 27.3323C9.00323 27.6261 9.86659 27.8268 11.1322 27.8844C12.4004 27.9421 12.805 27.9564 16.0334 27.9564C19.2618 27.9564 19.6671 27.943 20.9346 27.8844C22.2003 27.8268 23.0645 27.6261 23.8202 27.3323C24.6019 27.0279 25.2645 26.6216 25.9261 25.961C26.5878 25.3004 26.993 24.6368 27.2973 23.8551C27.5912 23.0994 27.7928 22.2351 27.8495 20.9695C27.9072 19.701 27.9206 19.2967 27.9206 16.0683C27.9206 12.8399 27.9072 12.4346 27.8495 11.1671C27.7919 9.90141 27.5912 9.03672 27.2973 8.28149C26.993 7.49982 26.5867 6.83722 25.9261 6.17558C25.2655 5.51393 24.6019 5.10783 23.8212 4.80435C23.0645 4.51048 22.2002 4.30885 20.9356 4.25217C19.6678 4.19425 19.2628 4.18018 16.0348 4.18018C12.8069 4.18018 12.4009 4.19359 11.1326 4.25217" fill="white"/>
</g>
<defs>
<radialGradient id="paint0_radial_413_6117" cx="0" cy="0" r="1" gradientUnits="userSpaceOnUse" gradientTransform="translate(2.07101 31.299) scale(40.6281)">
<stop offset="0.09" stop-color="#FA8F21"/>
<stop offset="0.78" stop-color="#D82D7E"/>
</radialGradient>
<radialGradient id="paint1_radial_413_6117" cx="0" cy="0" r="1" gradientUnits="userSpaceOnUse" gradientTransform="translate(22.1653 30.2715) scale(35.7531)">
<stop offset="0.64" stop-color="#8C3AAA" stop-opacity="0"/>
<stop offset="1" stop-color="#8C3AAA"/>
</radialGradient>
<clipPath id="clip0_413_6117">
<rect width="32" height="32" fill="white"/>
</clipPath>
</defs>
</svg>
