<svg width="38" height="38" viewBox="0 0 38 38" fill="none" xmlns="http://www.w3.org/2000/svg">
<g clip-path="url(#clip0_413_5922)">
<path opacity="0.992" fill-rule="evenodd" clip-rule="evenodd" d="M32.7676 1.66991C23.5274 1.7441 14.2748 1.76884 5.00977 1.74413C7.01771 0.521496 9.20713 -0.0475143 11.5781 0.0370981C12.7905 0.013611 13.9904 0.124939 15.1777 0.371082C16.4599 0.662436 17.7216 1.02116 18.9629 1.44725C20.6244 0.840138 22.3315 0.407193 24.084 0.148426C26.6921 -0.236791 29.2155 0.0600836 31.6543 1.03905C32.0541 1.2138 32.4252 1.42408 32.7676 1.66991Z" fill="#28F29A"/>
<path opacity="0.992" fill-rule="evenodd" clip-rule="evenodd" d="M32.7676 1.66992C33.5672 2.07318 34.2599 2.61745 34.8457 3.30273C32.8665 3.30273 30.8874 3.30273 28.9082 3.30273C27.0012 2.93492 25.0962 2.95967 23.1934 3.37695C20.373 3.278 17.5527 3.278 14.7324 3.37695C12.8296 2.95967 10.9246 2.93492 9.01758 3.30273C7.03841 3.30273 5.05925 3.30273 3.08008 3.30273C3.63699 2.67112 4.28022 2.15159 5.00977 1.74414C14.2748 1.76885 23.5274 1.74411 32.7676 1.66992Z" fill="#27EF9E"/>
<path opacity="0.989" fill-rule="evenodd" clip-rule="evenodd" d="M3.08008 3.30273C5.05925 3.30273 7.03841 3.30273 9.01758 3.30273C8.29001 3.52905 7.57261 3.80119 6.86523 4.11914C5.35612 4.11914 3.847 4.11914 2.33789 4.11914C2.53257 3.80068 2.77997 3.52854 3.08008 3.30273Z" fill="#26ECA2"/>
<path opacity="0.994" fill-rule="evenodd" clip-rule="evenodd" d="M14.7324 3.37698C17.5527 3.27803 20.373 3.27803 23.1934 3.37698C23.0647 3.41466 23.04 3.47651 23.1191 3.56253C23.4332 3.73135 23.7301 3.91689 24.0098 4.11917C20.6573 4.14382 17.3175 4.11907 13.9902 4.04495C14.2956 3.87607 14.5925 3.69052 14.8809 3.48831C14.8405 3.43508 14.791 3.39797 14.7324 3.37698Z" fill="#26ECA1"/>
<path opacity="0.99" fill-rule="evenodd" clip-rule="evenodd" d="M28.9082 3.30273C30.8874 3.30273 32.8665 3.30273 34.8457 3.30273C35.1458 3.52854 35.3932 3.80068 35.5879 4.11914C34.0788 4.11914 32.5696 4.11914 31.0605 4.11914C30.3532 3.80119 29.6358 3.52905 28.9082 3.30273Z" fill="#26ECA1"/>
<path opacity="0.981" fill-rule="evenodd" clip-rule="evenodd" d="M2.33789 4.11914C3.847 4.11914 5.35612 4.11914 6.86523 4.11914C5.93472 4.67834 5.14305 5.39579 4.49023 6.27149C3.33917 6.29594 2.20115 6.27121 1.07617 6.19727C1.38514 5.42981 1.80571 4.7371 2.33789 4.11914Z" fill="#24E9A5"/>
<path opacity="0.989" fill-rule="evenodd" clip-rule="evenodd" d="M13.9903 4.04492C17.3175 4.11904 20.6574 4.14379 24.0098 4.11914C25.0161 4.7543 25.9809 5.44701 26.9044 6.19727C25.222 6.24675 23.5398 6.29622 21.8575 6.3457C20.9551 5.76453 20.0026 5.26975 19.0001 4.86133C18.2204 5.15849 17.4658 5.50484 16.7364 5.90039C15.1531 5.90039 13.5697 5.90039 11.9864 5.90039C11.6402 5.81554 11.6155 5.67948 11.9122 5.49219C12.5959 4.99343 13.2887 4.51101 13.9903 4.04492Z" fill="#24E9A5"/>
<path opacity="0.983" fill-rule="evenodd" clip-rule="evenodd" d="M31.0605 4.11914C32.5696 4.11914 34.0788 4.11914 35.5879 4.11914C36.1251 4.77163 36.5704 5.48908 36.9238 6.27148C35.7383 6.26942 34.5755 6.26942 33.4355 6.27148C32.7827 5.39578 31.9911 4.67833 31.0605 4.11914Z" fill="#24E9A5"/>
<path opacity="0.984" fill-rule="evenodd" clip-rule="evenodd" d="M1.07617 6.19727C2.20115 6.2712 3.33917 6.29594 4.49023 6.27148C4.01754 6.99408 3.64645 7.76098 3.37695 8.57227C2.34799 8.54711 1.33367 8.47289 0.333984 8.34961C0.46504 7.58516 0.712435 6.86768 1.07617 6.19727Z" fill="#22E4AB"/>
<path opacity="0.982" fill-rule="evenodd" clip-rule="evenodd" d="M36.9238 6.27151C37.245 6.98758 37.4923 7.72976 37.666 8.49807C36.6138 8.47365 35.5748 8.49836 34.5488 8.57229C34.2793 7.761 33.9082 6.9941 33.4355 6.27151C34.5755 6.26944 35.7383 6.26944 36.9238 6.27151Z" fill="#22E4AB"/>
<path opacity="0.958" fill-rule="evenodd" clip-rule="evenodd" d="M11.9863 5.90039C13.5696 5.90039 15.153 5.90039 16.7363 5.90039C15.714 6.57306 14.6997 7.26577 13.6934 7.97852C13.4593 7.61009 13.2244 7.23902 12.9883 6.86523C12.6621 6.52648 12.3281 6.20486 11.9863 5.90039Z" fill="#23E6A9"/>
<path opacity="0.985" fill-rule="evenodd" clip-rule="evenodd" d="M26.9043 6.19727C27.7918 6.91152 28.6329 7.67845 29.4277 8.49805C27.9186 8.49805 26.4095 8.49805 24.9004 8.49805C23.9252 7.72588 22.9108 7.00842 21.8574 6.3457C23.5397 6.29622 25.222 6.24675 26.9043 6.19727Z" fill="#22E4AB"/>
<path opacity="0.991" fill-rule="evenodd" clip-rule="evenodd" d="M0.333984 8.34961C1.33367 8.47289 2.34799 8.54711 3.37695 8.57227C3.31436 8.89682 3.24014 9.21849 3.1543 9.53711C2.13997 9.53711 1.12565 9.53711 0.111328 9.53711C0.130152 9.12186 0.204371 8.72605 0.333984 8.34961Z" fill="#20E0B0"/>
<path opacity="0.989" fill-rule="evenodd" clip-rule="evenodd" d="M11.0215 9.68555C10.0254 9.54052 9.01105 9.49102 7.97852 9.53711C8.16132 8.40505 8.82929 7.94734 9.98242 8.16406C10.6499 8.44639 10.9962 8.9536 11.0215 9.68555Z" fill="#20E0B0"/>
<path opacity="0.989" fill-rule="evenodd" clip-rule="evenodd" d="M24.9004 8.49805C26.4095 8.49805 27.9186 8.49805 29.4277 8.49805C29.8018 8.79782 30.1234 9.1442 30.3926 9.53711C28.9824 9.53711 27.5723 9.53711 26.1621 9.53711C25.7272 9.20832 25.3067 8.86194 24.9004 8.49805Z" fill="#20E0B0"/>
<path opacity="0.992" fill-rule="evenodd" clip-rule="evenodd" d="M37.666 8.49805C37.7442 8.83998 37.7937 9.18628 37.8145 9.53711C36.8001 9.53711 35.7858 9.53711 34.7715 9.53711C34.6856 9.21849 34.6114 8.89683 34.5488 8.57227C35.5748 8.49835 36.6138 8.47364 37.666 8.49805Z" fill="#20E0B0"/>
<path opacity="0.985" fill-rule="evenodd" clip-rule="evenodd" d="M0.111328 9.53711C1.12565 9.53711 2.13997 9.53711 3.1543 9.53711C3.03083 10.348 2.98135 11.1644 3.00586 11.9863C2.93527 11.881 2.91053 11.7574 2.93164 11.6152C1.94206 11.6152 0.952471 11.6152 -0.0371094 11.6152C-0.0371094 11.1204 -0.0371094 10.6257 -0.0371094 10.1309C0.0123698 9.93292 0.0618489 9.73505 0.111328 9.53711Z" fill="#1EDDB3"/>
<path opacity="0.978" fill-rule="evenodd" clip-rule="evenodd" d="M7.97841 9.53713C9.01094 9.49104 10.0253 9.54054 11.0214 9.68557C10.813 10.8046 10.145 11.2623 9.01747 11.0586C8.30735 10.8052 7.96097 10.2981 7.97841 9.53713Z" fill="#1EDDB3"/>
<path opacity="0.99" fill-rule="evenodd" clip-rule="evenodd" d="M24.084 11.6152C20.6946 11.6152 17.3054 11.6152 13.916 11.6152C15.2561 10.0675 16.9631 9.30056 19.0371 9.31444C21.0994 9.28297 22.7817 10.0499 24.084 11.6152Z" fill="#1EDCB4"/>
<path opacity="0.987" fill-rule="evenodd" clip-rule="evenodd" d="M26.1621 9.53711C27.5723 9.53711 28.9824 9.53711 30.3926 9.53711C31.0559 10.1715 31.6496 10.8642 32.1738 11.6152C30.8744 11.5907 29.588 11.6155 28.3145 11.6895C27.5723 10.9968 26.8548 10.2793 26.1621 9.53711Z" fill="#1EDDB4"/>
<path opacity="0.985" fill-rule="evenodd" clip-rule="evenodd" d="M34.7715 9.53711C35.7858 9.53711 36.8001 9.53711 37.8145 9.53711C37.864 9.73505 37.9134 9.93292 37.9629 10.1309C37.9629 10.6257 37.9629 11.1204 37.9629 11.6152C36.9427 11.5919 35.9284 11.6166 34.9199 11.6895C34.9388 10.9664 34.8894 10.249 34.7715 9.53711Z" fill="#1EDCB4"/>
<path opacity="0.986" fill-rule="evenodd" clip-rule="evenodd" d="M-0.0371094 11.6152C0.952471 11.6152 1.94206 11.6152 2.93164 11.6152C2.91053 11.7574 2.93527 11.881 3.00586 11.9863C3.00246 12.4829 3.0272 12.9777 3.08008 13.4707C2.06575 13.3718 1.05143 13.3718 0.0371094 13.4707C0.0569858 13.352 0.0322462 13.2531 -0.0371094 13.1738C-0.0371094 12.6543 -0.0371094 12.1348 -0.0371094 11.6152Z" fill="#1CD8B9"/>
<path opacity="0.984" fill-rule="evenodd" clip-rule="evenodd" d="M13.916 11.6152C17.3054 11.6152 20.6946 11.6152 24.084 11.6152C24.572 12.1296 24.9431 12.7234 25.1973 13.3965C24.0098 13.3965 22.8223 13.3965 21.6348 13.3965C20.4401 12.3152 19.0795 12.0554 17.5527 12.6172C17.0801 12.831 16.6595 13.1155 16.291 13.4707C15.1165 13.3968 13.929 13.372 12.7285 13.3965C13.0149 12.7234 13.4107 12.1296 13.916 11.6152Z" fill="#1CD8B8"/>
<path opacity="0.988" fill-rule="evenodd" clip-rule="evenodd" d="M32.1738 11.6152C32.6207 12.1616 33.0412 12.7306 33.4355 13.3223C32.2233 13.3718 31.011 13.4212 29.7988 13.4707C29.2783 12.9005 28.7835 12.3067 28.3145 11.6895C29.588 11.6155 30.8744 11.5907 32.1738 11.6152Z" fill="#1CD8B9"/>
<path opacity="0.985" fill-rule="evenodd" clip-rule="evenodd" d="M37.9629 11.6152C37.9629 12.1348 37.9629 12.6543 37.9629 13.1738C37.9007 13.1992 37.8759 13.2486 37.8887 13.3223C36.8743 13.3718 35.8601 13.4212 34.8457 13.4707C34.9033 12.8788 34.9281 12.2851 34.9199 11.6895C35.9284 11.6166 36.9427 11.5919 37.9629 11.6152Z" fill="#1CD8B9"/>
<path opacity="0.981" fill-rule="evenodd" clip-rule="evenodd" d="M7.5332 14.2129C6.29823 14.2149 5.08599 14.2149 3.89648 14.2129C4.40426 13.3465 4.98564 12.5301 5.64062 11.7637C6.19995 12.62 6.94214 13.2633 7.86719 13.6934C7.83349 13.9076 7.72216 14.0807 7.5332 14.2129Z" fill="#1BD6BB"/>
<path opacity="0.986" fill-rule="evenodd" clip-rule="evenodd" d="M12.7285 13.3965C13.929 13.372 15.1165 13.3968 16.291 13.4707C16.0661 13.7694 15.8434 14.0662 15.623 14.3613C15.5312 14.3383 15.5312 14.3012 15.623 14.25C14.5537 14.1895 13.4899 14.2019 12.4316 14.2871C12.516 13.9844 12.615 13.6875 12.7285 13.3965Z" fill="#1AD5BC"/>
<path opacity="0.986" fill-rule="evenodd" clip-rule="evenodd" d="M21.6348 13.3965C22.8223 13.3965 24.0098 13.3965 25.1973 13.3965C25.3519 13.6415 25.4509 13.9136 25.4941 14.2129C24.4172 14.1885 23.3534 14.2132 22.3027 14.2871C22.0824 13.992 21.8597 13.6951 21.6348 13.3965Z" fill="#1AD5BC"/>
<path opacity="0.988" fill-rule="evenodd" clip-rule="evenodd" d="M3.08008 13.4707C3.13993 13.9807 3.25126 14.4755 3.41406 14.9551C3.5647 14.6946 3.72551 14.4473 3.89648 14.2129C5.08599 14.2149 6.29823 14.2149 7.5332 14.2129C7.24004 14.7037 6.91843 15.1737 6.56836 15.623C4.51497 15.623 2.46159 15.623 0.408203 15.623C0.223469 14.9255 0.0997715 14.2081 0.0371094 13.4707C1.05143 13.3718 2.06575 13.3718 3.08008 13.4707Z" fill="#19D3BF"/>
<path opacity="0.988" fill-rule="evenodd" clip-rule="evenodd" d="M15.623 14.3613C15.4544 14.7683 15.3308 15.1888 15.252 15.6231C14.2317 15.6464 13.2175 15.6216 12.209 15.5488C12.2435 15.1188 12.3177 14.6982 12.4316 14.2871C13.4899 14.2019 14.5537 14.1895 15.623 14.25C15.5312 14.3012 15.5312 14.3383 15.623 14.3613Z" fill="#19D3BF"/>
<path opacity="0.987" fill-rule="evenodd" clip-rule="evenodd" d="M25.4941 14.2129C25.6402 14.6689 25.7144 15.139 25.7168 15.623C24.7024 15.623 23.6882 15.623 22.6738 15.623C22.6102 15.1603 22.4866 14.715 22.3027 14.2871C23.3534 14.2132 24.4172 14.1885 25.4941 14.2129Z" fill="#19D2BF"/>
<path opacity="0.991" fill-rule="evenodd" clip-rule="evenodd" d="M33.4355 13.3223C33.8109 13.849 34.1697 14.3932 34.5117 14.9551C34.6746 14.4755 34.7859 13.9807 34.8457 13.4707C35.8601 13.4212 36.8743 13.3718 37.8887 13.3223C37.8357 14.1099 37.712 14.8769 37.5176 15.623C35.4642 15.623 33.4108 15.623 31.3574 15.623C30.857 14.8953 30.3374 14.1779 29.7988 13.4707C31.011 13.4212 32.2233 13.3718 33.4355 13.3223Z" fill="#1AD3BE"/>
<path opacity="0.992" fill-rule="evenodd" clip-rule="evenodd" d="M0.408203 15.623C2.46159 15.623 4.51497 15.623 6.56836 15.623C6.34053 16.0538 6.09314 16.4743 5.82617 16.8848C4.11914 16.8848 2.41211 16.8848 0.705078 16.8848C0.571491 16.474 0.472533 16.0534 0.408203 15.623Z" fill="#18CFC3"/>
<path opacity="0.988" fill-rule="evenodd" clip-rule="evenodd" d="M12.209 15.5488C13.2175 15.6216 14.2317 15.6464 15.252 15.623C15.252 16.0436 15.252 16.4642 15.252 16.8848C14.2624 16.8848 13.2728 16.8848 12.2832 16.8848C12.3008 16.9806 12.2761 17.0548 12.209 17.1074C12.209 16.5879 12.209 16.0684 12.209 15.5488Z" fill="#18CFC3"/>
<path opacity="0.996" fill-rule="evenodd" clip-rule="evenodd" d="M22.6738 15.623C23.6882 15.623 24.7025 15.623 25.7168 15.623C25.7794 16.0651 25.7794 16.5104 25.7168 16.959C24.7083 16.8862 23.694 16.8614 22.6738 16.8848C22.7486 16.4625 22.7486 16.0419 22.6738 15.623Z" fill="#18CFC3"/>
<path opacity="0.993" fill-rule="evenodd" clip-rule="evenodd" d="M31.3574 15.623C33.4108 15.623 35.4642 15.623 37.5176 15.623C37.4532 16.0534 37.3543 16.474 37.2207 16.8848C35.5137 16.8848 33.8066 16.8848 32.0996 16.8848C31.8326 16.4743 31.5853 16.0538 31.3574 15.623Z" fill="#18CFC3"/>
<path opacity="0.991" fill-rule="evenodd" clip-rule="evenodd" d="M0.705078 16.8848C2.41211 16.8848 4.11914 16.8848 5.82617 16.8848C5.62825 17.2559 5.43034 17.627 5.23242 17.998C3.82792 17.9248 2.41776 17.9001 1.00195 17.9238C0.887953 17.5818 0.78899 17.2354 0.705078 16.8848Z" fill="#16CDC6"/>
<path opacity="0.989" fill-rule="evenodd" clip-rule="evenodd" d="M15.252 16.8848C15.3475 17.1678 15.4217 17.4646 15.4746 17.7754C14.475 17.8987 13.4606 17.9729 12.4316 17.998C12.3421 17.7115 12.2679 17.4146 12.209 17.1074C12.2761 17.0548 12.3008 16.9806 12.2832 16.8848C13.2728 16.8848 14.2624 16.8848 15.252 16.8848Z" fill="#16CDC6"/>
<path opacity="0.985" fill-rule="evenodd" clip-rule="evenodd" d="M22.6738 16.8848C23.694 16.8614 24.7083 16.8862 25.7168 16.959C25.6834 17.308 25.6339 17.6543 25.5684 17.998C24.522 17.9497 23.483 17.9003 22.4512 17.8496C22.5348 17.5302 22.609 17.2086 22.6738 16.8848Z" fill="#16CDC6"/>
<path opacity="0.993" fill-rule="evenodd" clip-rule="evenodd" d="M32.0996 16.8848C33.8066 16.8848 35.5137 16.8848 37.2207 16.8848C37.1368 17.2354 37.0378 17.5818 36.9238 17.9238C35.508 17.9001 34.0979 17.9248 32.6934 17.998C32.4954 17.627 32.2976 17.2559 32.0996 16.8848Z" fill="#16CDC6"/>
<path opacity="0.98" fill-rule="evenodd" clip-rule="evenodd" d="M15.4746 17.7754C15.8685 18.5626 16.3386 19.3048 16.8848 20.002C15.6513 19.9299 14.4143 19.9051 13.1738 19.9277C12.7964 19.3403 12.549 18.6971 12.4316 17.998C13.4606 17.9729 14.475 17.8987 15.4746 17.7754Z" fill="#15C9CA"/>
<path opacity="0.985" fill-rule="evenodd" clip-rule="evenodd" d="M1.00195 17.9238C2.41776 17.9001 3.82792 17.9248 5.23242 17.9981C5.03334 18.3346 4.8849 18.6933 4.78711 19.0742C4.88076 19.3727 5.00446 19.6573 5.1582 19.9278C3.79753 19.9278 2.43685 19.9278 1.07617 19.9278C1.21636 19.6468 1.31531 19.3499 1.37305 19.0371C1.29321 18.6492 1.16951 18.2781 1.00195 17.9238Z" fill="#15C9CA"/>
<path opacity="0.984" fill-rule="evenodd" clip-rule="evenodd" d="M22.4512 17.8496C23.483 17.9003 24.522 17.9497 25.5684 17.998C25.3965 18.7126 25.1244 19.3805 24.752 20.002C23.5964 19.9514 22.4337 19.9019 21.2637 19.8535C21.7236 19.2211 22.1195 18.5531 22.4512 17.8496Z" fill="#15C9CA"/>
<path opacity="0.986" fill-rule="evenodd" clip-rule="evenodd" d="M36.9238 17.9238C36.7796 18.2868 36.656 18.6579 36.5527 19.0371C36.6126 19.3152 36.6868 19.5874 36.7754 19.8535C35.4642 19.9525 34.153 19.9525 32.8418 19.8535C32.9614 19.5895 33.0604 19.3174 33.1387 19.0371C33.0309 18.6732 32.8825 18.3268 32.6934 17.9981C34.0979 17.9248 35.508 17.9001 36.9238 17.9238Z" fill="#15C9CA"/>
<path opacity="0.99" fill-rule="evenodd" clip-rule="evenodd" d="M1.07617 19.9277C2.43685 19.9277 3.79753 19.9277 5.1582 19.9277C5.3571 20.3255 5.55502 20.7214 5.75195 21.1152C4.09623 21.2629 2.41394 21.3124 0.705078 21.2637C0.798638 20.8098 0.922331 20.3645 1.07617 19.9277Z" fill="#13C5CF"/>
<path opacity="0.989" fill-rule="evenodd" clip-rule="evenodd" d="M13.1738 19.9277C14.4143 19.9051 15.6513 19.9299 16.8848 20.002C17.1891 20.388 17.4366 20.8085 17.627 21.2637C16.4395 21.2637 15.252 21.2637 14.0645 21.2637C13.6942 20.8701 13.3973 20.4248 13.1738 19.9277Z" fill="#13C5CE"/>
<path opacity="0.988" fill-rule="evenodd" clip-rule="evenodd" d="M21.2637 19.8535C22.4337 19.9019 23.5964 19.9514 24.752 20.002C24.5381 20.4868 24.266 20.9321 23.9355 21.3379C22.7858 21.264 21.623 21.2392 20.4473 21.2637C20.6623 20.7592 20.9344 20.2892 21.2637 19.8535Z" fill="#13C5CF"/>
<path opacity="0.994" fill-rule="evenodd" clip-rule="evenodd" d="M32.8418 19.8535C34.153 19.9524 35.4642 19.9524 36.7754 19.8535C36.9663 20.2777 37.1147 20.723 37.2207 21.1894C35.4945 21.2628 33.7627 21.2876 32.0254 21.2637C32.3174 20.8031 32.5895 20.3331 32.8418 19.8535Z" fill="#13C5CE"/>
<path opacity="0.992" fill-rule="evenodd" clip-rule="evenodd" d="M5.75195 21.1152C6.10358 21.6942 6.47467 22.2632 6.86523 22.8223C4.68268 22.8464 2.5056 22.8216 0.333984 22.748C0.41303 22.2339 0.536727 21.7391 0.705078 21.2637C2.41394 21.3124 4.09623 21.2629 5.75195 21.1152Z" fill="#11C2D2"/>
<path opacity="0.993" fill-rule="evenodd" clip-rule="evenodd" d="M37.2207 21.1895C37.3912 21.7229 37.5148 22.2671 37.5918 22.8223C35.4092 22.7981 33.2322 22.8229 31.0605 22.8965C31.3813 22.3542 31.7029 21.81 32.0254 21.2637C33.7627 21.2876 35.4945 21.2629 37.2207 21.1895Z" fill="#11C2D2"/>
<path opacity="0.996" fill-rule="evenodd" clip-rule="evenodd" d="M14.0645 21.2637C15.252 21.2637 16.4395 21.2637 17.627 21.2637C18.5671 21.3626 19.5071 21.3626 20.4473 21.2637C21.623 21.2392 22.7858 21.264 23.9355 21.3379C23.5943 21.8476 23.2727 22.3672 22.9707 22.8965C20.3483 22.7975 17.7259 22.7975 15.1035 22.8965C14.7574 22.3528 14.4111 21.8085 14.0645 21.2637Z" fill="#11C2D2"/>
<path opacity="0.985" fill-rule="evenodd" clip-rule="evenodd" d="M0.333984 22.748C2.5056 22.8216 4.68268 22.8464 6.86523 22.8223C7.35604 23.5604 7.87557 24.2779 8.42383 24.9746C7.19732 24.9997 5.98508 25.0739 4.78711 25.1973C4.31274 24.5221 3.85506 23.8294 3.41406 23.1191C3.22615 23.7565 3.09008 24.3998 3.00586 25.0488C1.98842 25.0969 0.998843 25.0474 0.0371094 24.9004C0.0640208 24.1704 0.162979 23.4529 0.333984 22.748Z" fill="#0FBED7"/>
<path opacity="0.995" fill-rule="evenodd" clip-rule="evenodd" d="M22.9707 22.8965C22.8518 23.3579 22.8024 23.828 22.8223 24.3066C22.7496 24.5386 22.7248 24.7859 22.748 25.0488C21.7585 25.0488 20.7689 25.0488 19.7793 25.0488C19.7793 24.8015 19.7793 24.554 19.7793 24.3066C19.3093 24.3066 18.8392 24.3066 18.3691 24.3066C18.2965 24.5386 18.2717 24.7859 18.2949 25.0488C17.3054 25.0488 16.3157 25.0488 15.3262 25.0488C15.3535 24.3189 15.2793 23.6015 15.1035 22.8965C17.7259 22.7975 20.3483 22.7975 22.9707 22.8965Z" fill="#0FBED7"/>
<path opacity="0.982" fill-rule="evenodd" clip-rule="evenodd" d="M37.5918 22.8223C37.7477 23.5098 37.8713 24.2026 37.9629 24.9004C37.9629 24.9499 37.9629 24.9993 37.9629 25.0488C36.9485 25.0488 35.9343 25.0488 34.9199 25.0488C34.8357 24.3998 34.6996 23.7565 34.5117 23.1191C33.8276 24.2484 33.0854 25.3369 32.2852 26.3848C31.7212 25.4744 30.9666 24.7693 30.0215 24.2695C30.3862 23.8192 30.7326 23.3615 31.0605 22.8965C33.2322 22.8229 35.4092 22.7981 37.5918 22.8223Z" fill="#0FBED7"/>
<path opacity="0.979" fill-rule="evenodd" clip-rule="evenodd" d="M18.3691 24.3066C18.3691 24.8015 18.3691 25.2962 18.3691 25.791C18.8391 25.791 19.3092 25.791 19.7793 25.791C19.7793 25.5436 19.7793 25.2962 19.7793 25.0488C20.7688 25.0488 21.7585 25.0488 22.748 25.0488C22.7248 24.7859 22.7496 24.5386 22.8222 24.3066C22.8346 24.9009 22.8222 25.4947 22.7851 26.0879C22.7741 26.3575 22.7122 26.6049 22.5996 26.8301C20.2373 26.756 17.8623 26.7312 15.4746 26.7559C15.4176 26.6992 15.3805 26.625 15.3633 26.5332C15.3262 26.0391 15.3138 25.5442 15.3262 25.0488C16.3157 25.0488 17.3053 25.0488 18.2949 25.0488C18.2717 24.7859 18.2965 24.5386 18.3691 24.3066ZM18.3691 24.3066C18.8391 24.3066 19.3092 24.3066 19.7793 24.3066C19.7793 24.554 19.7793 24.8015 19.7793 25.0488C19.7793 25.2962 19.7793 25.5436 19.7793 25.791C19.3092 25.791 18.8391 25.791 18.3691 25.791C18.3691 25.2962 18.3691 24.8015 18.3691 24.3066Z" fill="#0DB9DC"/>
<path opacity="0.991" fill-rule="evenodd" clip-rule="evenodd" d="M-0.0371094 24.9004C-0.0123698 24.9004 0.0123698 24.9004 0.0371094 24.9004C0.998843 25.0474 1.98842 25.0969 3.00586 25.0488C3.00586 25.5684 3.00586 26.0879 3.00586 26.6074C2.00977 26.7524 0.995452 26.8019 -0.0371094 26.7559C-0.0371094 26.1374 -0.0371094 25.5189 -0.0371094 24.9004Z" fill="#0DB9DC"/>
<path opacity="0.987" fill-rule="evenodd" clip-rule="evenodd" d="M8.42383 24.9746C8.91649 25.5417 9.41123 26.1107 9.9082 26.6816C8.62177 26.7311 7.33528 26.7806 6.04883 26.8301C5.59318 26.3155 5.1726 25.7712 4.78711 25.1973C5.98508 25.0739 7.19732 24.9997 8.42383 24.9746Z" fill="#0DB9DC"/>
<path opacity="0.99" fill-rule="evenodd" clip-rule="evenodd" d="M34.9199 25.0488C35.9343 25.0488 36.9485 25.0488 37.9629 25.0488C37.9629 25.6179 37.9629 26.1868 37.9629 26.7559C36.9485 26.7559 35.9343 26.7559 34.9199 26.7559C34.9199 26.1868 34.9199 25.6179 34.9199 25.0488Z" fill="#0DB9DC"/>
<path opacity="0.992" fill-rule="evenodd" clip-rule="evenodd" d="M3.00586 26.6074C2.98489 27.0102 3.00964 27.406 3.08008 27.7949C2.03517 27.7715 0.996112 27.7963 -0.0371094 27.8691C-0.0371094 27.498 -0.0371094 27.127 -0.0371094 26.7559C0.995452 26.8019 2.00977 26.7524 3.00586 26.6074Z" fill="#0CB6E0"/>
<path opacity="0.994" fill-rule="evenodd" clip-rule="evenodd" d="M34.9199 26.7559C35.9343 26.7559 36.9485 26.7559 37.9629 26.7559C37.9629 27.1022 37.9629 27.4485 37.9629 27.7949C36.9238 27.7949 35.8848 27.7949 34.8457 27.7949C34.9155 27.4557 34.9403 27.1094 34.9199 26.7559Z" fill="#0BB6E0"/>
<path opacity="0.995" fill-rule="evenodd" clip-rule="evenodd" d="M9.9082 26.6816C10.304 27.028 10.6751 27.3991 11.0215 27.7949C9.63604 27.7949 8.25068 27.7949 6.86523 27.7949C6.56742 27.4969 6.29529 27.1753 6.04883 26.8301C7.33528 26.7806 8.62177 26.7311 9.9082 26.6816Z" fill="#0BB6E0"/>
<path opacity="0.988" fill-rule="evenodd" clip-rule="evenodd" d="M29.6504 27.7207C28.7598 27.8196 27.8691 27.8196 26.9785 27.7207C27.2305 27.1496 27.6758 26.8774 28.3145 26.9043C28.9536 26.8768 29.3989 27.1489 29.6504 27.7207Z" fill="#0CB6E1"/>
<path opacity="0.994" fill-rule="evenodd" clip-rule="evenodd" d="M15.4746 26.7559C17.8623 26.7312 20.2373 26.756 22.5996 26.8301C22.5187 27.2062 22.3455 27.5278 22.0801 27.7949C20.0762 27.7949 18.0723 27.7949 16.0684 27.7949C15.7567 27.5185 15.5588 27.1722 15.4746 26.7559Z" fill="#0BB6E0"/>
<path opacity="0.978" fill-rule="evenodd" clip-rule="evenodd" d="M26.9787 27.7207C27.8693 27.8196 28.7599 27.8196 29.6505 27.7207C30.0387 28.6659 29.7665 29.371 28.8341 29.8359C28.0789 30.0214 27.4727 29.8111 27.0158 29.2051C26.7881 28.7059 26.7757 28.2111 26.9787 27.7207Z" fill="#0AB3E4"/>
<path opacity="0.984" fill-rule="evenodd" clip-rule="evenodd" d="M3.08008 27.7949C3.1463 28.5298 3.29474 29.2473 3.52539 29.9473C2.44349 29.9935 1.37968 29.944 0.333984 29.7988C0.185369 29.1779 0.0616713 28.5594 -0.0371094 27.9434C-0.0371094 27.9187 -0.0371094 27.8939 -0.0371094 27.8691C0.996112 27.7963 2.03517 27.7716 3.08008 27.7949Z" fill="#0AB2E4"/>
<path opacity="0.986" fill-rule="evenodd" clip-rule="evenodd" d="M6.86523 27.7949C8.25068 27.7949 9.63604 27.7949 11.0215 27.7949C11.7931 28.5174 12.5848 29.2101 13.3965 29.873C11.9002 29.947 10.3911 29.9718 8.86914 29.9473C8.12154 29.2988 7.45357 28.5813 6.86523 27.7949Z" fill="#0AB3E4"/>
<path opacity="0.978" fill-rule="evenodd" clip-rule="evenodd" d="M16.0684 27.7949C18.0723 27.7949 20.0762 27.7949 22.0801 27.7949C21.2527 28.6522 20.2383 28.9737 19.0371 28.7598C18.439 28.7671 17.8452 28.73 17.2559 28.6484C16.7579 28.4878 16.3621 28.2034 16.0684 27.7949Z" fill="#0BB4E3"/>
<path opacity="0.983" fill-rule="evenodd" clip-rule="evenodd" d="M34.8457 27.7949C35.8848 27.7949 36.9238 27.7949 37.9629 27.7949C37.9629 27.8444 37.9629 27.8939 37.9629 27.9434C37.8486 28.6035 37.7249 29.2714 37.5918 29.9473C36.528 29.9473 35.4642 29.9473 34.4004 29.9473C34.6311 29.2472 34.7795 28.5298 34.8457 27.7949Z" fill="#0AB2E4"/>
<path opacity="0.986" fill-rule="evenodd" clip-rule="evenodd" d="M13.3965 29.873C13.8151 30.1437 14.2109 30.4406 14.584 30.7637C13.0135 30.8377 11.4302 30.8625 9.83398 30.8379C9.51046 30.5389 9.1888 30.2421 8.86914 29.9473C10.3911 29.9718 11.9002 29.947 13.3965 29.873Z" fill="#08AFE8"/>
<path opacity="0.985" fill-rule="evenodd" clip-rule="evenodd" d="M0.333984 29.7988C1.37968 29.944 2.44349 29.9935 3.52539 29.9473C3.67661 30.2264 3.80031 30.5233 3.89648 30.8379C2.80794 30.8379 1.7194 30.8379 0.630859 30.8379C0.509072 30.4994 0.410114 30.153 0.333984 29.7988Z" fill="#08AFE8"/>
<path opacity="0.99" fill-rule="evenodd" clip-rule="evenodd" d="M34.4004 29.9473C35.4642 29.9473 36.528 29.9473 37.5918 29.9473C37.49 30.3073 37.3662 30.6537 37.2207 30.9863C36.1845 30.8392 35.1208 30.7896 34.0293 30.8379C34.1255 30.5233 34.2491 30.2264 34.4004 29.9473Z" fill="#08AFE8"/>
<path opacity="0.989" fill-rule="evenodd" clip-rule="evenodd" d="M14.584 30.7637C15.3168 31.2163 16.0343 31.6863 16.7363 32.1738C14.9798 32.1738 13.2233 32.1738 11.4668 32.1738C10.9006 31.7561 10.3563 31.3107 9.83398 30.8379C11.4302 30.8625 13.0135 30.8377 14.584 30.7637Z" fill="#07ADEB"/>
<path opacity="0.977" fill-rule="evenodd" clip-rule="evenodd" d="M26.0137 32.1738C24.4174 32.1984 22.8341 32.1736 21.2637 32.0996C22.274 31.4701 23.2636 30.8021 24.2324 30.0957C24.6421 30.9503 25.2359 31.6431 26.0137 32.1738Z" fill="#07ADEB"/>
<path opacity="0.985" fill-rule="evenodd" clip-rule="evenodd" d="M0.630859 30.8379C1.7194 30.8379 2.80794 30.8379 3.89648 30.8379C4.16177 31.3017 4.45865 31.747 4.78711 32.1738C3.59961 32.1738 2.41211 32.1738 1.22461 32.1738C0.984786 31.7528 0.786867 31.3075 0.630859 30.8379Z" fill="#07ACEB"/>
<path opacity="0.989" fill-rule="evenodd" clip-rule="evenodd" d="M34.0293 30.8379C35.1208 30.7897 36.1845 30.8392 37.2207 30.9863C37.1039 31.4125 36.9307 31.8083 36.7012 32.1738C35.5137 32.1738 34.3262 32.1738 33.1387 32.1738C33.4672 31.747 33.764 31.3017 34.0293 30.8379Z" fill="#07ADEB"/>
<path opacity="0.988" fill-rule="evenodd" clip-rule="evenodd" d="M21.2637 32.0996C22.8341 32.1736 24.4174 32.1984 26.0137 32.1738C26.1395 32.1876 26.2385 32.2495 26.3105 32.3594C25.7986 32.7363 25.2791 33.0951 24.752 33.4355C20.9047 33.4109 17.0701 33.4356 13.248 33.5098C12.6249 33.0997 12.0312 32.6544 11.4668 32.1738C13.2233 32.1738 14.9798 32.1738 16.7363 32.1738C17.4583 32.5595 18.2005 32.9058 18.9629 33.2129C19.7617 32.9001 20.5286 32.529 21.2637 32.0996Z" fill="#05A9EF"/>
<path opacity="0.992" fill-rule="evenodd" clip-rule="evenodd" d="M1.22461 32.1738C2.41211 32.1738 3.59961 32.1738 4.78711 32.1738C5.15897 32.6199 5.57954 33.0157 6.04883 33.3613C4.70108 33.4353 3.34041 33.46 1.9668 33.4355C1.66082 33.054 1.41343 32.6334 1.22461 32.1738Z" fill="#05A9EF"/>
<path opacity="0.988" fill-rule="evenodd" clip-rule="evenodd" d="M33.1387 32.1738C34.3262 32.1738 35.5137 32.1738 36.7012 32.1738C36.5124 32.6334 36.265 33.054 35.959 33.4355C34.5735 33.4355 33.1882 33.4355 31.8027 33.4355C32.2949 33.0672 32.7402 32.6466 33.1387 32.1738Z" fill="#06AAEF"/>
<path opacity="0.987" fill-rule="evenodd" clip-rule="evenodd" d="M6.04883 33.3613C6.62544 33.823 7.26867 34.1693 7.97852 34.4004C6.25956 34.4745 4.52779 34.4992 2.7832 34.4746C2.45497 34.1713 2.18283 33.8249 1.9668 33.4355C3.34041 33.46 4.70108 33.4353 6.04883 33.3613Z" fill="#04A7F2"/>
<path opacity="0.995" fill-rule="evenodd" clip-rule="evenodd" d="M24.752 33.4355C24.2585 33.8558 23.7143 34.2021 23.1191 34.4746C20.3483 34.4746 17.5774 34.4746 14.8066 34.4746C14.2492 34.2085 13.7297 33.8869 13.248 33.5098C17.0701 33.4356 20.9047 33.4109 24.752 33.4355Z" fill="#04A7F2"/>
<path opacity="0.985" fill-rule="evenodd" clip-rule="evenodd" d="M31.8027 33.4355C33.1882 33.4355 34.5735 33.4355 35.959 33.4355C35.718 33.8499 35.4211 34.221 35.0684 34.5488C33.3613 34.4993 31.6543 34.4499 29.9473 34.4004C30.6198 34.1755 31.2383 33.8539 31.8027 33.4355Z" fill="#04A7F2"/>
<path opacity="0.989" fill-rule="evenodd" clip-rule="evenodd" d="M7.97852 34.4004C9.14754 34.8361 10.3598 35.0588 11.6152 35.0684C12.6898 35.0163 13.7536 34.8802 14.8066 34.6602C14.8881 34.603 14.8881 34.5412 14.8066 34.4746C17.5774 34.4746 20.3483 34.4746 23.1191 34.4746C23.0376 34.5412 23.0376 34.603 23.1191 34.6602C24.9473 35.0659 26.7781 35.1154 28.6113 34.8086C29.0711 34.7088 29.5164 34.5728 29.9473 34.4004C31.6543 34.4499 33.3613 34.4993 35.0684 34.5488C34.5398 35.2014 33.9213 35.7458 33.2129 36.1816C23.7376 36.0827 14.2624 36.0827 4.78711 36.1816C4.00969 35.7513 3.34172 35.1823 2.7832 34.4746C4.52779 34.4992 6.25956 34.4745 7.97852 34.4004Z" fill="#03A4F5"/>
<path opacity="0.996" fill-rule="evenodd" clip-rule="evenodd" d="M33.2129 36.1816C32.8857 36.4093 32.5393 36.6071 32.1738 36.7754C27.9434 36.6765 23.7129 36.6765 19.4824 36.7754C19.114 36.5849 18.7429 36.5849 18.3691 36.7754C14.1634 36.6765 9.95771 36.6765 5.75195 36.7754C5.3904 36.6322 5.06878 36.4344 4.78711 36.1816C14.2624 36.0827 23.7376 36.0827 33.2129 36.1816Z" fill="#02A1F8"/>
<path opacity="0.978" fill-rule="evenodd" clip-rule="evenodd" d="M5.75195 36.7754C9.95771 36.6765 14.1634 36.6765 18.3691 36.7754C16.8984 37.3224 15.3893 37.7183 13.8418 37.9629C12.3821 37.9629 10.9226 37.9629 9.46289 37.9629C8.17349 37.7514 6.93648 37.3556 5.75195 36.7754Z" fill="#019FFB"/>
<path opacity="0.976" fill-rule="evenodd" clip-rule="evenodd" d="M19.4824 36.7754C23.7129 36.6765 27.9434 36.6765 32.1738 36.7754C30.9893 37.3556 29.7523 37.7514 28.4629 37.9629C27.0032 37.9629 25.5436 37.9629 24.084 37.9629C22.5217 37.7083 20.9878 37.3125 19.4824 36.7754Z" fill="#019FFB"/>
</g>
<defs>
<clipPath id="clip0_413_5922">
<rect width="38" height="38" fill="white"/>
</clipPath>
</defs>
</svg>
